<?xml version="1.0" encoding="UTF-8"?>
<svg xmlns="http://www.w3.org/2000/svg" version="1.1" viewBox="0 0 595.28 841.89">
  <defs>
    <style>
      .cls-1 {
        fill: #323551;
        font-family: H2gtrE, HYGothic-Extra;
        font-size: 48px;
      }

      .cls-2, .cls-3 {
        fill: #fff;
      }

      .cls-4 {
        fill: #f6be59;
      }

      .cls-5 {
        stroke: #323551;
      }

      .cls-5, .cls-6 {
        fill: none;
        stroke-linecap: round;
        stroke-linejoin: round;
        stroke-width: 8px;
      }

      .cls-3 {
        opacity: .3;
      }

      .cls-7 {
        fill: #fad398;
      }

      .cls-8 {
        fill: #689b52;
      }

      .cls-9 {
        fill: #f6b05c;
      }

      .cls-10 {
        fill: #527f3c;
      }

      .cls-11 {
        fill: #c7e7f3;
      }

      .cls-6 {
        stroke: #efa93f;
      }

      .cls-12 {
        fill: #f49f43;
      }
    </style>
  </defs>
  <!-- Generator: Adobe Illustrator 28.7.1, SVG Export Plug-In . SVG Version: 1.2.0 Build 142)  -->
  <g>
    <g id="_레이어_1" data-name="레이어_1">
      <g>
        <g>
          <g>
            <path class="cls-4" d="M204.79,196.45c-4.38,0-8.12,3.19-8.82,7.52l-2.04,12.66h29.84v-20.18h-18.98Z"/>
            <path class="cls-7" d="M249.2,203.97c-.7-4.34-4.44-7.52-8.82-7.52h-16.62v20.18h27.48l-2.04-12.66Z"/>
            <path class="cls-10" d="M198.58,216.63c0,4.82.92,9.38,2.55,13.41v44.42c0,16.2-7.45,31.5-20.19,41.48h0c-12.74,9.98-20.19,25.28-20.19,41.48v180.78c0,7.87,6.37,14.26,14.23,14.26h48.79V216.63h-25.18Z"/>
            <path class="cls-8" d="M264.23,315.94h0c-12.74-9.98-20.19-25.28-20.19-41.48v-44.42c1.63-4.03,2.55-8.59,2.55-13.41h-22.83v335.83h46.43c7.86,0,14.23-6.38,14.23-14.26v-180.78c0-16.2-7.45-31.5-20.19-41.48Z"/>
            <path class="cls-4" d="M222.59,342.56c-15.5,0-28.86,16.49-34.94,40.23h-14.97v57.62h14.97c6.08,23.74,19.44,40.23,34.94,40.23.39,0,.79-.02,1.18-.04v-138c-.39-.02-.78-.04-1.18-.04Z"/>
            <path class="cls-7" d="M257.53,382.79c-5.92-23.14-18.76-39.37-33.76-40.19v138c15-.81,27.84-17.05,33.76-40.19h14.97v-57.62h-14.97Z"/>
            <path class="cls-5" d="M256.67,216.63h-57.31l2.04-12.66c.7-4.34,4.44-7.52,8.82-7.52h35.59c4.38,0,8.12,3.19,8.82,7.52l2.04,12.66Z"/>
            <line class="cls-5" x1="223.8" y1="216.63" x2="223.8" y2="206.54"/>
            <line class="cls-5" x1="241.05" y1="216.63" x2="241.05" y2="206.54"/>
            <line class="cls-5" x1="215.18" y1="216.63" x2="215.18" y2="206.54"/>
            <line class="cls-5" x1="232.43" y1="216.63" x2="232.43" y2="206.54"/>
            <line class="cls-5" x1="206.56" y1="216.63" x2="206.56" y2="206.54"/>
            <line class="cls-5" x1="249.67" y1="216.63" x2="249.67" y2="206.54"/>
            <path class="cls-5" d="M269.65,315.94h0c-12.74-9.98-20.19-25.28-20.19-41.48v-44.42c1.63-4.03,2.55-8.59,2.55-13.41h-48.01c0,4.82.92,9.38,2.55,13.41v44.42c0,16.2-7.45,31.5-20.19,41.48h0c-12.74,9.98-20.19,25.28-20.19,41.48v180.78c0,7.87,6.37,14.26,14.23,14.26h95.21c7.86,0,14.23-6.38,14.23-14.26v-180.78c0-16.2-7.45-31.5-20.19-41.48Z"/>
            <path class="cls-5" d="M277.92,382.79h-14.97c-6.08-23.74-19.44-40.23-34.94-40.23s-28.86,16.49-34.94,40.23h-14.97v57.62h14.97c6.08,23.74,19.44,40.23,34.94,40.23s28.86-16.49,34.94-40.23h14.97v-57.62Z"/>
            <rect class="cls-3" x="240.57" y="335.49" width="29.21" height="200.59" rx="14.6" ry="14.6"/>
          </g>
          <g>
            <g>
              <g>
                <g>
                  <path class="cls-7" d="M337.37,299.59c3.85-5.8,11.8-5.44,19.88.91,8.08,6.34,12.7,5.8,30.4-7.61,17.7-13.41,22.68,10.64,32.07,10.51,12.89-.18,13.38,25.46,13.38,25.46l-111.16.18c-.94-18.38,11.58-23.65,15.43-29.45Z"/>
                  <path class="cls-4" d="M344.02,303.4c7.24.13,11.09-23.92,24.75-10.51,13.66,13.41,17.51,14.48,23.47,7.61,10.12-11.68,26.74,8.34,26.01,26.72h-82.47s-1.71-24,8.24-23.82Z"/>
                </g>
                <path class="cls-11" d="M372.28,326.15c-32.52,0-55.45,1.23-55.45,2.74,0,0-.82,11.58,0,41.75.78,28.54,12.86,69.83,14.87,99.21,1.75,25.65-3.11,59.63-3.62,77.19-.09,2.96,2.29,5.41,5.25,5.41h39.73v-226.31c-.26,0-.52,0-.79,0Z"/>
                <path class="cls-2" d="M427.73,370.65c.82-30.17,0-41.75,0-41.75,0-1.5-22.56-2.72-54.66-2.74v226.31h38.16c2.96,0,5.34-2.44,5.25-5.41-.52-17.56-5.37-51.53-3.62-77.19,2.01-29.39,14.1-70.67,14.87-99.21Z"/>
                <path class="cls-9" d="M377.7,326.15c-23.59,0-41.45.83-47.08,1.96-.04,3.16-.08,8.79-.01,16.33h47.88v-18.29c-.26,0-.52,0-.79,0Z"/>
                <path class="cls-7" d="M424.79,328.12c-5.57-1.12-23.1-1.95-46.3-1.96v18.29h46.31c.07-7.53.03-13.17-.01-16.33Z"/>
                <path class="cls-9" d="M424.02,374.62c.49-11.8.69-22.09.77-30.18h-46.31v194.06c18.52-.07,32.93-2.58,33.51-5.5,1.92-9.61-3.63-33.41-1.58-61.06,1.98-26.62,12.48-70.13,13.6-97.31Z"/>
                <path class="cls-12" d="M330.61,344.44c.08,8.09.29,18.38.77,30.18,1.12,27.18,11.63,70.69,13.6,97.31,2.05,27.66-3.5,51.46-1.58,61.06.59,2.96,15.4,5.5,34.3,5.5.26,0,.52,0,.79,0v-194.06h-47.88Z"/>
                <path class="cls-5" d="M338.76,552.46h77.89c2.96,0,5.34-2.44,5.25-5.41-.52-17.56-5.37-51.53-3.62-77.19,2.01-29.39,14.1-70.67,14.87-99.21.82-30.17,0-41.75,0-41.75,0-1.52-22.92-2.74-55.45-2.74s-55.45,1.23-55.45,2.74c0,0-.82,11.58,0,41.75.78,28.54,12.86,69.83,14.87,99.21,1.75,25.65-3.11,59.63-3.62,77.19-.09,2.96,2.29,5.41,5.25,5.41Z"/>
              </g>
              <g>
                <g>
                  <ellipse class="cls-2" cx="382.8" cy="476.25" rx="2.38" ry="2.38"/>
                  <ellipse class="cls-2" cx="373.53" cy="459.85" rx="2.38" ry="2.38"/>
                  <circle class="cls-2" cx="381.37" cy="484.88" r="1.58"/>
                  <path class="cls-2" d="M390.88,448.73c0,1.58-1.28,2.86-2.85,2.86s-2.85-1.28-2.85-2.86,1.28-2.86,2.85-2.86,2.85,1.28,2.85,2.86Z"/>
                  <path class="cls-2" d="M382,435.23c0,1.23-.99,2.22-2.22,2.22s-2.22-.99-2.22-2.22.99-2.22,2.22-2.22,2.22.99,2.22,2.22Z"/>
                </g>
                <g>
                  <ellipse class="cls-2" cx="403.15" cy="429.51" rx="2.38" ry="2.38"/>
                  <ellipse class="cls-2" cx="393.88" cy="413.11" rx="2.38" ry="2.38"/>
                  <path class="cls-2" d="M403.31,438.14c0,.88-.71,1.59-1.58,1.59s-1.58-.71-1.58-1.59.71-1.59,1.58-1.59,1.58.71,1.58,1.59Z"/>
                  <path class="cls-2" d="M411.23,401.99c0,1.58-1.28,2.86-2.85,2.86s-2.85-1.28-2.85-2.86,1.28-2.86,2.85-2.86,2.85,1.28,2.85,2.86Z"/>
                  <path class="cls-2" d="M409.96,386.27c0,1.23-.99,2.22-2.22,2.22s-2.22-.99-2.22-2.22.99-2.22,2.22-2.22,2.22.99,2.22,2.22Z"/>
                </g>
                <g>
                  <ellipse class="cls-2" cx="364.51" cy="407.22" rx="2.38" ry="2.38"/>
                  <ellipse class="cls-2" cx="343.21" cy="386.27" rx="2.38" ry="2.38"/>
                  <path class="cls-2" d="M364.67,415.85c0,.88-.71,1.59-1.58,1.59s-1.58-.71-1.58-1.59.71-1.59,1.58-1.59,1.58.71,1.58,1.59Z"/>
                  <path class="cls-2" d="M372.59,379.71c0,1.58-1.28,2.86-2.85,2.86s-2.85-1.28-2.85-2.86,1.28-2.86,2.85-2.86,2.85,1.28,2.85,2.86Z"/>
                  <path class="cls-2" d="M363.71,366.21c0,1.23-.99,2.22-2.22,2.22s-2.22-.99-2.22-2.22.99-2.22,2.22-2.22,2.22.99,2.22,2.22Z"/>
                </g>
              </g>
            </g>
            <rect class="cls-3" x="376.28" y="344.44" width="29.21" height="185.36" rx="14.6" ry="14.6"/>
          </g>
        </g>
        <g>
          <line class="cls-6" x1="307.84" y1="261.61" x2="307.84" y2="284.96"/>
          <line class="cls-6" x1="307.84" y1="218.69" x2="307.84" y2="242.04"/>
          <line class="cls-6" x1="298.08" y1="251.82" x2="274.77" y2="251.82"/>
          <line class="cls-6" x1="329.25" y1="251.82" x2="317.6" y2="251.82"/>
          <line class="cls-6" x1="340.91" y1="251.82" x2="335.85" y2="251.82"/>
          <line class="cls-6" x1="288.82" y1="270.89" x2="284.46" y2="275.26"/>
          <line class="cls-6" x1="300.94" y1="258.74" x2="292.7" y2="267"/>
          <line class="cls-6" x1="331.22" y1="228.39" x2="314.74" y2="244.91"/>
          <line class="cls-6" x1="289.3" y1="233.25" x2="284.46" y2="228.39"/>
          <line class="cls-6" x1="300.94" y1="244.91" x2="293.29" y2="237.25"/>
          <line class="cls-6" x1="331.22" y1="275.26" x2="314.74" y2="258.74"/>
        </g>
        <line class="cls-5" x1="456.61" y1="552.46" x2="105.8" y2="552.46"/>
        <line class="cls-5" x1="488.47" y1="552.46" x2="468" y2="552.46"/>
      </g>
      <text class="cls-1" transform="translate(249.14 642.27)"><tspan x="0" y="0">맥주</tspan></text>
    </g>
  </g>
</svg>