<?xml version="1.0" encoding="UTF-8"?>
<svg xmlns="http://www.w3.org/2000/svg" version="1.1" viewBox="0 0 595.28 841.89">
  <defs>
    <style>
      .cls-1 {
        fill: #323551;
        font-family: H2gtrE, HYGothic-Extra;
        font-size: 48px;
      }

      .cls-2 {
        fill: #df5e0f;
      }

      .cls-3, .cls-4 {
        fill: #fff;
      }

      .cls-5 {
        fill: #f6be59;
      }

      .cls-6 {
        fill: none;
        stroke: #323551;
        stroke-linecap: round;
        stroke-linejoin: round;
        stroke-width: 8px;
      }

      .cls-4 {
        opacity: .3;
      }

      .cls-7 {
        fill: #728fa5;
      }

      .cls-8 {
        fill: #8da9c1;
      }

      .cls-9 {
        fill: #c7e7f3;
      }

      .cls-10 {
        fill: #c95519;
      }

      .cls-11 {
        fill: #f8d37a;
      }
    </style>
  </defs>
  <!-- Generator: Adobe Illustrator 28.7.1, SVG Export Plug-In . SVG Version: 1.2.0 Build 142)  -->
  <g>
    <g id="_레이어_1" data-name="레이어_1">
      <g>
        <g>
          <g>
            <g>
              <path class="cls-10" d="M216.66,199.8c-2.62,0-4.81,1.98-5.1,4.6l-4.32,39.7c-.33,3.06,2.04,5.73,5.1,5.73h2.6l-3.54,87.02c-.79,19.34-11.14,37-27.57,47.04h0c-20.26,12.38-30.88,36.03-26.73,59.53l17.17,97.28c1.32,7.49,7.79,12.95,15.34,12.95h43.69V199.8h-16.65Z"/>
              <path class="cls-2" d="M279.64,383.9h0c-16.43-10.04-26.78-27.7-27.57-47.05l-3.54-87.02h2.6c3.05,0,5.43-2.67,5.1-5.73l-4.32-39.7c-.29-2.62-2.48-4.6-5.1-4.6h-13.5v353.86h40.54c7.55,0,14.02-5.46,15.34-12.95l17.17-97.28c4.15-23.5-6.47-47.15-26.73-59.53Z"/>
              <rect class="cls-11" x="179.48" y="437.78" width="104.49" height="41"/>
              <rect class="cls-5" x="179.48" y="437.78" width="53.82" height="41"/>
              <path class="cls-7" d="M216.66,199.8c-2.62,0-4.81,1.98-5.1,4.6l-4.32,39.7c-.33,3.06,2.04,5.73,5.1,5.73h2.6l-3.54,87.02h21.91v-137.06h-16.65Z"/>
              <path class="cls-8" d="M256.22,244.1l-4.32-39.7c-.29-2.62-2.48-4.6-5.1-4.6h-13.5v137.06h18.76s-3.54-87.02-3.54-87.02h2.6c3.05,0,5.43-2.67,5.1-5.73Z"/>
              <path class="cls-6" d="M285.06,383.9h0c-16.43-10.04-26.78-27.7-27.57-47.05l-3.54-87.02h2.6c3.05,0,5.43-2.67,5.1-5.73l-4.32-39.7c-.29-2.62-2.48-4.6-5.1-4.6h-30.15c-2.62,0-4.81,1.98-5.1,4.6l-4.32,39.7c-.33,3.06,2.04,5.73,5.1,5.73h2.6l-3.54,87.02c-.79,19.34-11.14,37-27.57,47.04h0c-20.26,12.38-30.88,36.03-26.73,59.53l17.17,97.28c1.32,7.49,7.79,12.95,15.34,12.95h84.23c7.55,0,14.02-5.46,15.34-12.95l17.17-97.28c4.15-23.5-6.47-47.15-26.73-59.53Z"/>
              <path class="cls-6" d="M261.65,244.1l-4.32-39.7c-.29-2.62-2.48-4.6-5.1-4.6h-30.15c-2.62,0-4.81,1.98-5.1,4.6l-4.32,39.7c-.33,3.06,2.04,5.73,5.1,5.73h2.6l-3.54,87.02h40.68s-3.54-87.02-3.54-87.02h2.6c3.05,0,5.43-2.67,5.1-5.73Z"/>
              <rect class="cls-6" x="184.91" y="437.78" width="104.49" height="41"/>
              <path class="cls-4" d="M260.05,530.29h0c-6.99,0-12.66-5.71-12.66-12.75v-118.94c0-7.04,5.67-12.75,12.66-12.75h0c6.99,0,12.66,5.71,12.66,12.75v118.94c0,7.04-5.67,12.75-12.66,12.75Z"/>
            </g>
            <g>
              <path class="cls-9" d="M347.39,401.15s-60.79,90.95,15.8,101.57c4.97.69,8.67,4.96,8.67,10.01v22.46l-34.4,18.46h40.41v-152.5h-30.49Z"/>
              <path class="cls-3" d="M394.96,502.72c76.59-10.62,15.8-101.57,15.8-101.57h-32.88v152.5h42.81l-34.4-18.46v-22.46c0-5.05,3.7-9.32,8.67-10.01Z"/>
              <path class="cls-6" d="M416.19,401.15h-63.37s-60.79,90.95,15.8,101.57c4.97.69,8.67,4.96,8.67,10.01v22.46l-34.4,18.46h83.22l-34.4-18.46v-22.46c0-5.05,3.7-9.32,8.67-10.01,76.59-10.62,15.8-101.57,15.8-101.57Z"/>
              <path class="cls-10" d="M335.97,462.12c.4,18.15,11.33,33.68,47.33,34.02v-34.02h-47.33Z"/>
              <path class="cls-2" d="M383.31,462.12v34.02c.4,0,.79,0,1.2,0,36.96,0,48.12-15.67,48.53-34.02h-49.73Z"/>
              <path class="cls-4" d="M405.69,455.32c-2.1,16.5-8.32,30.27-21.55,36.65,1.26.08,2.54.13,3.89.13,27.73,0,36.11-16.94,36.41-36.78h-18.75Z"/>
            </g>
          </g>
          <g>
            <path class="cls-3" d="M330.76,325.12h0c-10.14,2.74-18.07,10.72-20.81,20.93h0c-2.72-10.22-10.64-18.2-20.78-20.96h0c10.14-2.74,18.07-10.72,20.81-20.93h0c2.72,10.22,10.64,18.2,20.78,20.96Z"/>
            <path class="cls-6" d="M336.19,325.12h0c-10.14,2.74-18.07,10.72-20.81,20.93h0c-2.72-10.22-10.64-18.2-20.78-20.96h0c10.14-2.74,18.07-10.72,20.81-20.93h0c2.72,10.22,10.64,18.2,20.78,20.96Z"/>
          </g>
          <g>
            <path class="cls-3" d="M364.66,359.38h0c-7.89,2.13-14.06,8.34-16.19,16.28h0c-2.12-7.95-8.28-14.16-16.17-16.31h0,0c7.89-2.13,14.06-8.34,16.19-16.28h0s0,0,0,0c2.12,7.95,8.28,14.16,16.17,16.31Z"/>
            <path class="cls-6" d="M370.09,359.38h0c-7.89,2.13-14.06,8.34-16.19,16.28h0c-2.12-7.95-8.28-14.16-16.17-16.31h0,0c7.89-2.13,14.06-8.34,16.19-16.28h0s0,0,0,0c2.12,7.95,8.28,14.16,16.17,16.31Z"/>
          </g>
          <line class="cls-6" x1="138.1" y1="553.66" x2="106.3" y2="553.66"/>
          <line class="cls-6" x1="488.98" y1="553.66" x2="156.21" y2="553.66"/>
        </g>
        <text class="cls-1" transform="translate(212.63 644.32)"><tspan x="0" y="0">브랜디</tspan></text>
      </g>
    </g>
  </g>
</svg>