<?xml version="1.0" encoding="UTF-8"?>
<svg xmlns="http://www.w3.org/2000/svg" version="1.1" viewBox="0 0 595.28 841.89">
  <defs>
    <style>
      .cls-1 {
        fill: #f5ac3a;
      }

      .cls-2 {
        fill: #323551;
        font-family: H2gtrE, HYGothic-Extra;
        font-size: 48px;
      }

      .cls-3, .cls-4 {
        fill: #fff;
      }

      .cls-5 {
        fill: #f6be59;
      }

      .cls-6 {
        stroke: #323551;
      }

      .cls-6, .cls-7, .cls-8 {
        fill: none;
        stroke-linecap: round;
        stroke-linejoin: round;
        stroke-width: 8px;
      }

      .cls-4 {
        opacity: .3;
      }

      .cls-9 {
        fill: #689b52;
      }

      .cls-7 {
        stroke: #fff;
      }

      .cls-10 {
        fill: #527f3c;
      }

      .cls-11 {
        fill: #b3c670;
      }

      .cls-12 {
        fill: #c7e7f3;
      }

      .cls-8 {
        stroke: #efa93f;
      }
    </style>
  </defs>
  <!-- Generator: Adobe Illustrator 28.7.1, SVG Export Plug-In . SVG Version: 1.2.0 Build 142)  -->
  <g>
    <g id="_레이어_1" data-name="레이어_1">
      <g>
        <g>
          <line class="cls-6" x1="441.42" y1="556.13" x2="106.3" y2="556.13"/>
          <line class="cls-6" x1="488.98" y1="556.13" x2="456.84" y2="556.13"/>
          <g>
            <path class="cls-10" d="M231.6,202.26c-6.03,0-11,4.75-11.32,10.81l-1.79,34.15c-.26,4.96,3.67,9.13,8.6,9.13v1.96c0,27.27-6.4,54.15-18.67,78.45h0c-12.46,24.67-24.29,52-24.09,79.68l.87,122.93c.07,9.24,7.52,16.7,16.7,16.7h39.46V202.26h-9.76Z"/>
            <path class="cls-9" d="M276.83,336.77h0c-12.28-24.73-18.67-52.01-18.67-79.66v-.75h0c4.94,0,8.86-4.17,8.6-9.13l-1.79-34.15c-.32-6.06-5.29-10.81-11.32-10.81h-12.28v353.83h41.98c9.18,0,16.64-7.46,16.7-16.7l.87-122.93c.2-27.68-11.63-55.01-24.09-79.68Z"/>
            <path class="cls-1" d="M231.6,202.26c-6.03,0-11,4.75-11.32,10.81l-1.79,34.15c-.26,4.96,3.67,9.13,8.6,9.13v1.96c0,27.27-6.4,54.15-18.67,78.45h32.94v-134.51h-9.76Z"/>
            <path class="cls-5" d="M258.16,257.11v-.75c4.94,0,8.86-4.17,8.6-9.13l-1.79-34.15c-.32-6.06-5.29-10.81-11.32-10.81h-12.28v134.51h35.46c-12.28-24.73-18.67-52.01-18.67-79.66Z"/>
            <path class="cls-12" d="M327.8,330.6c-9.72,112.12,34.01,123.63,34.01,164.53,0,0,.84,26.11.37,49.25l-35.79,11.72h38.22v-225.49h-36.81Z"/>
            <path class="cls-3" d="M405.52,556.09l-35.79-11.72c-.46-23.14.37-49.25.37-49.25,0-40.9,43.72-52.41,34.01-164.53h-39.5v225.49h40.91Z"/>
            <path class="cls-6" d="M375.15,544.37c-.46-23.14.37-49.25.37-49.25,0-40.9,43.72-52.41,34.01-164.53h-76.31c-9.72,112.12,34.01,123.63,34.01,164.53,0,0,.84,26.11.37,49.25l-35.79,11.72h79.13l-35.79-11.72Z"/>
            <path class="cls-6" d="M282.25,336.77h0c-12.28-24.73-18.67-52.01-18.67-79.66v-.75h0c4.94,0,8.86-4.17,8.6-9.13l-1.79-34.15c-.32-6.06-5.29-10.81-11.32-10.81h-22.04c-6.03,0-11,4.75-11.32,10.81l-1.79,34.15c-.26,4.96,3.67,9.13,8.6,9.13h0v1.96c0,27.27-6.4,54.15-18.67,78.45h0c-12.46,24.67-24.29,52-24.09,79.68l.87,122.93c.07,9.24,7.52,16.7,16.7,16.7h81.44c9.18,0,16.64-7.46,16.7-16.7l.87-122.93c.2-27.68-11.63-55.01-24.09-79.68Z"/>
            <path class="cls-1" d="M339.68,364.28c.45,46.53,12.29,69.46,22.14,88.54.04.07.07.14.11.21,1.75,3.38,4.84,5.28,8.09,5.69v-94.45h-30.34Z"/>
            <path class="cls-5" d="M370.03,364.28v94.45c4.15.52,8.56-1.37,10.79-5.69.04-.07.07-.14.11-.21,9.85-19.08,21.69-42.01,22.14-88.54h-33.04Z"/>
            <path class="cls-4" d="M388.07,337.87c-.58,60.03-11.15,90.88-20.17,116.5,4.38,1.47,9.37-.76,11.71-6.71.03-.09.07-.18.1-.26,9.3-23.6,20.48-51.97,20.39-109.53h-12.04Z"/>
            <line class="cls-6" x1="282.25" y1="336.77" x2="213.85" y2="336.77"/>
            <path class="cls-9" d="M218.62,407.99h-16.3v70.49h39.04v-94.64c-12.67.66-22.74,11.22-22.74,24.15Z"/>
            <path class="cls-11" d="M282.93,407.99h-16.3c0-13.35-10.75-24.18-24-24.18-.42,0-.84.01-1.26.03v94.64h41.57v-70.49Z"/>
            <path class="cls-7" d="M272.06,407.99c0-13.35-10.75-24.18-24-24.18s-24,10.83-24,24.18h-16.3v70.49h80.61v-70.49h-16.3Z"/>
            <rect class="cls-4" x="254.92" y="357.9" width="25.32" height="177.04" rx="12.66" ry="12.66"/>
            <g>
              <g>
                <ellipse class="cls-3" cx="371.68" cy="438.84" rx="2.38" ry="2.39"/>
                <ellipse class="cls-3" cx="362.41" cy="422.36" rx="2.38" ry="2.39"/>
                <ellipse class="cls-3" cx="370.25" cy="447.52" rx="1.58" ry="1.6"/>
                <path class="cls-3" d="M379.76,411.19c0,1.59-1.28,2.87-2.85,2.87s-2.85-1.29-2.85-2.87,1.28-2.87,2.85-2.87,2.85,1.29,2.85,2.87Z"/>
                <path class="cls-3" d="M370.88,397.61c0,1.23-.99,2.23-2.22,2.23s-2.22-1-2.22-2.23.99-2.23,2.22-2.23,2.22,1,2.22,2.23Z"/>
              </g>
              <g>
                <ellipse class="cls-3" cx="392.03" cy="391.86" rx="2.38" ry="2.39"/>
                <path class="cls-3" d="M385.14,375.38c0,1.32-1.06,2.39-2.38,2.39s-2.38-1.07-2.38-2.39,1.06-2.39,2.38-2.39,2.38,1.07,2.38,2.39Z"/>
                <ellipse class="cls-3" cx="390.6" cy="400.53" rx="1.58" ry="1.6"/>
              </g>
              <path class="cls-3" d="M353.55,378.13c0,.88-.71,1.6-1.58,1.6s-1.58-.71-1.58-1.6.71-1.6,1.58-1.6,1.58.71,1.58,1.6Z"/>
            </g>
          </g>
          <g>
            <line class="cls-8" x1="324.91" y1="270.49" x2="324.91" y2="293.96"/>
            <line class="cls-8" x1="324.91" y1="227.34" x2="324.91" y2="250.82"/>
            <line class="cls-8" x1="315.15" y1="260.65" x2="291.84" y2="260.65"/>
            <line class="cls-8" x1="346.33" y1="260.65" x2="334.67" y2="260.65"/>
            <line class="cls-8" x1="357.98" y1="260.65" x2="352.92" y2="260.65"/>
            <line class="cls-8" x1="305.89" y1="279.81" x2="301.53" y2="284.21"/>
            <line class="cls-8" x1="318.01" y1="267.61" x2="309.77" y2="275.91"/>
            <line class="cls-8" x1="348.29" y1="237.1" x2="331.81" y2="253.7"/>
            <line class="cls-8" x1="306.37" y1="241.98" x2="301.53" y2="237.1"/>
            <line class="cls-8" x1="318.01" y1="253.7" x2="310.36" y2="246"/>
            <line class="cls-8" x1="348.29" y1="284.21" x2="331.81" y2="267.61"/>
          </g>
          <g>
            <path class="cls-3" d="M435.99,483.96h0,0c-10.14,2.74-18.07,10.72-20.81,20.93h0s0,0,0,0c-2.72-10.22-10.64-18.2-20.78-20.96h0c10.14-2.74,18.07-10.72,20.81-20.93h0c2.72,10.22,10.64,18.2,20.78,20.96Z"/>
            <path class="cls-6" d="M441.42,483.96h0,0c-10.14,2.74-18.07,10.72-20.81,20.93h0s0,0,0,0c-2.72-10.22-10.64-18.2-20.78-20.96h0c10.14-2.74,18.07-10.72,20.81-20.93h0c2.72,10.22,10.64,18.2,20.78,20.96Z"/>
          </g>
        </g>
        <text class="cls-2" transform="translate(225.64 642.39)"><tspan x="0" y="0">샴페인</tspan></text>
      </g>
    </g>
  </g>
</svg>