<?xml version="1.0" encoding="UTF-8"?>
<svg xmlns="http://www.w3.org/2000/svg" version="1.1" xmlns:xlink="http://www.w3.org/1999/xlink" viewBox="0 0 595.28 841.89">
  <defs>
    <style>
      .cls-1 {
        fill: #d2e9f1;
      }

      .cls-2 {
        fill: #d4ecf4;
      }

      .cls-3 {
        fill: url(#linear-gradient-2);
      }

      .cls-4 {
        fill: #faf6be;
      }

      .cls-5 {
        fill: #323551;
        font-family: H2gtrE, HYGothic-Extra;
        font-size: 48px;
      }

      .cls-6 {
        fill: #a9dcf7;
      }

      .cls-7 {
        fill: #a7d6ef;
      }

      .cls-8 {
        fill: #f0f097;
      }

      .cls-9, .cls-10 {
        fill: #fff;
      }

      .cls-11 {
        stroke: #689b52;
      }

      .cls-11, .cls-12, .cls-13, .cls-14 {
        fill: none;
        stroke-linecap: round;
        stroke-linejoin: round;
        stroke-width: 8px;
      }

      .cls-12 {
        stroke: #323551;
      }

      .cls-13 {
        stroke: #3d6b33;
      }

      .cls-15 {
        fill: #1f4c9f;
      }

      .cls-10 {
        opacity: .3;
      }

      .cls-14 {
        stroke: #fff;
      }

      .cls-16 {
        fill: #889bce;
      }

      .cls-17 {
        fill: #b3c670;
      }

      .cls-18 {
        fill: #c7e7f3;
      }

      .cls-19 {
        fill: url(#linear-gradient);
      }
    </style>
    <linearGradient id="linear-gradient" x1="2515.58" y1="940.41" x2="2634.98" y2="940.41" gradientTransform="translate(1859.02 -1671.88) rotate(146.57) scale(1 -1)" gradientUnits="userSpaceOnUse">
      <stop offset="0" stop-color="#689b52"/>
      <stop offset="1" stop-color="#b3c670"/>
    </linearGradient>
    <linearGradient id="linear-gradient-2" x1="2214.46" y1="124.2" x2="2264.07" y2="124.2" gradientTransform="translate(-113.74 -1495.83) rotate(72.44) scale(.94)" xlink:href="#linear-gradient"/>
  </defs>
  <!-- Generator: Adobe Illustrator 28.7.1, SVG Export Plug-In . SVG Version: 1.2.0 Build 142)  -->
  <g>
    <g id="_레이어_1" data-name="레이어_1">
      <g>
        <g>
          <rect class="cls-18" x="266.28" y="241.57" width="23.03" height="44.13"/>
          <rect class="cls-9" x="289.31" y="241.57" width="22.49" height="44.13"/>
          <path class="cls-6" d="M266.28,285.7v6.39c0,9.4-7.65,17.02-17.09,17.02h0c-9.44,0-17.09,7.62-17.09,17.02v216.87c0,6.37,5.18,11.53,11.57,11.53h45.64v-268.83h-23.03Z"/>
          <path class="cls-2" d="M328.88,309.12c-9.44,0-17.09-7.62-17.09-17.02v-6.39h-22.49v268.83h45.09c6.39,0,11.57-5.16,11.57-11.53v-216.87c0-9.4-7.65-17.02-17.09-17.02Z"/>
          <rect class="cls-4" x="289.31" y="197.88" width="27.1" height="43.7"/>
          <rect class="cls-8" x="261.67" y="197.88" width="27.64" height="43.7"/>
          <path class="cls-15" d="M270.62,349.47c-3.5,0-6.33,2.82-6.33,6.3v131.78c0,3.48,2.83,6.3,6.33,6.3h18.69v-144.39h-18.69Z"/>
          <path class="cls-16" d="M307.45,349.47h-18.15v144.39h18.15c3.5,0,6.33-2.82,6.33-6.3v-131.78c0-3.48-2.83-6.3-6.33-6.3Z"/>
          <path class="cls-12" d="M317.22,292.1v-50.52h-45.52v50.52c0,9.4-7.65,17.02-17.09,17.02h0c-9.44,0-17.09,7.62-17.09,17.02v216.87c0,6.37,5.18,11.53,11.57,11.53h90.73c6.39,0,11.57-5.16,11.57-11.53v-216.87c0-9.4-7.65-17.02-17.09-17.02h0c-9.44,0-17.09-7.62-17.09-17.02Z"/>
          <rect class="cls-12" x="267.09" y="197.88" width="54.74" height="43.7"/>
          <rect class="cls-14" x="269.71" y="349.47" width="49.49" height="144.39" rx="11.67" ry="11.67"/>
          <polygon class="cls-18" points="378.62 431.24 387.92 536.55 387.48 554.53 413.14 554.53 413.14 431.24 378.62 431.24"/>
          <polygon class="cls-9" points="440.1 536.55 449.4 431.24 413.14 431.24 413.14 554.53 440.54 554.53 440.1 536.55"/>
          <path class="cls-1" d="M418.57,439.53v98.21c.29.01.58.02.87.02h0c11.25,0,20.58-8.65,21.39-19.83l5.68-78.4h-27.94Z"/>
          <path class="cls-7" d="M392.36,439.53l5.68,78.4c.79,10.89,9.67,19.38,20.53,19.81v-98.21h-26.21Z"/>
          <polygon class="cls-12" points="392.91 554.53 445.96 554.53 445.52 536.55 454.83 431.24 384.04 431.24 393.34 536.55 392.91 554.53"/>
          <rect class="cls-10" x="304.6" y="319.5" width="29.21" height="222.34" rx="14.6" ry="14.6"/>
          <g>
            <path class="cls-9" d="M226.68,275.96h0,0c-10.14,2.71-18.07,10.6-20.81,20.7h0c-2.72-10.1-10.64-18-20.78-20.73h0c10.14-2.71,18.07-10.6,20.81-20.7h0c2.72,10.1,10.64,18,20.78,20.73Z"/>
            <path class="cls-12" d="M232.1,275.96h0,0c-10.14,2.71-18.07,10.6-20.81,20.7h0c-2.72-10.1-10.64-18-20.78-20.73h0c10.14-2.71,18.07-10.6,20.81-20.7h0c2.72,10.1,10.64,18,20.78,20.73Z"/>
          </g>
          <path class="cls-10" d="M430.11,539.03h0c-3.22,0-5.83-2.6-5.83-5.81v-79.16c0-3.21,2.61-5.81,5.83-5.81h0c3.22,0,5.83,2.6,5.83,5.81v79.16c0,3.21-2.61,5.81-5.83,5.81Z"/>
          <line class="cls-12" x1="130.79" y1="554.53" x2="106.3" y2="554.53"/>
          <line class="cls-12" x1="488.98" y1="554.53" x2="151.41" y2="554.53"/>
        </g>
        <text class="cls-5" transform="translate(249.64 641.34)"><tspan x="0" y="0">청주</tspan></text>
      </g>
      <g>
        <path class="cls-17" d="M454.51,492.27c-26.11,42.39-70.29,37.38-99.46,42.82,27.67-11.72,77.64-21.17,99.46-42.82Z"/>
        <path class="cls-11" d="M454.51,492.27c-36.06,36.24-61.63,31.2-99.46,42.82"/>
        <path class="cls-13" d="M454.51,492.27c-21.82,21.65-71.78,31.1-99.46,42.82"/>
        <path class="cls-13" d="M454.51,492.27c-26.11,42.39-70.29,37.38-99.46,42.82"/>
      </g>
      <g>
        <path class="cls-19" d="M154.76,529.48c76.88,30.11,111.99,9.76,146.01,4.46-40.39-1.06-98.82,7.91-146.01-4.46Z"/>
        <path class="cls-11" d="M154.83,529.02c78.58,20.86,96.25,7.1,146.01,4.45"/>
        <path class="cls-13" d="M154.83,529.02c47.2,12.37,105.62,3.4,146.01,4.45"/>
        <path class="cls-13" d="M154.83,529.02c76.87,30.11,111.99,9.76,146.01,4.45"/>
      </g>
      <g>
        <path class="cls-3" d="M488.9,539.22c-13.92,6.56-40.77,3.3-72.35,1.62-31.03-1.96-66.78-2.36-85.73,3.46,18.57-14.55,48.17-15.51,76.24-12.79,28.62,2.66,55.72,9.02,81.84,7.71Z"/>
        <path class="cls-11" d="M330.82,544.3c24.15-10.04,55.52-9.95,83.36-7.8,28.3,2.08,53.06,6.22,74.73,2.72"/>
        <path class="cls-13" d="M330.82,544.3c18.95-5.82,54.7-5.43,85.73-3.46,31.58,1.68,58.43,4.94,72.35-1.62"/>
        <path class="cls-13" d="M330.82,544.3c18.57-14.55,48.17-15.51,76.24-12.79,28.62,2.66,55.72,9.02,81.84,7.71"/>
      </g>
      <line class="cls-12" x1="-482.48" y1="440.27" x2="-504.96" y2="440.27"/>
    </g>
  </g>
</svg>