<?xml version="1.0" encoding="UTF-8"?>
<svg xmlns="http://www.w3.org/2000/svg" version="1.1" viewBox="0 0 595.28 841.89">
  <defs>
    <style>
      .cls-1 {
        fill: #f4ed46;
      }

      .cls-2 {
        stroke: #3d6b33;
      }

      .cls-2, .cls-3, .cls-4, .cls-5 {
        fill: none;
        stroke-linecap: round;
        stroke-linejoin: round;
      }

      .cls-2, .cls-5 {
        stroke-width: 5px;
      }

      .cls-6 {
        fill: #323551;
        font-family: H2gtrE, HYGothic-Extra;
        font-size: 48px;
      }

      .cls-7, .cls-8 {
        fill: #fff;
      }

      .cls-9 {
        fill: #ecc836;
      }

      .cls-3 {
        stroke: #323551;
      }

      .cls-3, .cls-4 {
        stroke-width: 8px;
      }

      .cls-8 {
        opacity: .3;
      }

      .cls-10 {
        fill: #689b52;
      }

      .cls-4 {
        stroke: #fff;
      }

      .cls-11 {
        fill: #f5cf2c;
      }

      .cls-12 {
        fill: #eae54e;
      }

      .cls-13 {
        fill: #c7e7f3;
      }

      .cls-5 {
        stroke: #b3c670;
      }

      .cls-14 {
        fill: #addce6;
      }
    </style>
  </defs>
  <!-- Generator: Adobe Illustrator 28.7.1, SVG Export Plug-In . SVG Version: 1.2.0 Build 142)  -->
  <g>
    <g id="_레이어_1" data-name="레이어_1">
      <g>
        <g>
          <line class="cls-3" x1="488.98" y1="552.13" x2="472.72" y2="552.13"/>
          <path class="cls-14" d="M192.38,255.4c-.23,15.21-2.69,29.4-14.75,38.83-12.74,9.96-20.19,25.24-20.19,41.42l-5.42,202.25c0,7.86,6.37,14.24,14.23,14.24h48.91V255.4h-22.78Z"/>
          <path class="cls-13" d="M270.26,335.65c0-16.18-7.45-31.46-20.19-41.42-12.06-9.43-14.52-23.62-14.75-38.83h-20.16v296.73h46.3c7.86,0,14.23-6.37,14.23-14.24l-5.42-202.25Z"/>
          <path class="cls-9" d="M192.55,196.61c-2.74,0-4.96,2.22-4.96,4.97v48.86c0,2.74,2.22,4.97,4.96,4.97h22.61v-58.79h-22.61Z"/>
          <path class="cls-12" d="M235.15,196.61h-19.99v58.79h19.99c2.74,0,4.96-2.22,4.96-4.97v-48.86c0-2.74-2.22-4.97-4.96-4.97Z"/>
          <path class="cls-11" d="M213.85,338.01c-15.38,0-27.85,12.48-27.85,27.87h-29.37l-2.17,80.87h60.7v-108.7c-.43-.02-.87-.03-1.31-.03Z"/>
          <path class="cls-1" d="M271.07,365.88h-29.37c0-14.95-11.77-27.15-26.54-27.83v108.7h58.08l-2.17-80.87Z"/>
          <path class="cls-7" d="M219.28,349.58c-9,0-16.29,7.3-16.29,16.3s7.29,16.3,16.29,16.3c.44,0,.88-.02,1.31-.06v-32.48c-.43-.03-.87-.06-1.31-.06Z"/>
          <path class="cls-7" d="M235.57,365.88c0-8.56-6.6-15.58-14.98-16.24v32.48c8.38-.67,14.98-7.68,14.98-16.24Z"/>
          <path class="cls-3" d="M275.69,335.65c0-16.18-7.45-31.46-20.19-41.42h0c-12.06-9.43-14.52-23.62-14.75-38.83h-42.94c-.23,15.21-2.69,29.4-14.75,38.83h0c-12.74,9.96-20.19,25.24-20.19,41.42l-5.42,202.25c0,7.86,6.37,14.24,14.23,14.24h95.21c7.86,0,14.23-6.37,14.23-14.24l-5.42-202.25Z"/>
          <rect class="cls-3" x="193.02" y="196.61" width="52.52" height="58.79" rx="9.15" ry="9.15"/>
          <path class="cls-3" d="M276.5,365.88h-29.37c0-15.39-12.47-27.87-27.85-27.87s-27.85,12.48-27.85,27.87h-29.37l-2.17,80.87h118.78l-2.17-80.87Z"/>
          <ellipse class="cls-7" cx="219.28" cy="365.88" rx="16.29" ry="16.3"/>
          <line class="cls-4" x1="171.95" y1="428.29" x2="266.61" y2="428.29"/>
          <g>
            <polygon class="cls-13" points="294.76 446.75 305.12 532.01 304.63 552.13 332.04 552.13 332.04 446.75 294.76 446.75"/>
            <polygon class="cls-7" points="363.24 532.01 373.6 446.75 332.04 446.75 332.04 552.13 363.72 552.13 363.24 532.01"/>
            <polygon class="cls-3" points="310.06 552.13 369.15 552.13 368.66 532.01 379.02 446.75 300.18 446.75 310.55 532.01 310.06 552.13"/>
            <path class="cls-14" d="M363.75,502.19l5.08-41.81h-58.45l5.08,41.81c1.48,12.21,11.85,21.4,24.14,21.4h0c12.3,0,22.66-9.18,24.14-21.4Z"/>
          </g>
          <path class="cls-8" d="M245.54,529.5h0c-8.07,0-14.6-6.54-14.6-14.61v-187.61c0-8.07,6.54-14.61,14.6-14.61h0c8.07,0,14.6,6.54,14.6,14.61v187.61c0,8.07-6.54,14.61-14.6,14.61Z"/>
          <g>
            <path class="cls-7" d="M336.35,395.46h0,0c-10.14,2.72-18.07,10.65-20.81,20.79h0c-2.72-10.15-10.64-18.08-20.78-20.82h0c10.14-2.72,18.07-10.65,20.81-20.79h0c2.72,10.15,10.64,18.08,20.78,20.82Z"/>
            <path class="cls-3" d="M341.77,395.46h0,0c-10.14,2.72-18.07,10.65-20.81,20.79h0c-2.72-10.15-10.64-18.08-20.78-20.82h0c10.14-2.72,18.07-10.65,20.81-20.79h0c2.72,10.15,10.64,18.08,20.78,20.82Z"/>
          </g>
          <g>
            <path class="cls-7" d="M377.87,344.8h0c-7.17,1.93-12.77,7.52-14.7,14.69h0c-1.92-7.17-7.52-12.78-14.68-14.71h0c7.17-1.93,12.77-7.52,14.7-14.69h0c1.92,7.17,7.52,12.78,14.68,14.71Z"/>
            <path class="cls-3" d="M383.3,344.8h0c-7.17,1.93-12.77,7.52-14.7,14.69h0c-1.92-7.17-7.52-12.78-14.68-14.71h0c7.17-1.93,12.77-7.52,14.7-14.69h0c1.92,7.17,7.52,12.78,14.68,14.71Z"/>
          </g>
          <line class="cls-3" x1="461.87" y1="552.13" x2="106.3" y2="552.13"/>
          <g>
            <path class="cls-10" d="M382.38,512.15c-.73-.39-2.15-.5-2.88,0-.09.06-9.34,6.65-25.56,14.15-13.97,6.47-36.53,13.73-63.1,18.81-1.77.34-2.92,1.47-2.53,2.51h0c.38,1,2.04,1.54,3.75,1.2,11.35-2.23,22.72-5.22,33.87-8.91,10.3-3.4,20.44-7.41,30.14-11.9,16.53-7.66,26.52-13.54,26.91-13.81.73-.5.14-1.68-.6-2.07Z"/>
            <g>
              <path class="cls-10" d="M386.18,495.76c-7.94,14.68-20.47,28-23.58,27.59-3.11-.41,7.56-13.98,15.51-28.66,7.94-14.68,11.28-26.99,14.38-26.58,3.11.41,1.63,12.97-6.31,27.64Z"/>
              <path class="cls-5" d="M362.6,523.35s25.07-28.86,29.89-55.23"/>
              <path class="cls-2" d="M386.18,495.76c-7.94,14.68-20.47,28-23.58,27.59-3.11-.41,7.56-13.98,15.51-28.66,7.94-14.68,11.28-26.99,14.38-26.58,3.11.41,1.63,12.97-6.31,27.64Z"/>
            </g>
            <g>
              <path class="cls-10" d="M414.12,495.15c-19.97,8.1-36.43,18.45-34.83,20.1,1.6,1.65,19.02-7.71,38.99-15.81,19.97-8.1,37.76-13.01,36.16-14.66s-20.35,2.27-40.32,10.37Z"/>
              <path class="cls-5" d="M379.3,515.24s36.3-21.25,75.15-30.47"/>
              <path class="cls-2" d="M414.12,495.15c-19.97,8.1-36.43,18.45-34.83,20.1,1.6,1.65,19.02-7.71,38.99-15.81,19.97-8.1,37.76-13.01,36.16-14.66s-20.35,2.27-40.32,10.37Z"/>
            </g>
            <g>
              <path class="cls-10" d="M435.39,480.13c-19.97,8.1-35.83,19.06-33.86,21.1,1.98,2.04,19.02-7.71,38.99-15.81,19.97-8.1,38.14-12.63,36.16-14.66-1.98-2.04-21.32,1.27-41.29,9.37Z"/>
              <path class="cls-5" d="M401.7,501.4s36.3-21.25,75.15-30.47"/>
              <path class="cls-2" d="M436.52,481.3c-19.97,8.1-36.43,18.45-34.83,20.1s19.02-7.71,38.99-15.81c19.97-8.1,37.76-13.01,36.16-14.66-1.6-1.65-20.35,2.27-40.32,10.37Z"/>
            </g>
            <g>
              <path class="cls-10" d="M380.17,528.68c-22.76,1.41-44.54,5.99-44.61,8.02-.07,2.02,21.67-1.35,44.43-2.76,22.76-1.41,41.15-.54,41.21-2.56.07-2.02-18.28-4.11-41.04-2.69Z"/>
              <path class="cls-5" d="M336.7,535.28s46.74-8.63,85.65-5.32"/>
              <path class="cls-2" d="M381.31,527.26c-22.76,1.41-44.54,5.99-44.61,8.02-.07,2.02,21.67-1.35,44.43-2.76,22.76-1.41,41.15-.54,41.21-2.56.07-2.02-18.28-4.11-41.04-2.69Z"/>
            </g>
            <g>
              <path class="cls-10" d="M345.19,521.81c-14.43,11.73-32.29,21.16-34.87,20.07-2.58-1.09,13.74-11.17,28.16-22.9,14.43-11.73,23.54-22.32,26.12-21.24,2.58,1.09-4.99,12.33-19.41,24.06Z"/>
              <path class="cls-5" d="M312.53,542.4s36.83-20.9,54.28-44.13"/>
              <path class="cls-2" d="M347.39,522.33c-14.43,11.73-32.29,21.16-34.87,20.07-2.58-1.09,13.74-11.17,28.16-22.9,14.43-11.73,23.54-22.32,26.12-21.24,2.58,1.09-4.99,12.33-19.41,24.06Z"/>
            </g>
            <g>
              <path class="cls-10" d="M414.78,492.9c-15.44,12.74-35.62,22.6-39.04,21.18-3.42-1.42,14.71-12.13,30.15-24.86,15.44-12.74,24.54-24.48,27.96-23.06,3.42,1.42-3.63,14-19.07,26.74Z"/>
              <path class="cls-5" d="M377.99,515.02s38.84-23.05,58.11-47.92"/>
              <path class="cls-2" d="M414.78,492.9c-15.44,12.74-34.23,23.17-36.79,22.12-2.56-1.06,14.71-12.13,30.15-24.86,15.44-12.74,25.41-24.12,27.96-23.06,2.56,1.06-5.88,13.07-21.32,25.81Z"/>
            </g>
            <g>
              <path class="cls-10" d="M381.04,499.62c-4.31,15.47-28.86,28.3-33.04,27.97-4.16-.14,17.88-13.12,22.16-28.58,5.06-15.39-6.94-27.97-2.57-27.66,4.04.17,18.53,12.89,13.45,28.28Z"/>
              <path class="cls-5" d="M353.35,527.89c-.41-.02,10.73-6.86,17.9-17.73,7.45-10.75,10.92-25.53,1.69-38.52"/>
              <path class="cls-2" d="M381.05,499.62c-4.56,15.45-24.5,28.55-27.7,28.27-3.19-.08,14.82-13.29,19.36-28.74,5.13-15.39-3.12-27.75.23-27.51,3.1.12,13.25,12.59,8.11,27.98Z"/>
            </g>
            <g>
              <path class="cls-10" d="M401.43,514.79c25.36-1.13,47,7.71,46.57,9.73-.1,1.96-21.91-5.67-47.27-4.53-25.26.76-45.45,8.9-45.07,6.8.16-1.92,20.51-11.25,45.78-12Z"/>
              <path class="cls-5" d="M451.34,523.63c-.02.25-11.33-4.8-29.21-6.42-17.68-1.82-41.93-.21-63.13,8.69"/>
              <path class="cls-2" d="M404.77,513.9c25.36-1.13,47,7.71,46.57,9.73-.1,1.96-21.91-5.67-47.27-4.53-25.26.76-45.45,8.9-45.07,6.8.16-1.92,20.51-11.25,45.78-12Z"/>
            </g>
            <g>
              <path class="cls-10" d="M368.28,531.37c24.89,1.21,43.06,13.51,42.02,15.79-.71,2.25-19.42-8.68-44.32-9.88-24.68-1.62-46.75,5.74-45.73,3.37.75-2.19,23.36-10.9,48.03-9.27Z"/>
              <path class="cls-5" d="M410.91,545.6c-.09.25-9.75-5.92-26.66-9.25-16.66-3.52-40.57-4.2-63.39,2.74"/>
              <path class="cls-2" d="M368.29,531.36c24.86,1.28,43.55,12.25,42.62,14.24-.61,1.97-19.77-7.8-44.63-9.07-24.67-1.64-46.32,4.63-45.41,2.55.65-1.91,22.76-9.37,47.43-7.72Z"/>
            </g>
          </g>
        </g>
        <text class="cls-6" transform="translate(225.64 642.36)"><tspan x="0" y="0">증류주</tspan></text>
      </g>
    </g>
  </g>
</svg>