<?xml version="1.0" encoding="UTF-8"?>
<svg xmlns="http://www.w3.org/2000/svg" version="1.1" viewBox="0 0 595.28 841.89">
  <defs>
    <style>
      .cls-1 {
        fill: #fad2a8;
      }

      .cls-2 {
        fill: #fff;
      }

      .cls-3 {
        fill: #323551;
        font-family: H2gtrE, HYGothic-Extra;
        font-size: 48px;
      }

      .cls-3, .cls-4 {
        isolation: isolate;
      }

      .cls-5 {
        fill: none;
        stroke: #323551;
        stroke-linecap: round;
        stroke-linejoin: round;
        stroke-width: 8px;
      }

      .cls-6 {
        fill: #fbdeb2;
      }
    </style>
  </defs>
  <!-- Generator: Adobe Illustrator 28.7.1, SVG Export Plug-In . SVG Version: 1.2.0 Build 142)  -->
  <g>
    <g id="_레이어_1" data-name="레이어_1">
      <g>
        <g>
          <path class="cls-1" d="M160.47,395.98c-18.43,19.4-29.53,44.37-29.53,71.63,0,31.67,15.36,60.45,39.79,80.87h82.08v-152.5h-92.35,0Z"/>
          <path class="cls-6" d="M250.58,395.98v152.5h102.13c26.62-20.36,43.22-49.06,43.22-80.87,0-27.26-12.19-52.23-32.42-71.63h-112.93Z"/>
          <path class="cls-5" d="M130.92,466.91c0,31.22,15.27,59.67,39.76,80.31,1.47,1.24,3.32,1.94,5.24,1.94h179.49c1.93,0,3.78-.7,5.26-1.95,24.27-20.57,39.29-48.95,39.29-80.3s-13.67-60.59-38.67-79.77c-16.32-12.52-20.42-35.73-8.82-54.91,2.25-3.72,5.3-6.88,8.58-9.66,5.68-4.83,2.26-14.12-5.2-14.15l-186.61-.85c-2.25.28-4.87,13.98,9.55,25.24,16.69,13.04,7.77,39.82-9.05,54.22-24,20.53-38.81,48.75-38.81,79.89h-.01Z"/>
          <g>
            <path class="cls-2" d="M418.04,299.44h0c-10.14,3.08-18.07,12.03-20.81,23.5h0c-2.72-11.47-10.64-20.43-20.78-23.53h0c10.14-3.08,18.07-12.03,20.81-23.5h0c2.72,11.47,10.64,20.43,20.78,23.53Z"/>
            <path class="cls-5" d="M423.45,299.44h0c-10.14,3.08-18.07,12.03-20.81,23.5h0c-2.72-11.47-10.64-20.43-20.78-23.53h0c10.14-3.08,18.07-12.03,20.81-23.5h0c2.72,11.47,10.64,20.43,20.78,23.53Z"/>
          </g>
          <g>
            <path class="cls-2" d="M368.04,253.01h0c-10.14,3.08-18.07,12.03-20.81,23.5h0c-2.72-11.47-10.64-20.43-20.78-23.53h0c10.14-3.08,18.07-12.03,20.81-23.5h0c2.72,11.47,10.64,20.43,20.78,23.53Z"/>
            <path class="cls-5" d="M373.45,253.01h0c-10.14,3.08-18.07,12.03-20.81,23.5h0c-2.72-11.47-10.64-20.43-20.78-23.53h0c10.14-3.08,18.07-12.03,20.81-23.5h0c2.72,11.47,10.64,20.43,20.78,23.53Z"/>
          </g>
          <line class="cls-5" x1="337.11" y1="550.16" x2="109.93" y2="550.16"/>
          <line class="cls-5" x1="492.61" y1="550.16" x2="351.39" y2="550.16"/>
          <path class="cls-5" d="M423.39,383.8c-13.6-3.32-27.91,2.07-39.85,13.38-.41.39-.69.99-.73,1.6-.34,5.3,5.86,21.41,4.47,16.22-7.55-28.26,0,0,0,0,9.14-9.93,20.62-14.9,31.48-12.25,19.11,4.66,29.06,31.15,22.22,59.16-6.52,26.73-25.96,45.18-44.33,42.77-.72-.09-1.45.49-1.76,1.37-1.77,4.95-3.88,9.69-6.31,14.19-.63,1.16-.23,2.64.78,2.89h.02c26.25,6.4,55.13-19.6,64.52-58.08,9.39-38.48-4.28-74.86-30.52-81.27v.02Z"/>
        </g>
        <g class="cls-4">
          <text class="cls-3" transform="translate(229.27 634.41)"><tspan x="0" y="0">동동주</tspan></text>
        </g>
      </g>
    </g>
  </g>
</svg>