<?xml version="1.0" encoding="UTF-8"?>
<svg xmlns="http://www.w3.org/2000/svg" version="1.1" viewBox="0 0 595.28 841.89">
  <defs>
    <style>
      .cls-1 {
        fill: #323551;
        font-family: H2gtrE, HYGothic-Extra;
        font-size: 48px;
      }

      .cls-2, .cls-3 {
        fill: #fff;
      }

      .cls-4 {
        fill: #f6be59;
      }

      .cls-5 {
        fill: #edb95a;
      }

      .cls-6 {
        fill: none;
        stroke: #323551;
        stroke-linecap: round;
        stroke-linejoin: round;
        stroke-width: 8px;
      }

      .cls-3 {
        opacity: .3;
      }

      .cls-7 {
        fill: #689b52;
      }

      .cls-8 {
        fill: #f1ce79;
      }

      .cls-9 {
        fill: #b3c670;
      }

      .cls-10 {
        fill: #c7e7f3;
      }

      .cls-11 {
        fill: #f8d37a;
      }
    </style>
  </defs>
  <!-- Generator: Adobe Illustrator 28.7.1, SVG Export Plug-In . SVG Version: 1.2.0 Build 142)  -->
  <g>
    <g id="_레이어_1" data-name="레이어_1">
      <line class="cls-6" x1="-557.4" y1="278.09" x2="-616.03" y2="278.09"/>
      <g>
        <g>
          <path class="cls-4" d="M215.31,201.26c-1.65,0-2.98,1.41-2.98,3.14v4.2c0,1.73-1.34,3.14-2.98,3.14s-2.98,1.41-2.98,3.14v17.49c0,1.73,1.34,3.14,2.98,3.14s2.98,1.41,2.98,3.14v33.05c0,14.63-6.4,28.45-17.36,37.46h0c-10.96,9.01-17.36,22.83-17.36,37.46v191.8c0,7.11,5.48,12.87,12.23,12.87h41.47V201.26h-16Z"/>
          <path class="cls-11" d="M266.58,309.16h0c-10.96-9.01-17.36-22.83-17.36-37.46v-33.05c0-1.73,1.34-3.14,2.98-3.14s2.98-1.41,2.98-3.14v-17.49c0-1.73-1.34-3.14-2.98-3.14s-2.98-1.41-2.98-3.14v-4.2c0-1.73-1.34-3.14-2.98-3.14h-14.92v350.03h40.39c6.76,0,12.23-5.76,12.23-12.87v-191.8c0-14.63-6.4-28.45-17.36-37.46Z"/>
          <rect class="cls-7" x="177.61" y="356.55" width="53.71" height="131.88"/>
          <rect class="cls-9" x="231.32" y="356.55" width="52.62" height="131.88"/>
          <path class="cls-9" d="M252.2,211.74c-1.65,0-2.98-1.41-2.98-3.14v-4.2c0-1.73-1.34-3.14-2.98-3.14h-14.92v70.45h17.9v-33.05c0-1.73,1.34-3.14,2.98-3.14s2.98-1.41,2.98-3.14v-17.49c0-1.73-1.34-3.14-2.98-3.14Z"/>
          <path class="cls-7" d="M215.31,201.26c-1.65,0-2.98,1.41-2.98,3.14v4.2c0,1.73-1.34,3.14-2.98,3.14s-2.98,1.41-2.98,3.14v17.49c0,1.73,1.34,3.14,2.98,3.14s2.98,1.41,2.98,3.14v33.05h18.99v-70.45h-16Z"/>
          <path class="cls-6" d="M272,309.16h0c-10.96-9.01-17.36-22.83-17.36-37.46v-33.05c0-1.73,1.34-3.14,2.98-3.14h0c1.65,0,2.98-1.41,2.98-3.14v-17.49c0-1.73-1.34-3.14-2.98-3.14h0c-1.65,0-2.98-1.41-2.98-3.14v-4.2c0-1.73-1.34-3.14-2.98-3.14h-30.92c-1.65,0-2.98,1.41-2.98,3.14v4.2c0,1.73-1.34,3.14-2.98,3.14h0c-1.65,0-2.98,1.41-2.98,3.14v17.49c0,1.73,1.34,3.14,2.98,3.14h0c1.65,0,2.98,1.41,2.98,3.14v33.05c0,14.63-6.4,28.45-17.36,37.46h0c-10.96,9.01-17.36,22.83-17.36,37.46v191.8c0,7.11,5.48,12.87,12.23,12.87h81.86c6.76,0,12.23-5.76,12.23-12.87v-191.8c0-14.63-6.4-28.45-17.36-37.46Z"/>
          <rect class="cls-6" x="183.04" y="356.55" width="106.33" height="131.88"/>
          <path class="cls-6" d="M257.63,211.74c-1.65,0-2.98-1.41-2.98-3.14v-4.2c0-1.73-1.34-3.14-2.98-3.14h-30.92c-1.65,0-2.98,1.41-2.98,3.14v4.2c0,1.73-1.34,3.14-2.98,3.14s-2.98,1.41-2.98,3.14v17.49c0,1.73,1.34,3.14,2.98,3.14s2.98,1.41,2.98,3.14v33.05h36.89v-33.05c0-1.73,1.34-3.14,2.98-3.14s2.98-1.41,2.98-3.14v-17.49c0-1.73-1.34-3.14-2.98-3.14Z"/>
          <rect class="cls-3" x="243.25" y="324.77" width="25.32" height="204.39" rx="12.66" ry="12.66"/>
          <line class="cls-6" x1="451.32" y1="551.29" x2="106.3" y2="551.29"/>
          <line class="cls-6" x1="488.98" y1="551.29" x2="461.09" y2="551.29"/>
          <path class="cls-10" d="M369.25,551.29c3.35-1.12,6.82-1.59,10.36-1.68v-104.38h-33.07s-65.95,92.83,17.14,103.67c2.13.28,4.04,1.14,5.57,2.39Z"/>
          <path class="cls-2" d="M415.27,445.23h-35.67v104.38c4.62-.13,9.35.38,14.04.9,1.32-.82,2.84-1.39,4.49-1.6,83.09-10.84,17.14-103.67,17.14-103.67Z"/>
          <path class="cls-6" d="M421.16,445.23h-68.74s-65.95,92.83,17.14,103.67c1.44.19,2.78.64,3.97,1.3,8.14-1.47,16.81.05,25.23.84,1.48-1.11,3.27-1.88,5.26-2.14,83.09-10.84,17.14-103.67,17.14-103.67Z"/>
          <path class="cls-5" d="M334.14,507.46c.43,18.53,12.29,34.38,51.34,34.72v-34.72h-51.34Z"/>
          <path class="cls-8" d="M385.49,507.46v34.72c.43,0,.86,0,1.3,0,40.09,0,52.2-15.99,52.64-34.73h-53.94Z"/>
          <path class="cls-3" d="M409.77,500.52c-2.28,16.84-9.03,30.89-23.38,37.41,1.36.08,2.76.13,4.22.13,30.08,0,39.17-17.29,39.5-37.54h-20.34Z"/>
          <g>
            <path class="cls-2" d="M442.85,376.3h0c-18.7,5.02-33.31,19.61-38.36,38.3h0c-5.02-18.7-19.61-33.31-38.3-38.36h0c18.7-5.02,33.31-19.61,38.36-38.3h0c5.02,18.7,19.61,33.31,38.3,38.36Z"/>
            <path class="cls-6" d="M452.85,376.3h0c-18.7,5.02-33.31,19.61-38.36,38.3h0c-5.02-18.7-19.61-33.31-38.3-38.36h0c18.7-5.02,33.31-19.61,38.36-38.3h0c5.02,18.7,19.61,33.31,38.3,38.36Z"/>
          </g>
          <g>
            <path class="cls-2" d="M388.89,301.55h0c-14.55,3.91-25.92,15.26-29.84,29.8h0c-3.91-14.55-15.26-25.92-29.8-29.84h0,0c14.55-3.91,25.92-15.26,29.84-29.8h0s0,0,0,0c3.91,14.55,15.26,25.92,29.8,29.84Z"/>
            <path class="cls-6" d="M398.89,301.55h0c-14.55,3.91-25.92,15.26-29.84,29.8h0c-3.91-14.55-15.26-25.92-29.8-29.84h0,0c14.55-3.91,25.92-15.26,29.84-29.8h0s0,0,0,0c3.91,14.55,15.26,25.92,29.8,29.84Z"/>
          </g>
        </g>
        <text class="cls-1" transform="translate(225.64 641.88)"><tspan x="0" y="0">민속주</tspan></text>
      </g>
    </g>
  </g>
</svg>