<?xml version="1.0" encoding="UTF-8"?>
<svg xmlns="http://www.w3.org/2000/svg" version="1.1" viewBox="0 0 595.28 841.89">
  <defs>
    <style>
      .cls-1 {
        fill: #323551;
        font-family: H2gtrE, HYGothic-Extra;
        font-size: 48px;
      }

      .cls-2, .cls-3 {
        fill: #fff;
      }

      .cls-4 {
        fill: #f6be59;
      }

      .cls-5 {
        fill: none;
        stroke: #323551;
        stroke-linecap: round;
        stroke-linejoin: round;
        stroke-width: 8px;
      }

      .cls-6 {
        opacity: .8;
      }

      .cls-7 {
        fill: #cf4335;
      }

      .cls-3 {
        opacity: .3;
      }

      .cls-8 {
        fill: #fad398;
      }

      .cls-9 {
        fill: #c7e7f3;
      }

      .cls-10 {
        fill: #bd3027;
      }
    </style>
  </defs>
  <!-- Generator: Adobe Illustrator 28.7.1, SVG Export Plug-In . SVG Version: 1.2.0 Build 142)  -->
  <g>
    <g id="_레이어_1" data-name="레이어_1">
      <g>
        <g>
          <g>
            <g>
              <path class="cls-9" d="M365.6,324.14c0,6.18.92,12.11,2.62,17.63,3.99,12.97,2.65,27.19-3.13,39.27-4.4,9.19-6.79,19.79-6.51,31.04.77,31.2,22.34,56.72,49.41,59.56v64l-36.57,20.73h39.87v-232.13l-45.68-.1Z"/>
              <path class="cls-2" d="M418.07,535.64v-64c27.72-2.88,49.43-29.23,49.43-61.33,0-10.77-2.45-20.9-6.74-29.7-5.85-12-6.71-26.24-2.81-39.22,1.61-5.35,2.49-11.09,2.51-17.05l-49.17-.11v232.13h43.36l-36.57-20.73Z"/>
              <path class="cls-5" d="M423.5,471.64c27.72-2.88,49.43-29.23,49.43-61.33,0-10.77-2.45-20.9-6.74-29.7-5.85-12-6.71-26.24-2.81-39.22,1.61-5.35,2.49-11.09,2.51-17.05l-94.85-.21c0,6.18.92,12.11,2.62,17.63,3.99,12.97,2.65,27.19-3.13,39.27-4.4,9.19-6.79,19.79-6.51,31.04.77,31.2,22.34,56.72,49.41,59.56v64l-36.57,20.73h83.22l-36.57-20.73v-64Z"/>
              <path class="cls-10" d="M377.01,384.57c-3.8,7.94-5.87,17.11-5.63,26.84.69,27.97,20.72,50.65,45.33,51.67v-78.69l-39.7.18Z"/>
              <path class="cls-7" d="M459.72,384.2l-43.01.19v78.69c.36.01.71.04,1.08.05,26.32.41,47.77-23.58,47.77-53.25,0-9.31-2.11-18.07-5.83-25.68Z"/>
              <path class="cls-3" d="M423.91,349.27c10.51,13.54,17.09,32.92,17.09,54.44s-6.58,40.9-17.09,54.44c19.89-8.44,33.99-29.63,33.99-54.44s-14.11-46-33.99-54.44Z"/>
            </g>
            <g>
              <path class="cls-9" d="M207.44,299.19l-79.2-.35c0,14.84,21.06,28.78,26.27,40.88,7.62,17.69,5.07,39.87-5.91,54.29-1.72,2.26-3.37,4.62-4.94,7.06h63.78v-101.88Z"/>
              <path class="cls-10" d="M143.65,401.07c-12.73,19.75-20.39,45.18-20.39,72.94,0,32.25,10.61,61.56,27.48,82.36h56.69v-155.3h-63.78Z"/>
              <path class="cls-7" d="M207.44,401.07v155.3h64.23c16.75-20.73,27.18-49.96,27.18-82.36,0-27.76-7.66-53.19-20.39-72.94h-71.02Z"/>
              <path class="cls-2" d="M273.61,394.13c-11.14-14.66-13.39-36.94-5.75-54.98,4.98-11.78,7.85-25.29,7.93-39.65l-68.35-.3v101.88h71.02c-1.54-2.4-3.16-4.72-4.85-6.94Z"/>
              <path class="cls-2" d="M297.13,342.45c-13.17,0-25.03,10.26-33.29,26.62.9,7.29,3.15,14.31,6.69,20.4,5.98-14.94,15.67-24.65,26.61-24.65,13.56,0,25.21,14.93,30.24,36.25h10.26-10.26c1.71,7.25,2.67,15.25,2.67,23.64,0,32.26-14.01,58.55-31.57,59.84-.54,7.7-1.68,15.17-3.35,22.35.66.05,1.33.08,2,.08,24.97,0,45.21-36.83,45.21-82.27s-20.24-82.27-45.21-82.27Z"/>
              <path class="cls-5" d="M128.69,474.01c0,32.25,10.61,61.56,27.48,82.36h120.93c16.75-20.73,27.18-49.96,27.18-82.36s-9.63-59.33-25.24-79.88c-11.14-14.66-13.39-36.94-5.75-54.98,4.98-11.78,7.85-25.29,7.93-39.65l-147.55-.65c0,14.84,21.06,28.78,26.27,40.88,7.62,17.69,5.07,39.87-5.91,54.29-15.66,20.56-25.33,48.82-25.33,80Z"/>
              <path class="cls-5" d="M302.55,342.45c-13.17,0-25.03,10.26-33.29,26.62.9,7.29,3.15,14.31,6.69,20.4,5.98-14.94,15.67-24.65,26.61-24.65,18.18,0,32.91,26.81,32.91,59.89s-14.01,58.55-31.57,59.84c-.54,7.7-1.68,15.17-3.35,22.35.66.05,1.33.08,2,.08,24.97,0,45.21-36.83,45.21-82.27s-20.24-82.27-45.21-82.27Z"/>
              <g class="cls-6">
                <path class="cls-4" d="M219.97,496.56c8.06-17.06,6.9-36.88-1.52-52.19-4.14-7.54-10.04-13.98-17.47-18.46-7.43-4.48-15.44-6.44-23.28-6.14-15.94.61-31.15,10.55-39.2,27.61l5.38,3.25c6.99-14.81,20.2-23.44,34.03-23.97,6.81-.26,13.76,1.44,20.21,5.33,6.45,3.89,11.57,9.48,15.16,16.02,7.31,13.29,8.31,30.49,1.32,45.3"/>
                <path class="cls-8" d="M177.9,426.66c-13.83.53-27.03,9.16-34.03,23.97l35.36,21.34,35.36,21.35c6.99-14.81,5.99-32.01-1.32-45.3-3.6-6.54-8.72-12.13-15.16-16.02-6.45-3.89-13.4-5.59-20.21-5.33Z"/>
                <g>
                  <path class="cls-2" d="M179.85,434.9l.85,28.82c.06,2.16,2.17,3.43,3.79,2.29l21.65-15.24c1.31-.92,1.56-2.94.54-4.25-3.05-3.93-6.72-7.23-10.84-9.72-4.12-2.49-8.59-4.1-13.17-4.78-1.53-.23-2.87,1.13-2.82,2.87Z"/>
                  <path class="cls-2" d="M161.65,436.5c-3.72,2.57-6.99,5.91-9.62,9.84-.84,1.25-.47,3.05.75,3.79l20.55,12.41c1.54.93,3.39-.37,3.33-2.35l-.77-26.33c-.05-1.59-1.34-2.74-2.72-2.43-4.06.91-7.97,2.62-11.52,5.07Z"/>
                  <path class="cls-2" d="M189.45,472.26l20.55,12.41c1.24.75,2.77.05,3.22-1.46,1.4-4.64,2.04-9.55,1.86-14.46-.17-4.7-1.09-9.32-2.68-13.64-.54-1.47-2.11-2.05-3.3-1.21l-19.78,13.92c-1.48,1.04-1.41,3.51.13,4.44Z"/>
                </g>
                <path class="cls-5" d="M161.57,423.71c-9.54,4.46-17.83,12.55-23.08,23.67l5.38,3.25"/>
                <path class="cls-5" d="M219.97,496.56c8.06-17.06,6.9-36.88-1.52-52.19-4.14-7.54-10.04-13.98-17.47-18.46-7.43-4.48-15.44-6.44-23.28-6.14-3.77.14-7.5.81-11.1,1.97"/>
                <line class="cls-5" x1="187.63" y1="477.04" x2="214.59" y2="493.32"/>
                <line class="cls-5" x1="143.88" y1="450.62" x2="169.54" y2="466.12"/>
              </g>
              <g class="cls-6">
                <path class="cls-4" d="M207.44,530.05c12.03,13.75,29.11,18.37,44.54,13.82,7.59-2.24,14.78-6.71,20.77-13.4,5.99-6.69,10.02-14.77,12.08-23.32,4.21-17.39.31-36.76-11.71-50.52l-4.34,4.85c10.44,11.94,13.82,28.75,10.17,43.85-1.8,7.43-5.29,14.44-10.49,20.24-5.2,5.81-11.44,9.69-18.03,11.63-13.39,3.96-28.22-.05-38.66-11.99"/>
                <path class="cls-8" d="M278.95,505.32c3.65-15.09.27-31.91-10.17-43.85l-28.5,31.86-28.5,31.87c10.44,11.94,25.27,15.95,38.66,11.99,6.59-1.95,12.83-5.82,18.03-11.63,5.2-5.81,8.69-12.82,10.49-20.24Z"/>
                <g>
                  <path class="cls-2" d="M271.41,504.98l-24.6-7.62c-1.84-.57-3.54,1.33-3.06,3.42l6.46,27.9c.39,1.68,2.02,2.55,3.43,1.84,4.22-2.13,8.1-5.11,11.42-8.83,3.32-3.71,6.01-8.06,7.94-12.81.64-1.58-.11-3.44-1.59-3.9Z"/>
                  <path class="cls-2" d="M275.45,484.85c-1.07-4.78-2.93-9.3-5.46-13.31-.8-1.27-2.44-1.41-3.42-.31l-16.57,18.52c-1.24,1.39-.69,3.77.99,4.29l22.47,6.96c1.35.42,2.71-.64,2.86-2.22.43-4.65.14-9.38-.87-13.94Z"/>
                  <path class="cls-2" d="M237,504.29l-16.57,18.52c-1,1.12-.86,2.97.28,3.91,3.51,2.89,7.46,5.03,11.66,6.29,4.02,1.2,8.2,1.58,12.32,1.15,1.4-.15,2.35-1.67,2-3.2l-5.9-25.49c-.44-1.91-2.55-2.56-3.79-1.17Z"/>
                </g>
                <path class="cls-5" d="M286.28,488.55c-.94-11.63-5.32-22.97-13.16-31.93l-4.34,4.85"/>
                <path class="cls-5" d="M207.44,530.05c12.03,13.75,29.11,18.37,44.54,13.82,7.59-2.24,14.78-6.71,20.77-13.4,5.99-6.69,10.02-14.77,12.08-23.32.99-4.11,1.54-8.33,1.62-12.57"/>
                <line class="cls-5" x1="233.51" y1="500.91" x2="211.77" y2="525.2"/>
                <line class="cls-5" x1="268.78" y1="461.47" x2="248.09" y2="484.6"/>
              </g>
              <path class="cls-3" d="M236.63,374.49c16.15,20.81,26.26,50.58,26.26,83.66s-10.11,62.85-26.26,83.66c30.56-12.96,52.24-45.53,52.24-83.66s-21.68-70.7-52.24-83.66Z"/>
            </g>
          </g>
          <g class="cls-6">
            <path class="cls-4" d="M406.59,451.39l3.22-5.89c-1.09-.59-2.15-1.24-3.18-1.94-11.86-8.06-19.7-22.85-19.45-39.64l-6.1-.12c-.29,19.34,8.74,36.38,22.41,45.66,1,.68,2.04,1.32,3.09,1.91Z"/>
            <path class="cls-8" d="M409.81,445.51l22.3-40.72-4.85-.09-40.08-.76c-.25,16.79,7.59,31.58,19.45,39.64,1.03.7,2.09,1.34,3.18,1.94Z"/>
            <path class="cls-2" d="M404.55,436.8c1.07,1.03,2.7.74,3.42-.63l11.99-22.59c.9-1.69-.16-3.85-1.91-3.88l-23.29-.44c-1.41-.03-2.48,1.38-2.28,2.96.62,4.86,2.04,9.55,4.18,13.82,2.05,4.09,4.73,7.74,7.89,10.76Z"/>
            <path class="cls-5" d="M381.09,403.82c-.29,19.34,8.74,36.38,22.41,45.66"/>
            <line class="cls-5" x1="417.74" y1="404.51" x2="387.19" y2="403.93"/>
          </g>
          <g>
            <path class="cls-2" d="M328.06,285.81h0,0c-10.14,3.08-18.07,12.03-20.81,23.5h0c-2.72-11.47-10.64-20.43-20.78-23.53h0,0c10.14-3.08,18.07-12.03,20.81-23.5h0s0,0,0,0c2.72,11.47,10.64,20.43,20.78,23.53Z"/>
            <path class="cls-5" d="M333.48,285.81h0,0c-10.14,3.08-18.07,12.03-20.81,23.5h0c-2.72-11.47-10.64-20.43-20.78-23.53h0,0c10.14-3.08,18.07-12.03,20.81-23.5h0s0,0,0,0c2.72,11.47,10.64,20.43,20.78,23.53Z"/>
          </g>
          <g>
            <path class="cls-2" d="M286.43,235.11h0c-10.14,3.08-18.07,12.03-20.81,23.5h0c-2.72-11.47-10.64-20.43-20.78-23.53h0c10.14-3.08,18.07-12.03,20.81-23.5h0c2.72,11.47,10.64,20.43,20.78,23.53Z"/>
            <path class="cls-5" d="M291.85,235.11h0c-10.14,3.08-18.07,12.03-20.81,23.5h0c-2.72-11.47-10.64-20.43-20.78-23.53h0c10.14-3.08,18.07-12.03,20.81-23.5h0c2.72,11.47,10.64,20.43,20.78,23.53Z"/>
          </g>
          <line class="cls-5" x1="333.48" y1="556.37" x2="106.3" y2="556.37"/>
          <line class="cls-5" x1="488.98" y1="556.37" x2="347.76" y2="556.37"/>
        </g>
        <text class="cls-1" transform="translate(225.64 642.99)"><tspan x="0" y="0">과실주</tspan></text>
      </g>
    </g>
  </g>
</svg>