<?xml version="1.0" encoding="UTF-8"?>
<svg xmlns="http://www.w3.org/2000/svg" version="1.1" viewBox="0 0 595.28 841.89">
  <defs>
    <style>
      .cls-1 {
        fill: #92d3eb;
      }

      .cls-2 {
        fill: #e84222;
      }

      .cls-3 {
        fill: #323551;
        font-family: H2gtrE, HYGothic-Extra;
        font-size: 48px;
      }

      .cls-4 {
        fill: #ef8455;
      }

      .cls-5, .cls-6 {
        fill: #fff;
      }

      .cls-7 {
        fill: #f6be59;
      }

      .cls-8 {
        fill: none;
        stroke: #323551;
        stroke-linecap: round;
        stroke-linejoin: round;
        stroke-width: 8px;
      }

      .cls-6 {
        opacity: .3;
      }

      .cls-9 {
        fill: #fad398;
      }

      .cls-10 {
        fill: #c7e7f3;
      }

      .cls-11 {
        fill: #d5edf2;
      }
    </style>
  </defs>
  <!-- Generator: Adobe Illustrator 28.7.1, SVG Export Plug-In . SVG Version: 1.2.0 Build 142)  -->
  <g>
    <g id="_레이어_1" data-name="레이어_1">
      <g>
        <g>
          <line class="cls-8" x1="438.97" y1="551.59" x2="140.4" y2="551.59"/>
          <line class="cls-8" x1="456.99" y1="551.59" x2="446.69" y2="551.59"/>
          <path class="cls-7" d="M221.45,195.68c-7.74,0-14.02,4.44-14.02,9.91v38.53h35.02v-48.44h-21.01Z"/>
          <path class="cls-9" d="M276.03,205.59c0-5.47-6.28-9.91-14.02-9.91h-19.55v48.44h33.56v-38.53Z"/>
          <path class="cls-2" d="M211.51,244.12v43.06c0,22.78-13.24,44.55-36.61,60.23h0c-27.49,18.43-40.71,45.11-35.5,71.65l24.06,122.49c1.12,5.72,8.04,9.98,16.21,9.98h62.79V244.12h-30.96Z"/>
          <path class="cls-4" d="M308.57,347.4h0c-23.37-15.68-36.61-37.45-36.61-60.23v-43.06h-29.49v307.4h61.33c8.17,0,15.09-4.26,16.21-9.98l24.06-122.49c5.21-26.53-8.01-53.21-35.5-71.65Z"/>
          <path class="cls-7" d="M241.73,360.06c-28.86,0-52.25,30.54-52.25,68.21s23.39,68.21,52.25,68.21c.24,0,.49,0,.73-.01v-136.4c-.24,0-.49-.01-.73-.01Z"/>
          <path class="cls-9" d="M293.98,428.27c0-37.36-23-67.69-51.52-68.2v136.4c28.52-.51,51.52-30.85,51.52-68.2Z"/>
          <path class="cls-8" d="M233.44,195.68h31.84c10.14,0,18.37,8.23,18.37,18.37v30.07h-68.59v-30.07c0-10.14,8.23-18.37,18.37-18.37Z"/>
          <path class="cls-8" d="M279.59,287.18v-43.06h-60.45v43.06c0,22.78-13.24,44.55-36.61,60.23h0c-27.49,18.43-40.71,45.11-35.5,71.65l24.06,122.49c1.12,5.72,8.04,9.98,16.21,9.98h124.12c8.17,0,15.09-4.26,16.21-9.98l24.06-122.49c5.21-26.53-8.01-53.21-35.5-71.65h0c-23.37-15.68-36.61-37.45-36.61-60.23Z"/>
          <ellipse class="cls-8" cx="249.36" cy="428.27" rx="52.25" ry="68.21"/>
          <rect class="cls-6" x="263.12" y="350.35" width="41.07" height="177.41" rx="12.08" ry="12.08"/>
          <g>
            <path class="cls-5" d="M384.9,322.67h0c-8.39,2.71-14.95,10.58-17.22,20.66h0c-2.25-10.08-8.8-17.96-17.19-20.69h0c8.39-2.71,14.95-10.58,17.22-20.66h0c2.25,10.08,8.8,17.96,17.19,20.69Z"/>
            <path class="cls-8" d="M389.38,322.67h0c-8.39,2.71-14.95,10.58-17.22,20.66h0c-2.25-10.08-8.8-17.96-17.19-20.69h0c8.39-2.71,14.95-10.58,17.22-20.66h0c2.25,10.08,8.8,17.96,17.19,20.69Z"/>
          </g>
          <path class="cls-6" d="M413.76,551.52h0c-5.01,0-9.07-4.88-9.07-10.9v-69.32c0-6.02,4.06-10.9,9.07-10.9h0c5.01,0,9.07,4.88,9.07,10.9v69.32c0,6.02-4.06,10.9-9.07,10.9Z"/>
          <path class="cls-10" d="M369.94,468.99v71.59c0,5.73,3.89,10.38,8.68,10.38h23.03v-81.96h-31.71Z"/>
          <path class="cls-5" d="M401.65,468.99v81.96h24.23c4.79,0,8.68-4.65,8.68-10.38v-71.59h-32.91Z"/>
          <path class="cls-8" d="M373.47,468.99h64.62v57.38c0,13.57-11.01,24.58-24.58,24.58h-15.46c-13.57,0-24.58-11.01-24.58-24.58v-57.38h0Z"/>
          <path class="cls-1" d="M379.47,482.92v40.61c0,3.95,2.68,7.15,5.98,7.15h19.73v-47.75h-25.71Z"/>
          <path class="cls-11" d="M405.18,482.92v47.75h20.93c3.3,0,5.98-3.2,5.98-7.15v-40.61h-26.9Z"/>
        </g>
        <text class="cls-3" transform="translate(225.64 643.59)"><tspan x="0" y="0">고량주</tspan></text>
      </g>
    </g>
  </g>
</svg>