<?xml version="1.0" encoding="UTF-8"?>
<svg xmlns="http://www.w3.org/2000/svg" version="1.1" viewBox="0 0 595.28 841.89">
  <defs>
    <style>
      .cls-1 {
        stroke: #3d6b33;
      }

      .cls-1, .cls-2, .cls-3 {
        fill: none;
        stroke-linecap: round;
        stroke-linejoin: round;
      }

      .cls-1, .cls-3 {
        stroke-width: 5px;
      }

      .cls-4 {
        fill: #f0c935;
      }

      .cls-5 {
        font-family: H2gtrE, HYGothic-Extra;
        font-size: 48px;
      }

      .cls-5, .cls-6 {
        fill: #323551;
      }

      .cls-7, .cls-8 {
        fill: #fff;
      }

      .cls-9 {
        fill: #f6be59;
      }

      .cls-2 {
        stroke: #323551;
        stroke-width: 8px;
      }

      .cls-10 {
        fill: #8acfdc;
      }

      .cls-11 {
        opacity: .8;
      }

      .cls-8 {
        opacity: .3;
      }

      .cls-12 {
        fill: #fad398;
      }

      .cls-13 {
        fill: #689b52;
      }

      .cls-14 {
        fill: #728fa5;
      }

      .cls-15 {
        fill: #8da9c1;
      }

      .cls-16 {
        fill: #c7e7f3;
      }

      .cls-17 {
        fill: #5dc2cd;
      }

      .cls-3 {
        stroke: #b3c670;
      }
    </style>
  </defs>
  <!-- Generator: Adobe Illustrator 28.7.1, SVG Export Plug-In . SVG Version: 1.2.0 Build 142)  -->
  <g>
    <g id="_레이어_1" data-name="레이어_1">
      <g>
        <g>
          <g>
            <g>
              <path class="cls-14" d="M222.57,196.48c-3.4,0-6.16,2.75-6.16,6.15v38.32h26.18v-44.47h-20.02Z"/>
              <path class="cls-15" d="M267.98,202.63c0-3.4-2.76-6.15-6.16-6.15h-19.23v44.47h25.39v-38.32Z"/>
              <polygon class="cls-16" points="242.59 240.96 219.86 240.96 217.06 274.1 242.59 274.1 242.59 240.96"/>
              <path class="cls-17" d="M217.06,274.1l-2.6,30.8-19.17,2.52c-12.5,1.64-21.85,12.29-21.85,24.89l5.4,49.54v89.94l-5.4,69.75c0,6.14,4.98,11.11,11.12,11.11h58.02v-278.54h-25.53Z"/>
              <path class="cls-10" d="M310.95,332.31c0-12.6-9.35-23.24-21.85-24.89l-19.17-2.52-2.6-30.8h-24.74v278.54h57.23c6.14,0,11.12-4.97,11.12-11.11l-5.4-69.75v-89.94l5.4-49.54Z"/>
              <polygon class="cls-7" points="264.53 240.96 242.59 240.96 242.59 274.1 267.33 274.1 264.53 240.96"/>
              <rect class="cls-4" x="242.59" y="360.98" width="45.53" height="53.75"/>
              <rect class="cls-9" x="196.28" y="360.98" width="46.31" height="53.75"/>
              <path class="cls-2" d="M233.21,196.48h28.78c6.29,0,11.4,5.11,11.4,11.4v33.08h-51.57v-33.08c0-6.29,5.11-11.4,11.4-11.4Z"/>
              <path class="cls-2" d="M294.5,307.42l-19.17-2.52-5.4-63.94h-44.68l-5.4,63.94-19.17,2.52c-12.5,1.64-21.85,12.29-21.85,24.89l5.4,49.54v89.94l-5.4,69.75c0,6.14,4.98,11.11,11.12,11.11h115.26c6.14,0,11.12-4.97,11.12-11.11l-5.4-69.75v-89.94l5.4-49.54c0-12.6-9.35-23.24-21.85-24.89Z"/>
              <rect class="cls-2" x="201.68" y="360.98" width="91.84" height="53.75"/>
              <rect class="cls-8" x="253.44" y="327.67" width="29.08" height="201.13" rx="14.54" ry="14.54"/>
            </g>
            <g>
              <path class="cls-16" d="M334.82,345.33v198.63c0,4.8,3.89,8.68,8.69,8.68h31.33v-207.31h-40.02Z"/>
              <path class="cls-7" d="M374.84,345.33v207.31h34.48c4.8,0,8.69-3.89,8.69-8.68v-198.63h-43.17Z"/>
              <path class="cls-17" d="M350.49,360.98v161.04c0,3.75,3.04,6.78,6.79,6.78h22.97v-167.82h-29.76Z"/>
              <path class="cls-10" d="M380.25,360.98v167.82h26.12c3.75,0,6.79-3.04,6.79-6.78v-161.04h-32.91Z"/>
              <path class="cls-2" d="M340.22,345.33h83.2v191.22c0,8.88-7.21,16.09-16.09,16.09h-51.01c-8.88,0-16.09-7.21-16.09-16.09v-191.22h0Z"/>
            </g>
          </g>
          <g>
            <path class="cls-13" d="M197.09,506.41c-.17.92.3,2.15,1.22,2.32.12.02,12.1,1.87,28.17,8.54,13.84,5.74,32.29,17.72,49.76,34.77,1.17,1.14,3.04,1.1,4.15-.1h0c1.07-1.15,1.02-2.95-.11-4.04-7.53-7.23-16.01-13.84-25.25-19.68-8.53-5.39-17.73-10.15-27.34-14.13-16.38-6.79-27.82-9.83-28.31-9.92-.92-.17-2.11,1.31-2.28,2.23Z"/>
            <g>
              <path class="cls-13" d="M175.38,517.27c21.36-6.07,42.99-7.3,43.8-4.46.81,2.85-20.34,5.78-41.7,11.85-21.36,6.07-37.86,13.84-38.67,10.99-.81-2.85,15.21-12.32,36.57-18.39Z"/>
              <path class="cls-3" d="M219.19,512.81s-45.99,4.34-80.37,22.85"/>
              <path class="cls-1" d="M175.38,517.27c21.36-6.07,42.99-7.3,43.8-4.46.81,2.85-20.34,5.78-41.7,11.85-21.36,6.07-37.86,13.84-38.67,10.99-.81-2.85,15.21-12.32,36.57-18.39Z"/>
            </g>
            <g>
              <path class="cls-13" d="M162.81,495.32c18.38,9.18,38.03,13.63,39.38,10.94,1.35-2.69-17.5-8.75-35.88-17.93-18.38-9.18-31.93-19.32-33.27-16.63s11.4,14.43,29.77,23.62Z"/>
              <path class="cls-3" d="M202.19,506.26s-41.41-11.15-69.15-34.56"/>
              <path class="cls-1" d="M162.81,495.32c18.38,9.18,38.03,13.63,39.38,10.94,1.35-2.69-17.5-8.75-35.88-17.93-18.38-9.18-31.93-19.32-33.27-16.63s11.4,14.43,29.77,23.62Z"/>
            </g>
            <g>
              <path class="cls-13" d="M135.41,490.97c18.38,9.18,38.53,12.63,40.19,9.31,1.66-3.32-17.5-8.75-35.88-17.93-18.38-9.18-31.61-19.95-33.27-16.63-1.66,3.32,10.58,16.06,28.96,25.25Z"/>
              <path class="cls-3" d="M175.74,500s-41.41-11.15-69.15-34.56"/>
              <path class="cls-1" d="M136.36,489.06c18.38,9.18,38.03,13.63,39.38,10.94s-17.5-8.75-35.88-17.93c-18.38-9.18-31.93-19.32-33.27-16.63-1.35,2.69,11.4,14.43,29.77,23.62Z"/>
            </g>
            <g>
              <path class="cls-13" d="M218.3,494.16c11.36,17.1,26.19,30.73,28.7,29.07,2.51-1.66-10.82-16.28-22.18-33.39-11.36-17.1-18.06-32.63-20.57-30.97-2.51,1.66,2.69,18.19,14.06,35.29Z"/>
              <path class="cls-3" d="M244.77,523.51s-30.36-30.26-42.76-64.35"/>
              <path class="cls-1" d="M216.07,494.45c11.36,17.1,26.19,30.73,28.7,29.07,2.51-1.66-10.82-16.28-22.18-33.39-11.36-17.1-18.07-32.63-20.57-30.97-2.51,1.66,2.69,18.19,14.06,35.29Z"/>
            </g>
            <g>
              <path class="cls-13" d="M224.66,528.12c20.48,1.64,39.6,8,39.36,11-.24,3-19.5-1.57-39.99-3.21-20.48-1.64-37.33.02-37.09-2.98.24-3,17.23-6.46,37.71-4.81Z"/>
              <path class="cls-3" d="M263.74,536.9s-41.21-11.87-77.08-6.19"/>
              <path class="cls-1" d="M224.38,525.9c20.48,1.64,39.6,8,39.36,11-.24,3-19.5-1.57-39.99-3.21s-37.33.02-37.09-2.98c.24-3,17.23-6.46,37.71-4.81Z"/>
            </g>
            <g>
              <path class="cls-13" d="M159.78,496.7c22.15,1.61,42.78,9.46,42.49,13.41-.29,3.95-21.09-1.53-43.24-3.14-22.15-1.61-40.39,1.04-40.1-2.91.29-3.95,18.7-8.97,40.85-7.36Z"/>
              <path class="cls-3" d="M202.46,507.51s-44.69-11.67-83.34-6.05"/>
              <path class="cls-1" d="M159.78,496.7c22.15,1.61,42.9,7.86,42.68,10.81-.21,2.95-21.09-1.53-43.24-3.14-22.15-1.61-40.32.04-40.1-2.91.21-2.95,18.51-6.37,40.66-4.76Z"/>
            </g>
            <g>
              <path class="cls-13" d="M182.3,518.12c20.79-9.66,46.91-.82,48.27,2.83,1.59,3.46-23.64-3.24-44.42,6.45-21.01,9-31.36,29.33-32.83,25.55-1.5-3.39,7.96-25.84,28.99-34.82Z"/>
              <path class="cls-3" d="M228.67,516.39c.16.34-12.95-2.81-29.31.66-16.33,3.13-35.92,12.89-47.94,31.33"/>
              <path class="cls-1" d="M182.29,518.11c20.88-9.45,45.37-4.53,46.38-1.72,1.25,2.64-22.56-.64-43.43,8.83-21.04,8.94-32.71,26.06-33.82,23.16-1.17-2.59,9.83-21.34,30.88-30.27Z"/>
            </g>
            <g>
              <path class="cls-13" d="M192.27,488.86c-12.11-19.44-10.42-44.34-7.77-45.71,2.45-1.58,2.31,22.43,14.43,41.86,11.62,19.67,30.14,28.99,27.41,30.47-2.42,1.5-22.47-6.95-34.07-26.63Z"/>
              <path class="cls-3" d="M181.99,441.22c.32-.2-1.1,13.19,4.48,28.94,5.24,15.76,17.48,33.89,37.36,43.39"/>
              <path class="cls-1" d="M189.76,486.92c-12.11-19.44-10.42-44.34-7.77-45.71,2.45-1.58,2.31,22.43,14.43,41.86,11.62,19.67,30.14,28.99,27.41,30.47-2.42,1.5-22.47-6.95-34.07-26.63Z"/>
            </g>
            <g>
              <path class="cls-13" d="M226.62,501.43c-9.04-21.04-1.65-46.09,1.58-47.19,3.06-1.33-2.43,22.99,6.63,44.02,8.45,21.22,26.82,32.71,23.47,33.92-3,1.25-23.25-9.53-31.68-30.75Z"/>
              <path class="cls-3" d="M226.04,455.08c.35-.15-3.13,12.86-.07,29.29,2.73,16.38,12.01,36.19,30.17,48.65"/>
              <path class="cls-1" d="M226.61,501.44c-8.94-21.08-3.41-45.42-.57-46.36,2.67-1.18-1.2,22.52,7.76,43.59,8.42,21.23,25.27,33.31,22.34,34.35-2.62,1.1-21.12-10.35-29.53-31.58Z"/>
            </g>
          </g>
          <ellipse class="cls-6" cx="238.29" cy="494.06" rx="7.66" ry="7.65"/>
          <ellipse class="cls-6" cx="181.1" cy="471.26" rx="7.66" ry="7.65"/>
          <ellipse class="cls-6" cx="165.07" cy="487.01" rx="7.66" ry="7.65"/>
          <ellipse class="cls-6" cx="195.26" cy="537.9" rx="7.66" ry="7.65"/>
          <ellipse class="cls-6" cx="152.11" cy="465.44" rx="7.66" ry="7.65"/>
          <g class="cls-11">
            <path class="cls-4" d="M353.94,485.36c16.65,3.61,33.13-2.26,43.81-13.99,5.26-5.77,9.11-12.97,10.89-21.15,1.78-8.18,1.26-16.32-1.13-23.75-4.85-15.1-17.41-27.27-34.06-30.88l-1.29,5.93c14.45,3.13,25.35,13.69,29.56,26.8,2.07,6.45,2.52,13.52.98,20.62-1.54,7.1-4.89,13.35-9.45,18.36-9.27,10.18-23.58,15.28-38.03,12.15"/>
            <path class="cls-12" d="M401.73,428.31c-4.21-13.11-15.11-23.67-29.56-26.8l-8.47,38.96-8.47,38.97c14.45,3.13,28.75-1.96,38.03-12.15,4.56-5.01,7.91-11.26,9.45-18.36,1.54-7.1,1.09-14.17-.98-20.62Z"/>
            <g>
              <path class="cls-7" d="M395.28,432.15l-24.19,7.73c-1.81.58-2.32,2.9-.91,4.18l18.8,17.06c1.13,1.03,2.91.78,3.75-.5,2.5-3.86,4.3-8.17,5.29-12.71.99-4.54,1.14-9.21.47-13.75-.22-1.51-1.74-2.48-3.2-2.01Z"/>
              <path class="cls-7" d="M388.97,415.12c-3.19-2.95-6.91-5.26-10.95-6.85-1.28-.5-2.71.29-3,1.63l-4.92,22.65c-.37,1.7,1.24,3.15,2.89,2.63l22.1-7.07c1.33-.43,1.95-1.94,1.32-3.19-1.87-3.67-4.39-6.99-7.43-9.8Z"/>
              <path class="cls-7" d="M366.23,450.32l-4.92,22.65c-.3,1.37.71,2.66,2.11,2.73,4.32.23,8.64-.34,12.75-1.7,3.93-1.3,7.6-3.28,10.83-5.84,1.1-.87,1.16-2.51.13-3.45l-17.18-15.59c-1.29-1.17-3.35-.51-3.72,1.19Z"/>
            </g>
            <path class="cls-2" d="M399.79,411.97c-6.37-8.06-15.48-14.04-26.33-16.4l-1.29,5.93"/>
            <path class="cls-2" d="M353.94,485.36c16.65,3.61,33.13-2.26,43.81-13.99,5.26-5.77,9.11-12.97,10.89-21.15,1.78-8.18,1.26-16.32-1.13-23.75-1.15-3.57-2.72-6.98-4.69-10.15"/>
            <line class="cls-2" x1="361.69" y1="449.72" x2="355.23" y2="479.43"/>
            <line class="cls-2" x1="372.17" y1="401.5" x2="366.02" y2="429.79"/>
          </g>
          <path class="cls-8" d="M398.79,520.18h0c-6.03,0-10.92-4.88-10.92-10.9v-128.57c0-6.02,4.89-10.9,10.92-10.9h0c6.03,0,10.92,4.88,10.92,10.9v128.57c0,6.02-4.89,10.9-10.92,10.9Z"/>
          <line class="cls-2" x1="444.53" y1="552.64" x2="107.89" y2="552.64"/>
          <line class="cls-2" x1="488.98" y1="552.64" x2="459.12" y2="552.64"/>
        </g>
        <text class="cls-5" transform="translate(273.64 644.37)"><tspan x="0" y="0">진</tspan></text>
      </g>
    </g>
  </g>
</svg>