<?xml version="1.0" encoding="UTF-8"?>
<svg xmlns="http://www.w3.org/2000/svg" version="1.1" xmlns:xlink="http://www.w3.org/1999/xlink" viewBox="0 0 595.28 841.89">
  <defs>
    <style>
      .cls-1 {
        fill: url(#linear-gradient-2);
      }

      .cls-2 {
        fill: #323551;
        font-family: H2gtrE, HYGothic-Extra;
        font-size: 48px;
      }

      .cls-3, .cls-4 {
        fill: #fff;
      }

      .cls-5 {
        fill: url(#linear-gradient-4);
      }

      .cls-6 {
        stroke: #323551;
      }

      .cls-6, .cls-7, .cls-8 {
        fill: none;
        stroke-linecap: round;
        stroke-linejoin: round;
        stroke-width: 8px;
      }

      .cls-9 {
        fill: url(#linear-gradient-3);
      }

      .cls-7 {
        stroke: #3d6b33;
      }

      .cls-10 {
        fill: url(#linear-gradient-5);
      }

      .cls-11 {
        fill: #cf4335;
      }

      .cls-4 {
        opacity: .3;
      }

      .cls-12 {
        fill: #689b52;
      }

      .cls-8 {
        stroke: #b3c670;
      }

      .cls-13 {
        fill: #b3c670;
      }

      .cls-14 {
        fill: #c7e7f3;
      }

      .cls-15 {
        fill: #bd3027;
      }

      .cls-16 {
        fill: #73301e;
      }

      .cls-17 {
        fill: #3d6b33;
      }

      .cls-18 {
        fill: url(#linear-gradient);
      }

      .cls-19 {
        fill: #e4e3e3;
      }

      .cls-20 {
        fill: #813f29;
      }
    </style>
    <linearGradient id="linear-gradient" x1="660.59" y1="320.46" x2="707.63" y2="320.46" gradientTransform="translate(289.83 -222.73) rotate(122.93) scale(1 -1)" gradientUnits="userSpaceOnUse">
      <stop offset="0" stop-color="#689b52"/>
      <stop offset="1" stop-color="#b3c670"/>
    </linearGradient>
    <linearGradient id="linear-gradient-2" x1="167.59" y1="-639.56" x2="214.71" y2="-639.56" gradientTransform="translate(636.65 991.93) rotate(153.44) scale(1 -1)" xlink:href="#linear-gradient"/>
    <linearGradient id="linear-gradient-3" x1="1133.18" y1="509.62" x2="1180.96" y2="509.62" gradientTransform="translate(227 -728.79) rotate(114.88) scale(1 -1)" xlink:href="#linear-gradient"/>
    <linearGradient id="linear-gradient-4" x1="2849.4" y1="791.34" x2="2897.01" y2="791.34" gradientTransform="translate(-992.53 3221.28) rotate(-81.82)" xlink:href="#linear-gradient"/>
    <linearGradient id="linear-gradient-5" x1="3067.66" y1="662.96" x2="3115.59" y2="662.96" gradientTransform="translate(-1147.51 3340.79) rotate(-75.92)" xlink:href="#linear-gradient"/>
  </defs>
  <!-- Generator: Adobe Illustrator 28.7.1, SVG Export Plug-In . SVG Version: 1.2.0 Build 142)  -->
  <g>
    <g id="_레이어_1" data-name="레이어_1">
      <g>
        <g>
          <g>
            <g>
              <g>
                <path class="cls-12" d="M256.07,248.42v51.43c0,6.93-4.55,13.05-11.21,15.08l-41.86,12.76v209.35c0,9.49,7.74,17.19,17.29,17.19h55.75V248.42h-19.98Z"/>
                <path class="cls-13" d="M309.86,314.92c-6.66-2.03-11.21-8.15-11.21-15.08v-51.43h-22.6v305.81h58.38c9.55,0,17.29-7.7,17.29-17.19v-209.35l-41.86-12.76Z"/>
                <path class="cls-15" d="M257.65,198.31c-4.09,0-7.41,3.3-7.41,7.37v42.73h25.81v-50.1h-18.4Z"/>
                <path class="cls-11" d="M304.48,205.68c0-4.07-3.32-7.37-7.41-7.37h-21.02v50.1h28.43v-42.73Z"/>
                <path class="cls-3" d="M294.71,385.15v-26.77h-18.67v129.96h18.67v-26.77c14.63-6.58,24.82-21.21,24.82-38.21s-10.19-31.63-24.82-38.21Z"/>
                <path class="cls-19" d="M260,358.38v26.77c-14.63,6.58-24.82,21.21-24.82,38.21s10.19,31.63,24.82,38.21v26.77h16.05v-129.96h-16.05Z"/>
                <path class="cls-6" d="M304.07,299.84v-51.43h-42.58v51.43c0,6.93-4.55,13.05-11.21,15.08l-41.86,12.76v209.35c0,9.49,7.74,17.19,17.29,17.19h114.13c9.55,0,17.29-7.7,17.29-17.19v-209.35l-41.86-12.76c-6.66-2.03-11.21-8.15-11.21-15.08Z"/>
                <path class="cls-6" d="M269.33,198.31h26.91c7.54,0,13.67,6.12,13.67,13.67v36.44h-54.24v-36.44c0-7.54,6.12-13.67,13.67-13.67Z"/>
                <path class="cls-6" d="M324.96,423.36c0-17-10.19-31.63-24.82-38.21v-26.77h-34.71v26.77c-14.63,6.58-24.82,21.21-24.82,38.21s10.19,31.63,24.82,38.21v26.77h34.71v-26.77c14.63-6.58,24.82-21.21,24.82-38.21Z"/>
                <path class="cls-4" d="M307.37,530.4h0c-8.07,0-14.6-6.5-14.6-14.52v-165.11c0-8.02,6.54-14.52,14.6-14.52h0c8.07,0,14.6,6.5,14.6,14.52v165.11c0,8.02-6.54,14.52-14.6,14.52Z"/>
              </g>
              <g>
                <rect class="cls-14" x="382.32" y="429.56" width="28.13" height="124.67"/>
                <rect class="cls-3" x="410.46" y="429.56" width="32.08" height="124.67"/>
                <rect class="cls-6" x="387.75" y="429.56" width="60.21" height="124.67"/>
                <path class="cls-16" d="M397.08,443.05v56.48c0,10.75,8.26,19.57,18.81,20.56v-77.04h-18.81Z"/>
                <path class="cls-20" d="M415.88,443.05v77.04c.65.06,1.31.1,1.97.1h0c11.47,0,20.78-9.25,20.78-20.65v-56.48h-22.75Z"/>
              </g>
            </g>
            <g>
              <g>
                <path class="cls-18" d="M154.39,532.36c2.61-2.15,7-4.45,11.48-7.46,4.66-2.84,9.4-6.39,16.77-7.09,6.71-1.34,16.05.16,23.1.82,7.21.82,12.14.81,13.84.15-3.6,2.94-9.77,3.37-15.97,3.78-6.27.34-12.56.67-18.01,1.81-5.51,1.08-10.18,2.97-14.82,4.9-4.71,1.86-9.38,3.75-16.53,3.25.04-.05.09-.1.13-.16Z"/>
                <path class="cls-12" d="M154.25,532.51c7.14.51,11.82-1.39,16.53-3.25,4.64-1.93,9.3-3.83,14.82-4.9,5.44-1.14,11.74-1.47,18.01-1.81,6.2-.41,12.38-.85,15.97-3.78.81-.2,1.19-.37,1.2-.37-2.44,8.51-27.35,7.88-41.06,13.45-7.6,2.06-12.91,5.19-18.19,5.02-4.88.21-9.73-2.87-7.28-4.36Z"/>
                <path class="cls-8" d="M161.8,532.08s3.5-.62,7.91-2.47c4.56-1.7,10.07-4.6,17.81-5.54,7.12-1.54,16.48-1.12,22.72-2.01,6.48-.67,9.86-2.65,10.54-3.65"/>
                <path class="cls-7" d="M220.77,518.41c-.98,4.52-8.23,6.17-16.49,7.82-8.35,1.57-17.72,3.15-24.82,5.73-7.61,2.08-12.95,5.16-18.21,4.92-4.85.15-9.62-3.03-6.86-4.52,3.26-2.01,7.69-5.2,12.9-8.46,5.3-3.17,11.39-6.42,20.12-6.45,7.91-.83,18.46,1.56,24.56,1.75,6.5.58,8.55-1.04,8.81-.78"/>
              </g>
              <g>
                <path class="cls-1" d="M148.36,494.75c10.56-12.44,54.76,15.97,63.2,21.57l-63.36-21.37c.05-.07.1-.13.16-.2Z"/>
                <path class="cls-12" d="M148.2,494.95l63.36,21.37c.9.6,1.4.94,1.4.94-16.94-2.58-73.3-11.33-64.76-22.31Z"/>
                <path class="cls-8" d="M154.55,497.03s52.76,17.66,58.4,20.22"/>
                <path class="cls-7" d="M212.95,517.25c-17.04-2.6-73.99-11.44-64.6-22.5,11.69-13.77,64.6,22.5,64.6,22.5"/>
              </g>
              <path class="cls-17" d="M360.85,552.68c.11-.21.18-.44.21-.68.11-1.05-1.04-2.94-2.1-3.05-64.73-6.79-145.7-35.07-146.51-35.37-1-.36-2.1.15-2.46,1.14-.36.99.15,2.09,1.15,2.45.82.3,82.6,29.69,147.81,36.53.81.08,1.55-.34,1.9-1.01Z"/>
              <g>
                <path class="cls-9" d="M174.95,548.73c-4.26-8.57,8.22-21.03,22.79-25.21,14.56-5.1,31.2-1.92,35.24-.33-22.34.32-43.24,9.81-57.91,25.81-.04-.09-.08-.18-.12-.27Z"/>
                <path class="cls-13" d="M175.06,549c14.67-16,35.57-25.49,57.91-25.81,1.01.3,1.55.49,1.55.49-9.26.94-25.71,8.02-36.94,16.23-11.86,7.7-18.49,16.52-22.53,9.09Z"/>
                <path class="cls-8" d="M179.61,544.35c-.19.25,9.93-9.81,23.19-14.82,12.88-5.8,28.91-6.56,31.73-5.85"/>
                <path class="cls-7" d="M234.53,523.67c-9.34.94-25.89,8.12-37.15,16.38-11.89,7.74-18.48,16.55-22.44,8.68-4.97-9.78,11.28-23.34,27.53-26.45,16.42-4.4,32.84,1.65,32.05,1.39"/>
              </g>
              <g>
                <path class="cls-5" d="M183.92,463.89c-8.28,4.87-4.65,22.08,5.26,33.48,9.41,12.17,25.1,18.53,29.35,19.39-18.55-12.38-30.85-31.68-34.37-53.04-.08.05-.16.11-.25.17Z"/>
                <path class="cls-12" d="M184.16,463.73c3.51,21.37,15.82,40.66,34.37,53.04,1.01.3,1.57.43,1.57.43-7.24-5.81-17.14-20.67-22.05-33.64-5.71-12.88-6.42-23.87-13.89-19.84Z"/>
                <path class="cls-8" d="M185.43,470.09c-.02-.31,2.94,13.6,11.3,25,7.61,11.85,20.63,21.18,23.38,22.11"/>
                <path class="cls-7" d="M220.1,517.2c-7.31-5.85-17.24-20.84-22.14-33.87-5.72-12.93-6.41-23.89-14.04-19.44-9.54,5.5-3.36,25.67,8.56,37.1,11.35,12.59,28.43,16.43,27.62,16.21"/>
              </g>
              <g>
                <path class="cls-10" d="M235.79,475.72c-9.18,4.04-12.52,23.25-3.25,35.74,8.2,13.35,27,19.72,31.92,20.61-23.13-11.47-34.12-32.9-28.39-56.49-.09.05-.18.09-.27.14Z"/>
                <path class="cls-13" d="M236.07,475.58c-5.73,23.59,5.27,45.02,28.39,56.49,1.18.3,1.84.44,1.84.44-9.48-5.12-21.11-19.94-23.23-34.11-3.3-14.02,1.05-26.15-7-22.82Z"/>
                <path class="cls-8" d="M234.97,482.32c.04-.36-2.21,15.1,5.47,27.39,6.47,12.82,22.67,21.72,26,22.54"/>
                <path class="cls-7" d="M266.44,532.25c-9.57-5.15-21.21-20.13-23.28-34.37-3.25-14.08,1.14-26.18-7.23-22.43-10.7,4.56-12.47,27.31-.19,39.69,11,13.62,31.81,17.27,30.7,17.11"/>
              </g>
            </g>
          </g>
          <line class="cls-6" x1="456.57" y1="554.23" x2="106.3" y2="554.23"/>
          <line class="cls-6" x1="488.98" y1="554.23" x2="471.4" y2="554.23"/>
          <path class="cls-4" d="M426.49,540.48h0c-4.18,0-7.56-3.37-7.56-7.52v-88.65c0-4.15,3.39-7.52,7.56-7.52h0c4.18,0,7.56,3.37,7.56,7.52v88.65c0,4.15-3.39,7.52-7.56,7.52Z"/>
        </g>
        <text class="cls-2" transform="translate(249.64 641.42)"><tspan x="0" y="0">양주</tspan></text>
      </g>
    </g>
  </g>
</svg>