<?xml version="1.0" encoding="UTF-8"?>
<svg xmlns="http://www.w3.org/2000/svg" version="1.1" xmlns:xlink="http://www.w3.org/1999/xlink" viewBox="0 0 595.28 841.89">
  <defs>
    <style>
      .cls-1 {
        fill: #f0c935;
      }

      .cls-2 {
        fill: #7c84b9;
      }

      .cls-3 {
        fill: #323551;
        font-family: H2gtrE, HYGothic-Extra;
        font-size: 48px;
      }

      .cls-4, .cls-5 {
        fill: #fff;
      }

      .cls-6 {
        fill: url(#radial-gradient);
      }

      .cls-7 {
        fill: none;
        stroke: #323551;
        stroke-linecap: round;
        stroke-linejoin: round;
        stroke-width: 8px;
      }

      .cls-5 {
        opacity: .3;
      }

      .cls-8 {
        fill: #6c79b7;
      }

      .cls-9 {
        fill: url(#radial-gradient-2);
      }

      .cls-10 {
        fill: #8da9c1;
      }

      .cls-11 {
        fill: #c7e7f3;
      }

      .cls-12 {
        fill: #bcd2e1;
      }
    </style>
    <radialGradient id="radial-gradient" cx="82.84" cy="524.72" fx="82.84" fy="524.72" r="109.37" gradientTransform="translate(136.98 236.18) scale(.54 .5)" gradientUnits="userSpaceOnUse">
      <stop offset="0" stop-color="#b295c0"/>
      <stop offset="1" stop-color="#7c84b9"/>
    </radialGradient>
    <radialGradient id="radial-gradient-2" cx="76.02" cy="536.82" fx="76.02" fy="536.82" r="109.32" xlink:href="#radial-gradient"/>
  </defs>
  <!-- Generator: Adobe Illustrator 28.7.1, SVG Export Plug-In . SVG Version: 1.2.0 Build 142)  -->
  <g>
    <g id="_레이어_1" data-name="레이어_1">
      <g>
        <g>
          <line class="cls-7" x1="451.32" y1="553.23" x2="106.3" y2="553.23"/>
          <line class="cls-7" x1="488.98" y1="553.23" x2="463.62" y2="553.23"/>
          <g>
            <g>
              <path class="cls-1" d="M250.24,196.82c-5.67,0-10.27,4.58-10.27,10.22v44.24h25.5v-54.47h-15.23Z"/>
              <path class="cls-4" d="M293.67,207.04c0-5.65-4.6-10.22-10.27-10.22h-17.94v54.47h28.21v-44.24Z"/>
              <path class="cls-12" d="M320.11,366.66l-1.36-.59c-19.24-8.32-29.78-29.1-25.08-49.45h0s-10.85-65.34-10.85-65.34h-17.36v301.95h62.64c5.34,0,9.76-4.14,10.07-9.45l8.04-134.82c1.08-18.16-9.35-35.06-26.11-42.31Z"/>
              <path class="cls-10" d="M250.82,251.28l-10.85,65.34h0c4.7,20.34-5.85,41.13-25.08,49.45l-1.36.59c-16.76,7.25-27.19,24.15-26.11,42.31l8.04,134.82c.32,5.31,4.73,9.45,10.07,9.45h59.93V251.28h-14.65Z"/>
              <path class="cls-1" d="M223.66,441.93h-17.87v27.54h17.87c5.72,17.77,22.2,30.74,41.8,31.31v-90.17c-19.61.57-36.09,13.54-41.8,31.31Z"/>
              <path class="cls-4" d="M309.98,441.93c-5.85-18.18-22.96-31.34-43.16-31.34-.45,0-.91.01-1.36.03v90.17c.45.01.9.03,1.36.03,20.2,0,37.31-13.16,43.16-31.34h17.87v-27.54h-17.87Z"/>
              <path class="cls-7" d="M264.33,196.82h15.84c10.45,0,18.93,8.48,18.93,18.93v35.53h-53.71v-35.53c0-10.45,8.48-18.93,18.93-18.93Z"/>
              <path class="cls-7" d="M325.54,366.66l-1.36-.59c-19.24-8.32-29.78-29.1-25.08-49.45h0s-10.85-65.34-10.85-65.34h-32.01l-10.85,65.34h0c4.7,20.34-5.85,41.13-25.08,49.45l-1.36.59c-16.76,7.25-27.19,24.15-26.11,42.31l8.04,134.82c.32,5.31,4.73,9.45,10.07,9.45h122.57c5.34,0,9.76-4.14,10.07-9.45l8.04-134.82c1.08-18.16-9.35-35.06-26.11-42.31Z"/>
              <path class="cls-7" d="M333.27,441.93h-17.87c-5.85-18.18-22.96-31.34-43.16-31.34s-37.31,13.16-43.16,31.34h-17.87v27.54h17.87c5.85,18.18,22.96,31.34,43.16,31.34s37.31-13.16,43.16-31.34h17.87v-27.54Z"/>
              <path class="cls-5" d="M296.66,539.64h0c-8.07,0-14.6-6.51-14.6-14.54v-145.17c0-8.03,6.54-14.54,14.6-14.54h0c8.07,0,14.6,6.51,14.6,14.54v145.17c0,8.03-6.54,14.54-14.6,14.54Z"/>
              <g>
                <path class="cls-4" d="M454.38,339.93c.11-.16.18-.33.18-.49h0c0-.23-.12-.45-.33-.67h-39.99v214.47h28.07l-24.68-18.44h0c.08-24.18.46-46.54.46-46.54,0,0,36.47-6.57,36.47-37.95s-10.03-51.21-10.03-68.51c0-13.61,8.51-38.08,9.85-41.85Z"/>
                <path class="cls-11" d="M373.5,338.76c-.21.22-.33.44-.33.67,0,.17.07.33.18.49,1.34,3.77,9.85,28.23,9.85,41.85,0,17.31-10.03,36.14-10.03,68.51s36.47,37.95,36.47,37.95c0,0,.37,22.35.46,46.54h-.07l-24.68,18.44h28.89v-214.47h-40.74Z"/>
                <path class="cls-8" d="M385.37,420.54c-1.77,8.01-3.38,17.33-3.38,28.82,0,24.59,28.57,29.73,28.57,29.73h3.68v-58.56h-28.87Z"/>
                <path class="cls-2" d="M442.36,420.54h-28.13v58.56h2.93s28.57-5.15,28.57-29.73c0-11.5-1.62-20.81-3.38-28.82Z"/>
                <path class="cls-7" d="M454.38,339.93c.11-.16.18-.33.18-.49h0c0-.23-.12-.45-.33-.67h-80.73c-.21.22-.33.44-.33.67,0,.17.07.33.18.49,1.34,3.77,9.85,28.23,9.85,41.85,0,17.31-10.03,36.14-10.03,68.51s36.47,37.95,36.47,37.95c0,0,.37,22.35.46,46.54h-.07l-24.68,18.44h56.96l-24.68-18.44h0c.08-24.18.46-46.54.46-46.54,0,0,36.47-6.57,36.47-37.95s-10.03-51.21-10.03-68.51c0-13.61,8.51-38.08,9.85-41.85Z"/>
                <path class="cls-5" d="M413.86,469.08s35.27-6.12,17.24-75.78h-17.24v75.78Z"/>
              </g>
            </g>
            <g>
              <ellipse class="cls-6" cx="181.92" cy="519.33" rx="41.2" ry="33.9"/>
              <path class="cls-9" d="M200.97,525.46c-14.36-1.56-30.75-8-36.44-16.25-6.57,8.14,3.63,11.16-.51,16.78-13.13,17.84,6.99,28.16,23.4,26.94,19.95-1.48,32.59-12.04,35.19-27.49-6.29.86-13.53.9-21.65.01Z"/>
              <ellipse class="cls-7" cx="187.34" cy="519.33" rx="41.2" ry="33.9"/>
              <path class="cls-7" d="M169.96,509.2c-6.57,8.14,3.63,11.16-.51,16.78-13.13,17.84,6.99,28.16,23.4,26.94"/>
              <path class="cls-5" d="M155.38,510.23s-5.49,5.73-1.61,12.14c3.89,6.4,11.92-5.2,10.99-12.14-.94-6.93-7.64-2.53-9.38,0Z"/>
              <path class="cls-5" d="M211.64,497.82s-17.15-12.54-21.84-4.67c-4.69,7.87,26.79,23.6,28.54,19.07,1.74-4.53-3.11-12.05-6.7-14.4Z"/>
            </g>
            <g>
              <path class="cls-4" d="M357.69,319.13h0c-10.14,2.71-18.07,10.59-20.81,20.68h0c-2.72-10.1-10.64-17.99-20.78-20.72h0c10.14-2.71,18.07-10.59,20.81-20.68h0c2.72,10.1,10.64,17.99,20.78,20.72Z"/>
              <path class="cls-7" d="M363.12,319.13h0c-10.14,2.71-18.07,10.59-20.81,20.68h0c-2.72-10.1-10.64-17.99-20.78-20.72h0c10.14-2.71,18.07-10.59,20.81-20.68h0c2.72,10.1,10.64,17.99,20.78,20.72Z"/>
            </g>
          </g>
        </g>
        <text class="cls-3" transform="translate(225.64 641.39)"><tspan x="0" y="0">리큐르</tspan></text>
      </g>
    </g>
  </g>
</svg>