<?xml version="1.0" encoding="UTF-8"?>
<svg xmlns="http://www.w3.org/2000/svg" version="1.1" viewBox="0 0 595.28 841.89">
  <defs>
    <style>
      .cls-1 {
        fill: #de5d56;
      }

      .cls-2 {
        fill: #323551;
        font-family: H2gtrE, HYGothic-Extra;
        font-size: 48px;
      }

      .cls-3, .cls-4 {
        fill: #fff;
      }

      .cls-5 {
        fill: #a2d7da;
      }

      .cls-6 {
        stroke: #323551;
      }

      .cls-6, .cls-7, .cls-8 {
        fill: none;
        stroke-linecap: round;
        stroke-linejoin: round;
        stroke-width: 8px;
      }

      .cls-9 {
        fill: #cf4335;
      }

      .cls-10 {
        fill: #fce3c7;
      }

      .cls-4 {
        opacity: .3;
      }

      .cls-7 {
        stroke: #fff;
      }

      .cls-11 {
        fill: #def1f9;
      }

      .cls-12 {
        fill: #f5cbb0;
      }

      .cls-13 {
        fill: #c7e7f3;
      }

      .cls-14 {
        fill: #fae0c5;
      }

      .cls-15 {
        fill: #f9ceb2;
      }

      .cls-8 {
        stroke: #efa93f;
      }
    </style>
  </defs>
  <!-- Generator: Adobe Illustrator 28.7.1, SVG Export Plug-In . SVG Version: 1.2.0 Build 142)  -->
  <g>
    <g id="_레이어_1" data-name="레이어_1">
      <path class="cls-1" d="M214.63,199.01c-3.05,0-5.51,2.86-5.51,6.4v37.36c0,3.53,2.47,6.4,5.51,6.4h18.36v-50.15h-18.36Z"/>
      <path class="cls-9" d="M256.6,199.01h-23.61v50.15h23.61c3.05,0,5.51-2.86,5.51-6.4v-37.36c0-3.53-2.47-6.4-5.51-6.4Z"/>
      <path class="cls-3" d="M256.82,290.43c.09-13.76-.02-27.52-.32-41.27h-23.52v42.02h23.84c0-.25,0-.49,0-.74Z"/>
      <path class="cls-10" d="M288.57,349.7c-5.5-5.86-11.01-13.13-16.51-19.01-9.55-10.22-15.16-24.47-15.24-39.52h-23.84v262.05h55.9c4.28,0,7.94-3.6,8.64-8.5,8.8-61.41,11.21-104.36,5.89-161.3-1.21-12.97-6.55-24.9-14.84-33.72Z"/>
      <path class="cls-15" d="M214.41,291.18c-.08,15.05-5.68,29.3-15.24,39.52-5.5,5.88-11.01,13.15-16.51,19.01-8.29,8.82-13.63,20.75-14.84,33.72-5.32,56.94-2.91,99.9,5.89,161.3.7,4.9,4.36,8.5,8.64,8.5h50.64v-262.05h-18.58Z"/>
      <path class="cls-13" d="M232.99,249.16h-18.26c-.3,13.76-.41,27.52-.32,41.27,0,.25,0,.5,0,.74h18.58v-42.02Z"/>
      <path class="cls-5" d="M199.6,389.31c-6.63,0-12.01,6.24-12.01,13.93v80.83c0,7.69,5.38,13.93,12.01,13.93h33.39v-108.69h-33.39Z"/>
      <path class="cls-11" d="M271.63,389.31h-38.65v108.69h38.65c6.63,0,12.01-6.24,12.01-13.93v-80.83c0-7.69-5.38-13.93-12.01-13.93Z"/>
      <rect class="cls-6" x="213.82" y="199.01" width="53" height="50.15" rx="11.71" ry="11.71"/>
      <path class="cls-6" d="M308.12,383.43c-1.21-12.97-6.55-24.9-14.84-33.72-5.5-5.86-11.01-13.13-16.51-19.01-9.71-10.38-15.34-24.94-15.24-40.26.09-13.76-.02-27.52-.32-41.27h-41.78c-.3,13.76-.41,27.52-.32,41.27.1,15.32-5.53,29.88-15.24,40.26-5.5,5.88-11.01,13.15-16.51,19.01-8.29,8.82-13.63,20.75-14.84,33.72-5.32,56.94-2.91,99.9,5.89,161.3.7,4.9,4.36,8.5,8.64,8.5h106.54c4.28,0,7.94-3.6,8.64-8.5,8.8-61.41,11.21-104.36,5.89-161.3Z"/>
      <rect class="cls-7" x="192.3" y="389.31" width="96.05" height="108.69" rx="25.5" ry="25.5"/>
      <rect class="cls-4" x="249.71" y="349.44" width="25.35" height="176.23" rx="12.67" ry="12.67"/>
      <g>
        <path class="cls-3" d="M442.77,420.96h0c-10.14,2.74-18.07,10.71-20.81,20.92h0c-2.72-10.21-10.64-18.2-20.78-20.95h0c10.14-2.74,18.07-10.71,20.81-20.92h0c2.72,10.21,10.64,18.2,20.78,20.95Z"/>
        <path class="cls-6" d="M448.2,420.96h0c-10.14,2.74-18.07,10.71-20.81,20.92h0c-2.72-10.21-10.64-18.2-20.78-20.95h0c10.14-2.74,18.07-10.71,20.81-20.92h0c2.72,10.21,10.64,18.2,20.78,20.95Z"/>
      </g>
      <line class="cls-6" x1="137.88" y1="553.23" x2="106.3" y2="553.23"/>
      <line class="cls-6" x1="488.98" y1="553.23" x2="155.78" y2="553.23"/>
      <path class="cls-13" d="M351.39,470.51c-4.92,9.66-7.73,20.78-7.73,32.62,0,17.21,5.92,32.91,15.67,44.8,2.71,3.31,7.27,5.3,12.15,5.3h32.29v-82.72h-52.38Z"/>
      <path class="cls-3" d="M458.94,470.51h-55.17v82.72h35.08c4.88,0,9.44-1.99,12.15-5.3,9.74-11.89,15.67-27.59,15.67-44.8,0-11.84-2.81-22.96-7.73-32.62Z"/>
      <path class="cls-6" d="M356.25,470.51c-4.92,9.66-7.73,20.78-7.73,32.62,0,17.21,5.92,32.91,15.67,44.8,2.71,3.31,7.27,5.3,12.15,5.3h67.37c4.88,0,9.44-1.99,12.15-5.3,9.74-11.89,15.67-27.59,15.67-44.8,0-11.84-2.81-22.96-7.73-32.62h-107.55Z"/>
      <path class="cls-12" d="M356.89,497.99c1.63,12.26,4.97,23.6,9.67,33.26,2.14,4.39,5.91,7.05,10.03,7.05h27.17v-40.31h-46.87Z"/>
      <path class="cls-14" d="M403.76,497.99v40.31h35.71c4.96,0,9.48-2.66,12.06-7.05,5.66-9.66,9.67-21,11.63-33.26h-59.4Z"/>
      <g>
        <line class="cls-8" x1="385.21" y1="338.1" x2="385.21" y2="381.07"/>
        <line class="cls-8" x1="385.21" y1="259.15" x2="385.21" y2="302.11"/>
        <line class="cls-8" x1="367.22" y1="320.11" x2="324.25" y2="320.11"/>
        <line class="cls-8" x1="424.69" y1="320.11" x2="403.21" y2="320.11"/>
        <line class="cls-8" x1="446.17" y1="320.11" x2="436.85" y2="320.11"/>
        <line class="cls-8" x1="350.15" y1="355.17" x2="342.11" y2="363.21"/>
        <line class="cls-8" x1="372.49" y1="332.83" x2="357.3" y2="348.02"/>
        <line class="cls-8" x1="428.32" y1="277" x2="397.94" y2="307.38"/>
        <line class="cls-8" x1="351.03" y1="285.93" x2="342.11" y2="277"/>
        <line class="cls-8" x1="372.49" y1="307.38" x2="358.4" y2="293.29"/>
        <line class="cls-8" x1="428.32" y1="363.21" x2="397.94" y2="332.83"/>
      </g>
      <text class="cls-2" transform="translate(225.64 640.77)"><tspan x="0" y="0">막걸리</tspan></text>
    </g>
  </g>
</svg>