<?xml version="1.0" encoding="UTF-8"?>
<svg xmlns="http://www.w3.org/2000/svg" version="1.1" viewBox="0 0 595.28 841.89">
  <defs>
    <style>
      .cls-1 {
        fill: #323551;
        font-family: H2gtrE, HYGothic-Extra;
        font-size: 48px;
      }

      .cls-2 {
        fill: #f9eca7;
      }

      .cls-3 {
        fill: none;
        stroke: #323551;
        stroke-linecap: round;
        stroke-linejoin: round;
        stroke-width: 8px;
      }

      .cls-4 {
        fill: #fff;
        opacity: .3;
      }

      .cls-5 {
        fill: #689b52;
      }

      .cls-6 {
        fill: #f9d893;
      }

      .cls-7 {
        fill: #b3c670;
      }
    </style>
  </defs>
  <!-- Generator: Adobe Illustrator 28.7.1, SVG Export Plug-In . SVG Version: 1.2.0 Build 142)  -->
  <g>
    <g id="_레이어_1" data-name="레이어_1">
      <g>
        <g>
          <g>
            <path class="cls-5" d="M271.11,199.83c-2.59,0-4.69,2.1-4.69,4.69v32.77c0,2.59,2.1,4.69,4.69,4.69h23.06v-42.16h-23.06Z"/>
            <path class="cls-7" d="M318.74,199.83h-24.58v42.16h24.58c2.59,0,4.69-2.1,4.69-4.69v-32.77c0-2.59-2.1-4.69-4.69-4.69Z"/>
            <path class="cls-6" d="M274.01,241.98v31.29c0,17.73-7.75,34.58-21.21,46.12h0c-14.55,12.47-22.36,31.08-21.07,50.2l8.8,130.82-8.09,40.92c-1.43,7.23,4.1,13.97,11.47,13.97h50.24V241.98h-20.15Z"/>
            <path class="cls-2" d="M337.05,319.4h0c-13.46-11.54-21.21-28.39-21.21-46.12v-31.29h-21.68v313.33h51.76c7.37,0,12.9-6.74,11.47-13.97l-8.09-40.92,8.8-130.82c1.29-19.12-6.52-37.73-21.07-50.2Z"/>
            <rect class="cls-3" x="271.84" y="199.83" width="57.02" height="42.16" rx="8.65" ry="8.65"/>
            <path class="cls-3" d="M342.47,319.4h0c-13.46-11.54-21.21-28.39-21.21-46.12v-31.29h-41.83v31.29c0,17.73-7.75,34.58-21.21,46.12h0c-14.55,12.47-22.36,31.08-21.07,50.2l8.8,130.82-8.09,40.92c-1.43,7.23,4.1,13.97,11.47,13.97h102c7.37,0,12.9-6.74,11.47-13.97l-8.09-40.92,8.8-130.82c1.29-19.12-6.52-37.73-21.07-50.2Z"/>
            <rect class="cls-4" x="308.83" y="347.6" width="29.21" height="185.08" rx="14.6" ry="14.6"/>
          </g>
          <g>
            <line class="cls-3" x1="118.5" y1="555.31" x2="106.3" y2="555.31"/>
            <polyline class="cls-3" points="488.98 555.31 468.94 555.31 131.16 555.31"/>
          </g>
        </g>
        <text class="cls-1" transform="translate(249.64 642.07)"><tspan x="0" y="0">기타</tspan></text>
      </g>
    </g>
  </g>
</svg>