<?xml version="1.0" encoding="UTF-8"?>
<svg xmlns="http://www.w3.org/2000/svg" version="1.1" viewBox="0 0 595.28 841.89">
  <defs>
    <style>
      .cls-1 {
        fill: #c9c9c9;
      }

      .cls-2 {
        fill: #bf976c;
      }

      .cls-3 {
        fill: #323551;
        font-family: H2gtrE, HYGothic-Extra;
        font-size: 48px;
      }

      .cls-4, .cls-5 {
        fill: #fff;
      }

      .cls-6 {
        fill: #cbaa8d;
      }

      .cls-7 {
        fill: #f6be59;
      }

      .cls-8 {
        stroke: #323551;
      }

      .cls-8, .cls-9, .cls-10 {
        fill: none;
        stroke-linecap: round;
        stroke-linejoin: round;
        stroke-width: 8px;
      }

      .cls-5 {
        opacity: .3;
      }

      .cls-9 {
        stroke: #fff;
      }

      .cls-10 {
        stroke: #a07a51;
      }

      .cls-11 {
        fill: #ce5138;
      }

      .cls-12 {
        fill: #c7e7f3;
      }

      .cls-13 {
        fill: #efa93f;
      }

      .cls-14 {
        fill: #a07a51;
      }

      .cls-15 {
        fill: #bf4331;
      }
    </style>
  </defs>
  <!-- Generator: Adobe Illustrator 28.7.1, SVG Export Plug-In . SVG Version: 1.2.0 Build 142)  -->
  <g>
    <g id="_레이어_1" data-name="레이어_1">
      <g>
        <g>
          <g>
            <g>
              <path class="cls-14" d="M269.38,197.57c-5.67,0-10.27,4.58-10.27,10.24v44.32h26.5v-54.56h-16.23Z"/>
              <path class="cls-2" d="M312.81,207.81c0-5.66-4.6-10.24-10.27-10.24h-16.93v54.56h27.2v-44.32Z"/>
              <path class="cls-12" d="M269.96,252.13l-6.12,12.5c-1.74,3.56-2.76,7.4-3.02,11.3h24.79v-23.8h-15.66Z"/>
              <path class="cls-4" d="M308.08,264.63l-6.12-12.5h-16.35v23.8h25.49c-.26-3.9-1.28-7.74-3.02-11.3Z"/>
              <path class="cls-13" d="M260.82,275.93c-.2,2.95.03,5.94.7,8.87h0c3.3,14.3-4.1,28.9-17.6,34.75h0c-23.58,10.21-38.38,33.9-37.17,59.5l7.84,166.07c.32,5.32,4.73,9.46,10.07,9.46h60.94v-278.65h-24.79Z"/>
              <path class="cls-7" d="M327.99,319.55h0c-13.49-5.84-20.89-20.45-17.6-34.75h0c.67-2.93.9-5.92.7-8.87h-25.49v278.65h61.63c5.34,0,9.76-4.15,10.07-9.46l7.84-166.07c1.21-25.61-13.59-49.29-37.17-59.5Z"/>
              <path class="cls-15" d="M245.46,380.03v99.23c0,6.93,5.64,12.55,12.59,12.55h27.57v-111.79h-40.16Z"/>
              <path class="cls-11" d="M285.61,380.03v111.79h28.26c6.95,0,12.59-5.62,12.59-12.55v-99.23h-40.85Z"/>
              <path class="cls-8" d="M283.47,197.57h15.84c10.45,0,18.93,8.48,18.93,18.93v35.63h-53.71v-35.63c0-10.45,8.48-18.93,18.93-18.93Z"/>
              <path class="cls-8" d="M333.41,319.55h0c-13.49-5.84-20.89-20.45-17.6-34.75h0c1.57-6.79.75-13.91-2.31-20.17l-6.12-12.5h-32.01l-6.12,12.5c-3.06,6.26-3.88,13.38-2.31,20.17h0c3.3,14.3-4.1,28.9-17.6,34.75h0c-23.58,10.21-38.38,33.9-37.17,59.5l7.84,166.07c.32,5.32,4.73,9.46,10.07,9.46h122.57c5.34,0,9.76-4.15,10.07-9.46l7.84-166.07c1.21-25.61-13.59-49.29-37.17-59.5Z"/>
              <path class="cls-9" d="M250.88,380.03h81.01v88.58c0,12.81-10.4,23.21-23.21,23.21h-34.59c-12.81,0-23.21-10.4-23.21-23.21v-88.58h0Z"/>
              <rect class="cls-5" x="311.46" y="340.84" width="29.21" height="201.61" rx="14.6" ry="14.6"/>
            </g>
            <g>
              <path class="cls-12" d="M377.36,464.64c2.09,14.79,1.33,29.89-2.49,44.43-.96,3.66-1.48,7.5-1.5,11.45-.06,13.42,5.75,25.59,15.03,34.06h27v-89.94h-38.04Z"/>
              <path class="cls-4" d="M464.03,509.57c-3.7-14.75-4.66-30-2.62-44.93h-46.01v89.94h35.07c9.18-8.39,14.94-20.44,14.94-33.84,0-3.85-.48-7.6-1.37-11.17Z"/>
              <path class="cls-8" d="M466.83,464.64h-84.05c2.09,14.79,1.33,29.89-2.49,44.43-.96,3.66-1.48,7.5-1.5,11.45-.06,13.42,5.75,25.59,15.03,34.06h62.07c9.18-8.39,14.94-20.44,14.94-33.84,0-3.85-.48-7.6-1.37-11.17-3.7-14.75-4.66-30-2.62-44.93Z"/>
              <path class="cls-7" d="M457.53,509.58c-2.71-10.81-3.42-21.99-1.92-32.93h-34.78v65.91h12.77c13.34,0,24.52-10.45,24.93-23.74.01-.35.02-.7.02-1.05,0-2.82-.35-5.57-1.01-8.19Z"/>
              <path class="cls-13" d="M394.01,476.66c1.53,10.84.98,21.91-1.83,32.56-.71,2.68-1.09,5.49-1.1,8.39,0,.37,0,.75.01,1.12.38,13.33,11.56,23.84,24.93,23.84h4.79v-65.91h-26.81Z"/>
              <path class="cls-5" d="M451.37,509.59c-2.49-9.94-3.14-20.21-1.77-30.27h-15.41c-.71,10.11.06,20.33,2.21,30.27.6,2.79.93,5.71.93,8.71,0,.38,0,.75-.01,1.12-.23,8.52-4.05,15.94-9.73,20.49h1.78c12.26,0,22.54-9.61,22.92-21.83,0-.32.01-.65.01-.97,0-2.6-.32-5.12-.93-7.53Z"/>
            </g>
            <g>
              <g>
                <path class="cls-2" d="M144.62,409.71h-13.75c-8.3,48.29-8.56,96.58-.77,144.87h14.11c-4.11-48.29-3.98-96.58.41-144.87Z"/>
                <path class="cls-2" d="M159.51,409.71h-14.89c-4.38,48.29-4.52,96.58-.41,144.87h15.12c-1.81-48.29-1.75-96.58.18-144.87Z"/>
                <path class="cls-6" d="M174.79,409.71h-15.28c-1.93,48.29-1.99,96.58-.18,144.87h15.46v-144.87Z"/>
                <path class="cls-6" d="M190.07,409.71h-15.28v144.87h15.46c1.81-48.29,1.75-96.58-.18-144.87Z"/>
                <path class="cls-2" d="M204.97,409.71h-14.89c1.93,48.29,1.99,96.58.18,144.87h15.12c4.11-48.29,3.98-96.58-.41-144.87Z"/>
                <path class="cls-2" d="M218.71,409.71h-13.75c4.38,48.29,4.52,96.58.41,144.87h14.11c7.79-48.29,7.53-96.58-.77-144.87Z"/>
              </g>
              <g>
                <path class="cls-10" d="M149.1,409.71h-13.75c-8.3,48.29-8.56,96.58-.77,144.87h14.11c-4.11-48.29-3.98-96.58.41-144.87Z"/>
                <path class="cls-10" d="M164,409.71h-14.89c-4.38,48.29-4.52,96.58-.41,144.87h15.12c-1.81-48.29-1.75-96.58.18-144.87Z"/>
                <path class="cls-10" d="M179.28,409.71h-15.28c-1.93,48.29-1.99,96.58-.18,144.87h15.46v-144.87Z"/>
                <path class="cls-10" d="M194.56,409.71h-15.28v144.87h15.46c1.81-48.29,1.75-96.58-.18-144.87Z"/>
                <path class="cls-10" d="M209.45,409.71h-14.89c1.93,48.29,1.99,96.58.18,144.87h15.12c4.11-48.29,3.98-96.58-.41-144.87Z"/>
                <path class="cls-10" d="M223.2,409.71h-13.75c4.38,48.29,4.52,96.58.41,144.87h14.11c7.79-48.29,7.53-96.58-.77-144.87Z"/>
              </g>
              <path class="cls-8" d="M223.2,409.71h-74.09c-.55,6.04-1.03,12.07-1.44,18.11-.42,6.04-.76,12.07-1.05,18.11-.42,9.05-.7,18.11-.82,27.16-.04,3.02-.07,6.04-.08,9.05,0-3.02.03-6.04.08-9.05.12-9.05.4-18.11.82-27.16.28-6.04.63-12.07,1.05-18.11.42-6.04.9-12.07,1.44-18.11h-13.75c-8.3,48.29-8.56,96.58-.77,144.87h60.15c.9-24.14,1.34-48.29,1.31-72.43.03,24.14-.41,48.29-1.31,72.43h29.23c7.79-48.29,7.53-96.58-.77-144.87ZM162.9,445.93c.12-6.04.28-12.07.46-18.11-.18,6.04-.34,12.07-.46,18.11-.25,12.07-.38,24.14-.4,36.22.02-12.07.15-24.14.4-36.22ZM210.58,545.53c.45-6.04.83-12.07,1.14-18.11-.31,6.04-.7,12.07-1.14,18.11ZM212.69,500.26c-.12,6.04-.3,12.07-.55,18.11.25-6.04.43-12.07.55-18.11.12-6.04.17-12.07.15-18.11.02,6.04-.03,12.07-.15,18.11Z"/>
              <g>
                <rect class="cls-1" x="127.36" y="427.97" width="103.83" height="9.89"/>
                <rect class="cls-1" x="127.36" y="526.43" width="103.83" height="9.89"/>
              </g>
              <g>
                <rect class="cls-8" x="127.36" y="427.97" width="103.83" height="9.89"/>
                <rect class="cls-8" x="127.36" y="526.43" width="103.83" height="9.89"/>
              </g>
            </g>
            <g>
              <path class="cls-4" d="M383.31,280.61h0,0c-10.14,2.72-18.07,10.61-20.81,20.72h0c-2.72-10.11-10.64-18.02-20.78-20.75h0c10.14-2.72,18.07-10.61,20.81-20.72h0c2.72,10.11,10.64,18.02,20.78,20.75Z"/>
              <path class="cls-8" d="M388.73,280.61h0,0c-10.14,2.72-18.07,10.61-20.81,20.72h0c-2.72-10.11-10.64-18.02-20.78-20.75h0c10.14-2.72,18.07-10.61,20.81-20.72h0c2.72,10.11,10.64,18.02,20.78,20.75Z"/>
            </g>
          </g>
          <line class="cls-8" x1="467.39" y1="554.58" x2="106.3" y2="554.58"/>
          <line class="cls-8" x1="488.98" y1="554.58" x2="476.07" y2="554.58"/>
        </g>
        <text class="cls-3" transform="translate(273.64 641.27)"><tspan x="0" y="0">럼</tspan></text>
      </g>
    </g>
  </g>
</svg>