<?xml version="1.0" encoding="UTF-8"?>
<svg xmlns="http://www.w3.org/2000/svg" version="1.1" viewBox="0 0 595.28 841.89">
  <defs>
    <style>
      .cls-1 {
        fill: #323551;
        font-family: H2gtrE, HYGothic-Extra;
        font-size: 48px;
      }

      .cls-2, .cls-3 {
        fill: #fff;
      }

      .cls-4 {
        fill: none;
        stroke: #323551;
        stroke-linecap: round;
        stroke-linejoin: round;
        stroke-width: 8px;
      }

      .cls-3 {
        opacity: .3;
      }

      .cls-5 {
        fill: #6d6c6c;
      }

      .cls-6 {
        fill: #c7e7f3;
      }

      .cls-7 {
        fill: #addce6;
      }

      .cls-8 {
        fill: #3c3736;
      }
    </style>
  </defs>
  <!-- Generator: Adobe Illustrator 28.7.1, SVG Export Plug-In . SVG Version: 1.2.0 Build 142)  -->
  <g>
    <g id="_레이어_1" data-name="레이어_1">
      <g>
        <text class="cls-1" transform="translate(249.64 642.65)"><tspan x="0" y="0">사케</tspan></text>
        <g>
          <path class="cls-8" d="M180.83,311.51c-.6,2.2-1.18,4.46-1.74,6.76,2.87,4.65,4.33,10.08,4.9,15.79,3.59,10.03,4.49,20.92,2.99,31.93-1.25,9.22-4.01,18.06-7.83,26.53-1.1,2.43-2.39,4.76-3.64,7.12-1.75,6.65-3.46,13.32-5.2,19.98-1.11,6.1-2.08,12.23-2.74,18.39,0,.02,0,.03-.01.05,1.13,44.72,7.83,85.01,17.96,114.37h37.41v-240.91h-42.09Z"/>
          <path class="cls-5" d="M278.46,423.66c-1.27-.49-2.34-1.54-2.77-3.23-1.1-4.34-2.15-8.58-2.48-12.89-.81-2.26-1.71-4.5-2.51-6.75-1.39-.42-2.61-1.51-3.18-3.34-.4-1.3-.76-2.68-1.07-4.11-.81-.44-1.51-1.07-2-1.84-1.55-2.45-2.38-5.29-4.09-7.66-1.2-1.67-.8-3.84.32-5.41-3.15-9.73-4.11-20.67-3.77-30.82.24-7.11,1.17-15.18,4.93-21.41,1.19-2.99,2.73-5.82,4.32-8.62-.48-1.84-.96-3.67-1.46-5.45h-47.93v240.29h43.35c11.3-32.08,18.34-77.31,18.34-127.43,0-.44,0-.88,0-1.33Z"/>
          <path class="cls-4" d="M262.5,391.08c-5.59-10.39-7.71-28.14-5.53-44.84.31-6.77,1.36-14.21,4.88-20.05.48-1.2,1.01-2.37,1.58-3.53.57-4.75-.8-10.28-3.18-10.3l-77.07-.85c-.93.28-2.01,13.98,3.95,25.24,6.89,13.04,3.21,39.82-3.74,54.22-9.91,20.53-16.03,48.75-16.03,79.89,0,31.22,6.31,59.67,16.42,80.31.61,1.24,1.37,1.94,2.16,1.94h74.13c.8,0,1.56-.7,2.17-1.95,10.03-20.57,16.23-48.95,16.23-80.3s-5.65-60.59-15.97-79.77Z"/>
          <g>
            <path class="cls-2" d="M386.26,431.98h0,0c-10.14,3.08-18.07,12.03-20.81,23.5h0c-2.72-11.47-10.64-20.43-20.78-23.53h0,0c10.14-3.08,18.07-12.03,20.81-23.5h0s0,0,0,0c2.72,11.47,10.64,20.43,20.78,23.53Z"/>
            <path class="cls-4" d="M391.68,431.98h0,0c-10.14,3.08-18.07,12.03-20.81,23.5h0c-2.72-11.47-10.64-20.43-20.78-23.53h0,0c10.14-3.08,18.07-12.03,20.81-23.5h0s0,0,0,0c2.72,11.47,10.64,20.43,20.78,23.53Z"/>
          </g>
          <g>
            <path class="cls-2" d="M345.14,364.59h0c-10.14,3.08-18.07,12.03-20.81,23.5h0c-2.72-11.47-10.64-20.43-20.78-23.53h0c10.14-3.08,18.07-12.03,20.81-23.5h0c2.72,11.47,10.64,20.43,20.78,23.53Z"/>
            <path class="cls-4" d="M350.56,364.59h0c-10.14,3.08-18.07,12.03-20.81,23.5h0c-2.72-11.47-10.64-20.43-20.78-23.53h0c10.14-3.08,18.07-12.03,20.81-23.5h0c2.72,11.47,10.64,20.43,20.78,23.53Z"/>
          </g>
          <line class="cls-4" x1="333.48" y1="554.1" x2="106.3" y2="554.1"/>
          <line class="cls-4" x1="488.98" y1="554.1" x2="347.76" y2="554.1"/>
          <path class="cls-3" d="M232.27,388.09c9.49,19.27,15.44,46.84,15.44,77.47s-5.95,58.21-15.44,77.47c17.97-12,30.71-42.16,30.71-77.47s-12.75-65.47-30.71-77.47Z"/>
          <path class="cls-6" d="M329.54,488.04c-4.28,7.04-6.73,15.15-6.73,23.78,0,12.54,5.16,23.99,13.64,32.65,2.36,2.41,6.33,3.86,10.58,3.86h28.11v-60.29h-45.61Z"/>
          <path class="cls-2" d="M423.19,488.04h-48.04v60.29h30.55c4.25,0,8.22-1.45,10.58-3.86,8.48-8.66,13.64-20.11,13.64-32.65,0-8.63-2.44-16.74-6.73-23.78Z"/>
          <path class="cls-4" d="M333.78,488.04c-4.28,7.04-6.73,15.15-6.73,23.78,0,12.54,5.16,23.99,13.64,32.65,2.36,2.41,6.33,3.86,10.58,3.86h58.66c4.25,0,8.22-1.45,10.58-3.86,8.48-8.66,13.64-20.11,13.64-32.65,0-8.63-2.44-16.74-6.73-23.78h-93.65Z"/>
          <path class="cls-7" d="M334.34,516.23c1.57,6.46,4.78,12.43,9.3,17.52,2.06,2.31,5.68,3.71,9.64,3.71h26.11v-21.23h-45.05Z"/>
          <path class="cls-7" d="M379.39,516.23v21.23h28.55c3.96,0,7.58-1.4,9.64-3.71,4.52-5.09,7.73-11.06,9.3-17.52h-47.48Z"/>
        </g>
      </g>
    </g>
  </g>
</svg>