<?xml version="1.0" encoding="UTF-8"?>
<svg xmlns="http://www.w3.org/2000/svg" version="1.1" viewBox="0 0 595.28 841.89">
  <defs>
    <style>
      .cls-1 {
        fill: #f0c935;
      }

      .cls-2 {
        fill: #323551;
        font-family: H2gtrE, HYGothic-Extra;
        font-size: 48px;
      }

      .cls-3, .cls-4 {
        fill: #fff;
      }

      .cls-5 {
        fill: #f7f8f8;
      }

      .cls-6 {
        fill: none;
        stroke: #323551;
        stroke-linecap: round;
        stroke-linejoin: round;
        stroke-width: 8px;
      }

      .cls-7 {
        opacity: .8;
      }

      .cls-8 {
        fill: #cf4335;
      }

      .cls-4 {
        opacity: .3;
      }

      .cls-9 {
        fill: #fad398;
      }

      .cls-10 {
        fill: #689b52;
      }

      .cls-11 {
        fill: #efefef;
      }

      .cls-12 {
        fill: #b3c670;
      }

      .cls-13 {
        fill: #c7e7f3;
      }

      .cls-14 {
        fill: #bd3027;
      }

      .cls-15 {
        fill: #addce6;
      }
    </style>
  </defs>
  <!-- Generator: Adobe Illustrator 28.7.1, SVG Export Plug-In . SVG Version: 1.2.0 Build 142)  -->
  <g>
    <g id="_레이어_1" data-name="레이어_1">
      <line class="cls-6" x1="1107.63" y1="305.89" x2="1069.15" y2="305.89"/>
      <g>
        <text class="cls-2" transform="translate(249.64 642.49)"><tspan x="0" y="0">소주</tspan></text>
        <g>
          <g>
            <path class="cls-14" d="M221.77,199.48c-3.4,0-6.16,2.75-6.16,6.15v38.32h26.18v-44.47h-20.02Z"/>
            <path class="cls-8" d="M267.19,205.63c0-3.4-2.76-6.15-6.16-6.15h-19.23v44.47h25.39v-38.32Z"/>
            <polygon class="cls-13" points="241.8 243.95 219.06 243.95 216.26 277.1 241.8 277.1 241.8 243.95"/>
            <path class="cls-10" d="M216.26,277.1l-2.6,30.8-19.17,2.52c-12.5,1.64-21.85,12.29-21.85,24.89l5.4,49.54v89.94l-5.4,69.75c0,6.14,4.98,11.11,11.12,11.11h58.02v-278.54h-25.53Z"/>
            <path class="cls-12" d="M311.12,334.21c0-12.6-9.35-23.24-21.85-24.89l-19.17-2.52-2.6-30.8h-24.74v278.54h57.23c6.14,0,11.12-4.97,11.12-11.11l-5.4-69.75v-89.94l5.4-49.54Z"/>
            <polygon class="cls-3" points="263.74 243.95 241.8 243.95 241.8 277.1 266.54 277.1 263.74 243.95"/>
            <rect class="cls-5" x="241.8" y="379.93" width="65.54" height="99.4"/>
            <rect class="cls-11" x="184.07" y="388.4" width="57.73" height="90.93"/>
            <path class="cls-6" d="M232.42,199.48h28.78c6.29,0,11.4,5.11,11.4,11.4v33.08h-51.57v-33.08c0-6.29,5.11-11.4,11.4-11.4Z"/>
            <path class="cls-6" d="M293.71,310.42l-17.19-2.26c-1.15-.15-2.05-1.09-2.14-2.25l-5.04-59.69c-.11-1.28-1.18-2.27-2.47-2.27h-40.12c-1.29,0-2.36.99-2.47,2.27l-5.04,59.69c-.1,1.16-.99,2.09-2.14,2.25l-17.19,2.26c-12.45,1.64-21.76,12.2-21.85,24.72,0,.11,0,.22.02.33l5.37,49.24c0,.09.01.18.01.27v89.71c0,.06,0,.13,0,.19l-5.39,69.66c0,6.14,4.98,11.11,11.12,11.11h115.26c6.14,0,11.12-4.97,11.12-11.11l-5.39-69.66c0-.06,0-.13,0-.19v-89.71c0-.09,0-.18.01-.27l5.37-49.24c.01-.11.02-.22.02-.33-.08-12.52-9.4-23.08-21.85-24.72Z"/>
            <rect class="cls-6" x="184.26" y="383.2" width="123.08" height="96.14"/>
            <rect class="cls-4" x="252.64" y="330.67" width="29.08" height="201.13" rx="14.54" ry="14.54"/>
          </g>
          <g class="cls-7">
            <path class="cls-1" d="M109.31,513.32c4.38,16.46,17.13,28.44,32.44,32.6,7.54,2.04,15.7,2.19,23.79.04,8.09-2.15,15.1-6.33,20.62-11.84,11.23-11.21,16.32-27.93,11.94-44.39l-5.86,1.56c3.81,14.29-.62,28.81-10.36,38.53-4.79,4.79-10.88,8.41-17.9,10.28-7.02,1.87-14.11,1.74-20.65-.03-13.29-3.6-24.35-14.01-28.16-28.29"/>
            <path class="cls-9" d="M181.88,529.8c9.74-9.73,14.17-24.25,10.36-38.53l-38.53,10.24-38.54,10.24c3.81,14.29,14.87,24.69,28.16,28.29,6.54,1.77,13.62,1.9,20.65.03,7.02-1.87,13.11-5.49,17.9-10.28Z"/>
            <g>
              <path class="cls-3" d="M175.52,525.81l-17.92-17.99c-1.34-1.35-3.64-.74-4.13,1.1l-6.6,24.51c-.4,1.48.63,2.95,2.16,3.11,4.57.46,9.23.1,13.72-1.1,4.49-1.19,8.71-3.19,12.45-5.86,1.25-.89,1.41-2.68.33-3.77Z"/>
              <path class="cls-3" d="M187.79,512.43c1.17-4.18,1.53-8.55,1.09-12.87-.14-1.37-1.49-2.28-2.82-1.93l-22.4,5.95c-1.68.45-2.24,2.54-1.02,3.77l16.37,16.44c.99.99,2.62.85,3.44-.28,2.41-3.34,4.22-7.1,5.33-11.09Z"/>
              <path class="cls-3" d="M146.1,508.26l-22.4,5.95c-1.35.36-2.04,1.85-1.47,3.12,1.77,3.94,4.25,7.54,7.33,10.57,2.95,2.91,6.39,5.27,10.14,6.97,1.27.58,2.76-.11,3.12-1.46l6.03-22.4c.45-1.68-1.08-3.22-2.76-2.77Z"/>
            </g>
            <path class="cls-6" d="M195.53,520.62c4.26-9.35,5.43-20.19,2.58-30.91l-5.86,1.56"/>
            <path class="cls-6" d="M109.31,513.32c4.38,16.46,17.13,28.44,32.44,32.6,7.54,2.04,15.7,2.19,23.79.04,8.09-2.15,15.1-6.33,20.62-11.84,2.65-2.65,4.97-5.61,6.89-8.8"/>
            <line class="cls-6" x1="144.55" y1="503.95" x2="115.17" y2="511.76"/>
            <line class="cls-6" x1="192.24" y1="491.27" x2="164.27" y2="498.7"/>
          </g>
          <path class="cls-4" d="M397.99,523.18h0c-6.03,0-10.92-4.88-10.92-10.9v-128.57c0-6.02,4.89-10.9,10.92-10.9h0c6.03,0,10.92,4.88,10.92,10.9v128.57c0,6.02-4.89,10.9-10.92,10.9Z"/>
          <line class="cls-6" x1="443.74" y1="555.64" x2="107.09" y2="555.64"/>
          <line class="cls-6" x1="488.18" y1="555.64" x2="458.33" y2="555.64"/>
          <line class="cls-6" x1="265.54" y1="329.83" x2="235.58" y2="329.83"/>
          <g>
            <polygon class="cls-13" points="323.29 455.42 334.52 533.95 333.99 552.48 363.68 552.48 363.68 455.42 323.29 455.42"/>
            <polygon class="cls-3" points="397.48 533.95 408.7 455.42 363.68 455.42 363.68 552.48 398 552.48 397.48 533.95"/>
            <polygon class="cls-6" points="339.87 552.48 403.88 552.48 403.35 533.95 414.58 455.42 329.17 455.42 340.39 533.95 339.87 552.48"/>
            <path class="cls-15" d="M398.03,506.48l5.5-38.51h-63.32l5.5,38.51c1.61,11.25,12.83,19.71,26.15,19.71h0c13.32,0,24.55-8.46,26.15-19.71Z"/>
          </g>
          <g>
            <path class="cls-3" d="M365.57,278.61h0c-13.21,3.55-23.54,13.86-27.11,27.07h0c-3.55-13.21-13.86-23.54-27.07-27.11h0c13.21-3.55,23.54-13.86,27.11-27.07h0c3.55,13.21,13.86,23.54,27.07,27.11Z"/>
            <path class="cls-6" d="M375.57,278.61h0c-13.21,3.55-23.54,13.86-27.11,27.07h0c-3.55-13.21-13.86-23.54-27.07-27.11h0c13.21-3.55,23.54-13.86,27.11-27.07h0c3.55,13.21,13.86,23.54,27.07,27.11Z"/>
          </g>
        </g>
      </g>
    </g>
  </g>
</svg>