<?xml version="1.0" encoding="UTF-8"?>
<svg xmlns="http://www.w3.org/2000/svg" version="1.1" viewBox="0 0 595.28 841.89">
  <defs>
    <style>
      .cls-1 {
        fill: #de5d56;
      }

      .cls-2 {
        fill: #323551;
        font-family: H2gtrE, HYGothic-Extra;
        font-size: 48px;
      }

      .cls-3, .cls-4 {
        fill: #fff;
      }

      .cls-5 {
        fill: #f6be59;
      }

      .cls-6 {
        stroke: #323551;
      }

      .cls-6, .cls-7 {
        fill: none;
        stroke-linecap: round;
        stroke-linejoin: round;
        stroke-width: 8px;
      }

      .cls-8 {
        fill: #cf4335;
      }

      .cls-4 {
        opacity: .3;
      }

      .cls-9 {
        fill: #fad398;
      }

      .cls-10 {
        fill: #689b52;
      }

      .cls-7 {
        stroke: #fff;
      }

      .cls-11 {
        fill: #b3c670;
      }

      .cls-12 {
        fill: #c7e7f3;
      }
    </style>
  </defs>
  <!-- Generator: Adobe Illustrator 28.7.1, SVG Export Plug-In . SVG Version: 1.2.0 Build 142)  -->
  <g>
    <g id="_레이어_1" data-name="레이어_1">
      <g>
        <g>
          <g>
            <path class="cls-10" d="M457.49,486.09c8.06-15.19,6.9-32.84-1.52-46.48-4.14-6.71-10.04-12.44-17.47-16.44-7.43-3.99-15.44-5.74-23.28-5.47-15.94.54-31.15,9.39-39.2,24.59l5.38,2.89c6.99-13.19,20.2-20.87,34.03-21.34,6.81-.23,13.76,1.28,20.21,4.75,6.45,3.46,11.57,8.44,15.16,14.27,7.31,11.83,8.31,27.15,1.32,40.34"/>
            <path class="cls-11" d="M415.42,423.85c-13.83.47-27.03,8.15-34.03,21.34l35.36,19.01,35.36,19.01c6.99-13.19,5.99-28.51-1.32-40.34-3.6-5.82-8.72-10.8-15.16-14.27-6.45-3.46-13.4-4.98-20.21-4.75Z"/>
            <g>
              <path class="cls-3" d="M417.36,431.18l.85,25.66c.06,1.92,2.17,3.05,3.79,2.04l21.65-13.57c1.31-.82,1.56-2.62.54-3.78-3.05-3.5-6.72-6.44-10.84-8.65-4.12-2.22-8.59-3.65-13.17-4.25-1.53-.2-2.87,1.01-2.82,2.56Z"/>
              <path class="cls-3" d="M399.16,432.61c-3.72,2.29-6.99,5.27-9.62,8.76-.84,1.11-.47,2.71.75,3.37l20.55,11.05c1.54.83,3.39-.33,3.33-2.09l-.77-23.45c-.05-1.41-1.34-2.44-2.72-2.16-4.06.81-7.97,2.34-11.52,4.52Z"/>
              <path class="cls-3" d="M426.97,464.45l20.55,11.05c1.24.67,2.77.04,3.22-1.3,1.4-4.13,2.04-8.5,1.86-12.87-.17-4.18-1.09-8.3-2.68-12.15-.54-1.31-2.11-1.82-3.3-1.08l-19.78,12.4c-1.48.93-1.41,3.12.13,3.95Z"/>
            </g>
            <path class="cls-6" d="M399.09,421.22c-9.54,3.97-17.83,11.18-23.08,21.07l5.38,2.89"/>
            <path class="cls-6" d="M457.49,486.09c8.06-15.19,6.9-32.84-1.52-46.48-4.14-6.71-10.04-12.44-17.47-16.44-7.43-3.99-15.44-5.74-23.28-5.47-3.77.13-7.5.72-11.1,1.75"/>
            <line class="cls-6" x1="425.15" y1="468.71" x2="452.11" y2="483.2"/>
            <line class="cls-6" x1="381.39" y1="445.19" x2="407.05" y2="458.98"/>
          </g>
          <g>
            <path class="cls-12" d="M348.52,459.17l16.64,71.73-12.57,9.6c-4.81,3.68-2.23,11.4,3.81,11.4h33.91v-92.74h-41.79Z"/>
            <path class="cls-3" d="M417.87,540.51l-12.57-9.6,16.64-71.73h-31.63v92.74h23.75c6.04,0,8.62-7.73,3.81-11.4Z"/>
            <path class="cls-1" d="M217.32,197.69c-3.51,0-6.35,2.86-6.35,6.4v37.36c0,3.53,2.84,6.4,6.35,6.4h21.15v-50.15h-21.15Z"/>
            <path class="cls-8" d="M265.68,197.69h-27.21v50.15h27.21c3.51,0,6.35-2.86,6.35-6.4v-37.36c0-3.53-2.84-6.4-6.35-6.4Z"/>
            <path class="cls-3" d="M265.93,289.12c.1-13.76-.02-27.52-.37-41.27h-27.1v42.02h27.47c0-.25,0-.49,0-.74Z"/>
            <path class="cls-9" d="M302.51,348.39c-6.34-5.86-12.68-13.13-19.02-19.01-11.01-10.22-17.46-24.47-17.56-39.52h-27.47v262.05h64.41c4.94,0,9.15-3.6,9.96-8.5,10.14-61.41,12.92-104.36,6.79-161.3-1.4-12.97-7.55-24.9-17.1-33.72Z"/>
            <path class="cls-5" d="M217.06,289.86c-.09,15.05-6.55,29.3-17.56,39.52-6.34,5.88-12.68,13.15-19.02,19.01-9.55,8.82-15.71,20.75-17.1,33.72-6.13,56.94-3.35,99.9,6.79,161.3.81,4.9,5.02,8.5,9.96,8.5h58.35v-262.05h-21.41Z"/>
            <path class="cls-12" d="M238.47,247.84h-21.04c-.34,13.76-.47,27.52-.37,41.27,0,.25,0,.5,0,.74h21.41v-42.02Z"/>
            <path class="cls-1" d="M200,387.99c-7.64,0-13.83,6.24-13.83,13.93v80.83c0,7.69,6.19,13.93,13.83,13.93h38.47v-108.69h-38.47Z"/>
            <path class="cls-8" d="M283,387.99h-44.53v108.69h44.53c7.64,0,13.83-6.24,13.83-13.93v-80.83c0-7.69-6.19-13.93-13.83-13.93Z"/>
            <rect class="cls-6" x="216.39" y="197.69" width="61.06" height="50.15" rx="11.71" ry="11.71"/>
            <path class="cls-6" d="M325.04,382.11c-1.4-12.97-7.55-24.9-17.1-33.72-6.34-5.86-12.68-13.13-19.02-19.01-11.19-10.38-17.68-24.94-17.56-40.26.11-13.76-.02-27.52-.37-41.27h-48.14c-.34,13.76-.47,27.52-.37,41.27.12,15.32-6.37,29.88-17.56,40.26-6.34,5.88-12.68,13.15-19.02,19.01-9.55,8.82-15.71,20.75-17.1,33.72-6.13,56.94-3.35,99.9,6.79,161.3.81,4.9,5.02,8.5,9.96,8.5h122.75c4.94,0,9.15-3.6,9.96-8.5,10.14-61.41,12.92-104.36,6.79-161.3Z"/>
            <rect class="cls-7" x="191.59" y="387.99" width="110.67" height="108.69" rx="25.5" ry="25.5"/>
            <path class="cls-6" d="M423.29,540.51l-12.57-9.6,16.64-71.73h-73.42l16.64,71.73-12.57,9.6c-4.81,3.68-2.23,11.4,3.81,11.4h57.66c6.04,0,8.62-7.73,3.81-11.4Z"/>
            <path class="cls-5" d="M365.52,470.48l8.27,35.64c1.8,7.78,8.62,13.31,16.53,13.47v-49.11h-24.79Z"/>
            <path class="cls-9" d="M390.31,470.48v49.11c.11,0,.23,0,.34,0h0c8.05,0,15.04-5.58,16.87-13.47l8.27-35.64h-25.48Z"/>
            <path class="cls-11" d="M272.35,417.66c0-2.85-2.3-5.16-5.13-5.16s-5.13,2.31-5.13,5.16c0,5.97-4.36,10.94-10.04,11.85v-21.98c0-2.85-2.3-5.16-5.13-5.16s-5.13,2.31-5.13,5.16v39.14c-5.68-.91-10.04-5.88-10.04-11.85,0-2.85-2.3-5.16-5.13-5.16s-5.13,2.31-5.13,5.16c0,11.67,8.95,21.28,20.3,22.24v20.08c0,2.85,2.3,5.16,5.13,5.16s5.13-2.31,5.13-5.16v-37.24c11.35-.97,20.3-10.57,20.3-22.24Z"/>
            <rect class="cls-4" x="257.74" y="348.12" width="29.21" height="176.23" rx="14.6" ry="14.6"/>
          </g>
          <g>
            <path class="cls-3" d="M393.28,382.56h0c-10.14,2.74-18.07,10.71-20.81,20.92h0c-2.72-10.21-10.64-18.2-20.78-20.95h0c10.14-2.74,18.07-10.71,20.81-20.92h0c2.72,10.21,10.64,18.2,20.78,20.95Z"/>
            <path class="cls-6" d="M398.71,382.56h0c-10.14,2.74-18.07,10.71-20.81,20.92h0c-2.72-10.21-10.64-18.2-20.78-20.95h0c10.14-2.74,18.07-10.71,20.81-20.92h0c2.72,10.21,10.64,18.2,20.78,20.95Z"/>
          </g>
          <line class="cls-6" x1="137.88" y1="551.91" x2="106.3" y2="551.91"/>
          <line class="cls-6" x1="488.98" y1="551.91" x2="155.78" y2="551.91"/>
        </g>
        <text class="cls-2" transform="translate(224.28 643.93)"><tspan x="0" y="0">테킬라</tspan></text>
      </g>
    </g>
  </g>
</svg>