<?xml version="1.0" encoding="UTF-8"?>
<svg xmlns="http://www.w3.org/2000/svg" version="1.1" viewBox="0 0 595.28 841.89">
  <defs>
    <style>
      .cls-1 {
        fill: #323551;
        font-family: H2gtrE, HYGothic-Extra;
        font-size: 48px;
      }

      .cls-2, .cls-3 {
        fill: #fff;
      }

      .cls-4 {
        stroke: #323551;
      }

      .cls-4, .cls-5 {
        fill: none;
        stroke-linecap: round;
        stroke-linejoin: round;
        stroke-width: 8px;
      }

      .cls-3 {
        opacity: .3;
      }

      .cls-5 {
        stroke: #fff;
      }

      .cls-6 {
        fill: #d95858;
      }

      .cls-7 {
        fill: #c7e7f3;
      }

      .cls-8 {
        fill: #e26663;
      }

      .cls-9 {
        fill: #addce6;
      }
    </style>
  </defs>
  <!-- Generator: Adobe Illustrator 28.7.1, SVG Export Plug-In . SVG Version: 1.2.0 Build 142)  -->
  <g>
    <g id="_레이어_1" data-name="레이어_1">
      <g>
        <g>
          <line class="cls-4" x1="488.98" y1="556.48" x2="472.72" y2="556.48"/>
          <g>
            <path class="cls-9" d="M192.38,259.75c-.23,15.21-2.69,29.4-14.75,38.83-12.74,9.96-20.19,25.24-20.19,41.42l-5.42,202.25c0,7.86,6.37,14.24,14.23,14.24h48.91v-296.73h-22.78Z"/>
            <path class="cls-7" d="M270.26,340c0-16.18-7.45-31.46-20.19-41.42-12.06-9.43-14.52-23.62-14.75-38.83h-20.16v296.73h46.3c7.86,0,14.23-6.37,14.23-14.24l-5.42-202.25Z"/>
            <path class="cls-6" d="M192.55,200.96c-2.74,0-4.96,2.22-4.96,4.97v48.86c0,2.74,2.22,4.97,4.96,4.97h22.61v-58.79h-22.61Z"/>
            <path class="cls-8" d="M235.15,200.96h-19.99v58.79h19.99c2.74,0,4.96-2.22,4.96-4.97v-48.86c0-2.74-2.22-4.97-4.96-4.97Z"/>
            <path class="cls-6" d="M213.85,342.37c-15.38,0-27.85,12.48-27.85,27.87h-29.37l-2.17,80.87h60.7v-108.7c-.43-.02-.87-.03-1.31-.03Z"/>
            <path class="cls-8" d="M271.07,370.23h-29.37c0-14.95-11.77-27.15-26.54-27.83v108.7h58.08l-2.17-80.87Z"/>
            <path class="cls-2" d="M219.28,353.93c-9,0-16.29,7.3-16.29,16.3s7.29,16.3,16.29,16.3c.44,0,.88-.02,1.31-.06v-32.48c-.43-.03-.87-.06-1.31-.06Z"/>
            <path class="cls-2" d="M235.57,370.23c0-8.56-6.6-15.58-14.98-16.24v32.48c8.38-.67,14.98-7.68,14.98-16.24Z"/>
            <path class="cls-4" d="M275.69,340c0-16.18-7.45-31.46-20.19-41.42h0c-12.06-9.43-14.52-23.62-14.75-38.83h-42.94c-.23,15.21-2.69,29.4-14.75,38.83h0c-12.74,9.96-20.19,25.24-20.19,41.42l-5.42,202.25c0,7.86,6.37,14.24,14.23,14.24h95.21c7.86,0,14.23-6.37,14.23-14.24l-5.42-202.25Z"/>
            <rect class="cls-4" x="193.02" y="200.96" width="52.52" height="58.79" rx="9.15" ry="9.15"/>
            <path class="cls-4" d="M276.5,370.23h-29.37c0-15.39-12.47-27.87-27.85-27.87s-27.85,12.48-27.85,27.87h-29.37l-2.17,80.87h118.78l-2.17-80.87Z"/>
            <ellipse class="cls-2" cx="219.28" cy="370.23" rx="16.29" ry="16.3"/>
            <line class="cls-5" x1="171.95" y1="432.65" x2="266.61" y2="432.65"/>
            <g>
              <polygon class="cls-7" points="294.76 451.1 305.12 536.36 304.63 556.48 332.04 556.48 332.04 451.1 294.76 451.1"/>
              <polygon class="cls-2" points="363.24 536.36 373.6 451.1 332.04 451.1 332.04 556.48 363.72 556.48 363.24 536.36"/>
              <polygon class="cls-4" points="310.06 556.48 369.15 556.48 368.66 536.36 379.02 451.1 300.18 451.1 310.55 536.36 310.06 556.48"/>
              <path class="cls-9" d="M363.75,506.54l5.08-41.81h-58.45l5.08,41.81c1.48,12.21,11.85,21.4,24.14,21.4h0c12.3,0,22.66-9.18,24.14-21.4Z"/>
            </g>
            <path class="cls-3" d="M245.54,533.86h0c-8.07,0-14.6-6.54-14.6-14.61v-187.61c0-8.07,6.54-14.61,14.6-14.61h0c8.07,0,14.6,6.54,14.6,14.61v187.61c0,8.07-6.54,14.61-14.6,14.61Z"/>
            <g>
              <g>
                <polygon class="cls-2" points="441.61 487.47 413.31 491.03 397.57 509.88 412.56 522.26 441.61 487.47"/>
                <polygon class="cls-7" points="397.57 509.88 382.44 527.99 383.97 556.49 412.56 522.26 397.57 509.88"/>
                <polygon class="cls-7" points="454.06 556.54 412.56 522.26 383.97 556.49 454.06 556.54"/>
                <polygon class="cls-2" points="454.1 556.54 441.61 487.47 412.56 522.26 454.06 556.54 454.1 556.54"/>
                <polyline class="cls-4" points="412.8 521.97 390.99 517.75 392.45 546.34 382.44 527.99"/>
                <polyline class="cls-4" points="412.8 521.97 404.78 501.24 433.15 497.6 413.33 491"/>
                <line class="cls-4" x1="454.1" y1="556.54" x2="433.15" y2="497.6"/>
                <line class="cls-4" x1="412.8" y1="521.97" x2="454.1" y2="556.54"/>
                <path class="cls-4" d="M412.8,521.97"/>
                <line class="cls-4" x1="454.1" y1="556.54" x2="392.45" y2="546.34"/>
                <path class="cls-4" d="M412.8,521.97"/>
              </g>
              <polygon class="cls-4" points="382.44 527.99 413.31 491.03 441.61 487.47 383.97 556.49 382.44 527.99"/>
              <polygon class="cls-4" points="383.97 556.49 454.1 556.54 441.61 487.47 383.97 556.49"/>
            </g>
          </g>
          <g>
            <path class="cls-2" d="M336.35,399.82h0,0c-10.14,2.72-18.07,10.65-20.81,20.79h0c-2.72-10.15-10.64-18.08-20.78-20.82h0c10.14-2.72,18.07-10.65,20.81-20.79h0c2.72,10.15,10.64,18.08,20.78,20.82Z"/>
            <path class="cls-4" d="M341.77,399.82h0,0c-10.14,2.72-18.07,10.65-20.81,20.79h0c-2.72-10.15-10.64-18.08-20.78-20.82h0c10.14-2.72,18.07-10.65,20.81-20.79h0c2.72,10.15,10.64,18.08,20.78,20.82Z"/>
          </g>
          <g>
            <path class="cls-2" d="M377.87,349.16h0c-7.17,1.93-12.77,7.52-14.7,14.69h0c-1.92-7.17-7.52-12.78-14.68-14.71h0c7.17-1.93,12.77-7.52,14.7-14.69h0c1.92,7.17,7.52,12.78,14.68,14.71Z"/>
            <path class="cls-4" d="M383.3,349.16h0c-7.17,1.93-12.77,7.52-14.7,14.69h0c-1.92-7.17-7.52-12.78-14.68-14.71h0c7.17-1.93,12.77-7.52,14.7-14.69h0c1.92,7.17,7.52,12.78,14.68,14.71Z"/>
          </g>
          <line class="cls-4" x1="461.87" y1="556.48" x2="106.3" y2="556.48"/>
        </g>
        <text class="cls-1" transform="translate(215.16 642.49)"><tspan x="0" y="0">보드카</tspan></text>
      </g>
    </g>
  </g>
</svg>