<?xml version="1.0" encoding="UTF-8"?>
<svg xmlns="http://www.w3.org/2000/svg" version="1.1" viewBox="0 0 595.28 841.89">
  <defs>
    <style>
      .cls-1 {
        fill: #323551;
        font-family: H2gtrE, HYGothic-Extra;
        font-size: 48px;
      }

      .cls-2, .cls-3 {
        fill: #fff;
      }

      .cls-4 {
        fill: #666767;
      }

      .cls-5 {
        stroke: #323551;
      }

      .cls-5, .cls-6 {
        fill: none;
        stroke-linecap: round;
        stroke-linejoin: round;
        stroke-width: 8px;
      }

      .cls-3 {
        opacity: .3;
      }

      .cls-7 {
        fill: #fad398;
      }

      .cls-6 {
        stroke: #fff;
      }

      .cls-8 {
        fill: #dd7318;
      }

      .cls-9 {
        fill: #c7e7f3;
      }

      .cls-10 {
        fill: #54504f;
      }

      .cls-11 {
        fill: #979696;
      }

      .cls-12 {
        fill: #c3591b;
      }
    </style>
  </defs>
  <!-- Generator: Adobe Illustrator 28.7.1, SVG Export Plug-In . SVG Version: 1.2.0 Build 142)  -->
  <g>
    <g id="_레이어_1" data-name="레이어_1">
      <g>
        <g>
          <line class="cls-5" x1="450.07" y1="552.25" x2="106.3" y2="552.25"/>
          <line class="cls-5" x1="488.98" y1="552.25" x2="464.72" y2="552.25"/>
          <g>
            <path class="cls-12" d="M208.04,287.72l-.8,14.42c-.92,16.58-9.3,31.86-22.8,41.58h0c-14.82,10.68-23.38,27.97-22.86,46.2l4.3,151.71c.17,5.91,5.03,10.62,10.96,10.62h58.24v-264.53h-27.04Z"/>
            <path class="cls-8" d="M282.8,343.72h0c-13.5-9.73-21.87-25.01-22.8-41.58l-.8-14.42h-24.12v264.53h55.32c5.94,0,10.79-4.71,10.96-10.62l4.3-151.71c.52-18.22-8.04-35.52-22.86-46.2Z"/>
            <polygon class="cls-10" points="167.56 409.4 169.5 478.08 240.51 478.08 240.51 409.4 167.56 409.4"/>
            <polygon class="cls-4" points="305.11 409.4 235.08 409.4 235.08 478.08 303.16 478.08 305.11 409.4"/>
            <path class="cls-4" d="M261.73,205.69c0-5.73-4.66-10.38-10.41-10.38h-16.24v35.69h26.65v-25.31Z"/>
            <path class="cls-10" d="M215.92,195.32c-5.75,0-10.41,4.65-10.41,10.38v25.31h29.58v-35.69h-19.16Z"/>
            <polygon class="cls-10" points="211.2 231.01 208.04 287.72 235.08 287.72 235.08 231.01 211.2 231.01"/>
            <polygon class="cls-4" points="256.04 231.01 235.08 231.01 235.08 287.72 259.2 287.72 256.04 231.01"/>
            <rect class="cls-4" x="181.81" y="419.99" width="53.27" height="47.51"/>
            <rect class="cls-11" x="235.08" y="419.99" width="50.34" height="47.51"/>
            <path class="cls-5" d="M230.13,195.32h17.84c10.59,0,19.19,8.6,19.19,19.19v16.5h-56.23v-16.5c0-10.59,8.6-19.19,19.19-19.19Z"/>
            <polygon class="cls-5" points="261.46 231.01 216.63 231.01 213.47 287.72 264.62 287.72 261.46 231.01"/>
            <path class="cls-5" d="M288.23,343.72h0c-13.5-9.73-21.87-25.01-22.8-41.58l-.8-14.42h-51.16l-.8,14.42c-.92,16.58-9.3,31.86-22.8,41.58h0c-14.82,10.68-23.38,27.97-22.86,46.2l4.3,151.71c.17,5.91,5.03,10.62,10.96,10.62h113.56c5.94,0,10.79-4.71,10.96-10.62l4.3-151.71c.52-18.22-8.04-35.52-22.86-46.2Z"/>
            <rect class="cls-6" x="187.24" y="419.99" width="103.61" height="47.51"/>
            <polygon class="cls-5" points="169.5 478.08 308.59 478.08 310.53 409.4 167.56 409.4 169.5 478.08"/>
            <g>
              <path class="cls-9" d="M330.02,447.25v91.71c0,7.34,5.97,13.29,13.33,13.29h35.39v-105h-48.72Z"/>
              <path class="cls-2" d="M378.74,447.25v105h37.22c7.36,0,13.33-5.95,13.33-13.29v-91.71h-50.56Z"/>
              <path class="cls-5" d="M335.44,447.25h99.27v80.42c0,13.57-11.01,24.58-24.58,24.58h-50.12c-13.57,0-24.58-11.01-24.58-24.58v-80.42h0Z"/>
              <path class="cls-12" d="M344.66,465.1v52.02c0,5.06,4.11,9.15,9.18,9.15h30.31v-61.18h-39.5Z"/>
              <path class="cls-8" d="M384.16,465.1v61.18h32.15c5.07,0,9.18-4.1,9.18-9.15v-52.02h-41.33Z"/>
              <path class="cls-7" d="M374.4,524.89l-12.86-10c-3.08-2.39-3.63-6.82-1.23-9.89l10.03-12.82c2.4-3.07,6.84-3.61,9.92-1.22l12.86,10c3.08,2.39,3.63,6.82,1.23,9.89l-10.03,12.82c-2.4,3.07-6.84,3.61-9.92,1.22Z"/>
              <path class="cls-7" d="M413.71,489.84l-15.81,4c-3.78.96-7.63-1.32-8.59-5.09l-4.01-15.76c-.96-3.77,1.33-7.6,5.11-8.56l15.81-4c3.78-.96,7.63,1.32,8.59,5.09l4.01,15.76c.96,3.77-1.33,7.6-5.11,8.56Z"/>
            </g>
            <rect class="cls-3" x="244.6" y="360.01" width="29.21" height="174.5" rx="14.6" ry="14.6"/>
          </g>
          <path class="cls-6" d="M374.4,524.89l-12.86-10c-3.08-2.39-3.63-6.82-1.23-9.89l10.03-12.82c2.4-3.07,6.84-3.61,9.92-1.22l12.86,10c3.08,2.39,3.63,6.82,1.23,9.89l-10.03,12.82c-2.4,3.07-6.84,3.61-9.92,1.22Z"/>
          <path class="cls-6" d="M413.71,489.84l-15.81,4c-3.78.96-7.63-1.32-8.59-5.09l-4.01-15.76c-.96-3.77,1.33-7.6,5.11-8.56l15.81-4c3.78-.96,7.63,1.32,8.59,5.09l4.01,15.76c.96,3.77-1.33,7.6-5.11,8.56Z"/>
          <path class="cls-3" d="M407.28,536.67h0c-5.51,0-9.97-4.45-9.97-9.94v-57.92c0-5.49,4.47-9.94,9.97-9.94h0c5.51,0,9.97,4.45,9.97,9.94v57.92c0,5.49-4.47,9.94-9.97,9.94Z"/>
          <g>
            <path class="cls-2" d="M372.46,377.75h0c-10.14,2.71-18.07,10.61-20.81,20.72h0c-2.72-10.11-10.64-18.02-20.78-20.75h0c10.14-2.71,18.07-10.61,20.81-20.72h0c2.72,10.11,10.64,18.02,20.78,20.75Z"/>
            <path class="cls-5" d="M377.88,377.75h0c-10.14,2.71-18.07,10.61-20.81,20.72h0c-2.72-10.11-10.64-18.02-20.78-20.75h0c10.14-2.71,18.07-10.61,20.81-20.72h0c2.72,10.11,10.64,18.02,20.78,20.75Z"/>
          </g>
        </g>
        <text class="cls-1" transform="translate(225.64 642.49)"><tspan x="0" y="0">위스키</tspan></text>
      </g>
    </g>
  </g>
</svg>