<?xml version="1.0" encoding="UTF-8"?>
<svg xmlns="http://www.w3.org/2000/svg" version="1.1" viewBox="0 0 595.28 841.89">
  <defs>
    <style>
      .cls-1 {
        fill: #973327;
      }

      .cls-2, .cls-3 {
        fill: #fff;
      }

      .cls-4 {
        fill: #ac1f24;
      }

      .cls-5 {
        fill: #8b354e;
      }

      .cls-6 {
        fill: none;
        stroke: #323551;
        stroke-linecap: round;
        stroke-linejoin: round;
        stroke-width: 8px;
      }

      .cls-7 {
        fill: #c44133;
      }

      .cls-8 {
        fill: #323551;
        font-family: H2gtrE, HYGothic-Extra;
        font-size: 48.27px;
      }

      .cls-3 {
        opacity: .3;
      }

      .cls-9 {
        fill: #a4516b;
      }

      .cls-10 {
        fill: #5d8095;
      }

      .cls-11 {
        fill: #728fa5;
      }

      .cls-12 {
        fill: #8da9c1;
      }

      .cls-13 {
        fill: #c7e7f3;
      }

      .cls-14 {
        fill: #9f1f24;
      }
    </style>
  </defs>
  <!-- Generator: Adobe Illustrator 28.7.1, SVG Export Plug-In . SVG Version: 1.2.0 Build 142)  -->
  <g>
    <g id="_레이어_1" data-name="레이어_1">
      <g>
        <g>
          <ellipse class="cls-2" cx="260.11" cy="403.21" rx="14.65" ry="16.38"/>
          <ellipse class="cls-2" cx="288.31" cy="403.21" rx="14.65" ry="16.38"/>
          <ellipse class="cls-2" cx="274.21" cy="429.9" rx="14.65" ry="16.38"/>
          <g>
            <g>
              <g>
                <path class="cls-1" d="M253.32,183.18c-1.65,0-2.98,1.49-2.98,3.34v4.47c0,1.84-1.34,3.34-2.98,3.34s-2.98,1.49-2.98,3.34v18.59c0,1.84,1.34,3.34,2.98,3.34s2.98,1.49,2.98,3.34v35.12c0,15.55-6.4,30.23-17.36,39.8h0c-10.96,9.57-17.36,24.25-17.36,39.8v203.81c0,7.55,5.48,13.68,12.23,13.68h41.47V183.18h-16Z"/>
                <path class="cls-7" d="M304.59,297.85h0c-10.96-9.57-17.36-24.25-17.36-39.8v-35.12c0-1.84,1.34-3.34,2.98-3.34s2.98-1.49,2.98-3.34v-18.59c0-1.84-1.34-3.34-2.98-3.34s-2.98-1.49-2.98-3.34v-4.47c0-1.84-1.34-3.34-2.98-3.34h-14.92v371.96h40.39c6.76,0,12.23-6.12,12.23-13.68v-203.81c0-15.55-6.4-30.23-17.36-39.8Z"/>
                <rect class="cls-11" x="215.62" y="348.2" width="53.71" height="140.14"/>
                <rect class="cls-12" x="269.33" y="348.2" width="52.62" height="140.14"/>
                <path class="cls-12" d="M290.21,194.32c-1.65,0-2.98-1.49-2.98-3.34v-4.47c0-1.84-1.34-3.34-2.98-3.34h-14.92v74.86h17.9v-35.12c0-1.84,1.34-3.34,2.98-3.34s2.98-1.49,2.98-3.34v-18.59c0-1.84-1.34-3.34-2.98-3.34Z"/>
                <path class="cls-11" d="M253.32,183.18c-1.65,0-2.98,1.49-2.98,3.34v4.47c0,1.84-1.34,3.34-2.98,3.34s-2.98,1.49-2.98,3.34v18.59c0,1.84,1.34,3.34,2.98,3.34s2.98,1.49,2.98,3.34v35.12h18.99v-74.86h-16Z"/>
                <path class="cls-6" d="M310.01,297.85h0c-10.96-9.57-17.36-24.25-17.36-39.8v-35.12c0-1.84,1.34-3.34,2.98-3.34h0c1.65,0,2.98-1.49,2.98-3.34v-18.59c0-1.84-1.34-3.34-2.98-3.34h0c-1.65,0-2.98-1.49-2.98-3.34v-4.47c0-1.84-1.34-3.34-2.98-3.34h-30.92c-1.65,0-2.98,1.49-2.98,3.34v4.47c0,1.84-1.34,3.34-2.98,3.34h0c-1.65,0-2.98,1.49-2.98,3.34v18.59c0,1.84,1.34,3.34,2.98,3.34h0c1.65,0,2.98,1.49,2.98,3.34v35.12c0,15.55-6.4,30.23-17.36,39.8h0c-10.96,9.57-17.36,24.25-17.36,39.8v203.81c0,7.55,5.48,13.68,12.23,13.68h81.86c6.76,0,12.23-6.12,12.23-13.68v-203.81c0-15.55-6.4-30.23-17.36-39.8Z"/>
                <rect class="cls-6" x="221.05" y="348.2" width="106.33" height="140.14"/>
                <path class="cls-6" d="M295.64,194.32c-1.65,0-2.98-1.49-2.98-3.34v-4.47c0-1.84-1.34-3.34-2.98-3.34h-30.92c-1.65,0-2.98,1.49-2.98,3.34v4.47c0,1.84-1.34,3.34-2.98,3.34s-2.98,1.49-2.98,3.34v18.59c0,1.84,1.34,3.34,2.98,3.34s2.98,1.49,2.98,3.34v35.12h36.89v-35.12c0-1.84,1.34-3.34,2.98-3.34s2.98-1.49,2.98-3.34v-18.59c0-1.84-1.34-3.34-2.98-3.34Z"/>
                <path class="cls-3" d="M293.92,531.63h0c-6.99,0-12.66-6.34-12.66-14.16v-188.88c0-7.82,5.67-14.16,12.66-14.16h0c6.99,0,12.66,6.34,12.66,14.16v188.88c0,7.82-5.67,14.16-12.66,14.16Z"/>
                <g>
                  <ellipse class="cls-10" cx="262.91" cy="418.4" rx="11.73" ry="13.12"/>
                  <ellipse class="cls-10" cx="285.51" cy="418.4" rx="11.73" ry="13.12"/>
                  <ellipse class="cls-10" cx="274.21" cy="439.78" rx="11.73" ry="13.12"/>
                  <ellipse class="cls-10" cx="251.4" cy="396.77" rx="11.73" ry="13.12"/>
                  <ellipse class="cls-10" cx="273.99" cy="396.77" rx="11.73" ry="13.12"/>
                  <ellipse class="cls-10" cx="297.02" cy="396.77" rx="11.73" ry="13.12"/>
                </g>
              </g>
              <g>
                <path class="cls-13" d="M359.46,335.36c-34.26,123.21,29.24,102.13,29.24,151.47,0,0,.98,23.87,0,53.54l-36.63,14.76h39.68v-219.78h-32.3Z"/>
                <path class="cls-2" d="M396.47,540.38c-.98-29.68,0-53.54,0-53.54,0-49.53,63.52-28.22,29.24-151.47h-33.96v219.78h41.35l-36.63-14.76h0Z"/>
                <path class="cls-6" d="M401.91,540.38l36.63,14.76h-81.03l36.63-14.76c.98-29.68,0-53.54,0-53.54,0-49.35-63.5-28.27-29.24-151.47h66.26c34.28,123.26-29.24,101.95-29.24,151.47,0,0-.98,23.87,0,53.54"/>
                <path class="cls-14" d="M361,379.14c-1.71,14.26-1.44,26.19.78,36.01,3.47,15.31,11.33,23.69,18.93,31.8.07.08.14.15.21.23,4.57,4.87,10.38,7.4,16.25,7.61v-75.65h-36.18Z"/>
                <path class="cls-4" d="M435.03,379.14h-37.85v75.65c6.4.23,12.86-2.3,17.84-7.6.11-.11.21-.23.32-.34,7.6-8.09,15.45-16.46,18.91-31.74,2.22-9.81,2.48-21.72.77-35.96Z"/>
                <path class="cls-3" d="M429.55,370.38h-17.69c1.5,13.16,1.61,24.49.33,34.13-2.45,18.51-9.75,28.64-16.82,38.44-.1.14-.2.28-.3.41-.62.87-1.28,1.66-1.96,2.41,7.31,1.15,14.78-1.29,20.14-7.35.1-.11.2-.23.3-.34,7.16-8.09,14.56-16.46,17.18-31.74,1.68-9.81,1.3-21.72-1.19-35.96Z"/>
              </g>
            </g>
            <g>
              <g>
                <path class="cls-9" d="M191.6,508.01c-6.96-2.6-15.68-1.71-23.42,3.11-12.52,7.81-17.74,22.96-11.66,33.85,1.09,1.96,2.48,3.64,4.08,5.05.15-.78.34-1.56.57-2.35,4.83-16.22,16.7-29.78,30.43-39.66Z"/>
                <path class="cls-5" d="M201.86,516.7c-2.32-4.16-5.95-7.09-10.26-8.7-13.73,9.88-25.6,23.43-30.43,39.66-.24.79-.42,1.57-.57,2.35,7.33,6.41,19.32,6.94,29.59.54,12.52-7.81,17.74-22.96,11.66-33.85Z"/>
              </g>
              <path class="cls-6" d="M207.66,516.74c6.08,10.89.86,26.05-11.66,33.85-12.52,7.81-27.6,5.31-33.68-5.58-6.08-10.89-.86-26.05,11.66-33.85,12.52-7.81,27.6-5.31,33.68,5.58Z"/>
              <path class="cls-3" d="M192.12,514.36c2.23,2.87.25,7.48-4.43,10.28-4.68,2.81-10.29,2.75-12.52-.12-2.23-2.87-.25-7.48,4.43-10.28,4.68-2.81,10.29-2.75,12.52.12Z"/>
            </g>
          </g>
          <line class="cls-6" x1="458.3" y1="555.14" x2="106.3" y2="555.14"/>
          <line class="cls-6" x1="488.98" y1="555.14" x2="468.06" y2="555.14"/>
          <path class="cls-2" d="M377.98,279.9h0c-10.14,3.05-18.07,11.9-20.81,23.24h0c-2.72-11.34-10.64-20.21-20.78-23.27h0c10.14-3.05,18.07-11.9,20.81-23.24h0c2.72,11.34,10.64,20.21,20.78,23.27Z"/>
          <path class="cls-6" d="M383.4,279.9h0c-10.14,3.05-18.07,11.9-20.81,23.24h0c-2.72-11.34-10.64-20.21-20.78-23.27h0c10.14-3.05,18.07-11.9,20.81-23.24h0c2.72,11.34,10.64,20.21,20.78,23.27Z"/>
        </g>
        <text class="cls-8" transform="translate(237.15 640.55)"><tspan x="0" y="0">와인</tspan></text>
      </g>
    </g>
  </g>
</svg>