<?xml version="1.0" encoding="UTF-8"?>
<svg xmlns="http://www.w3.org/2000/svg" version="1.1" viewBox="0 0 595.28 841.89">
  <defs>
    <style>
      .cls-1 {
        fill: #b9baba;
      }

      .cls-2 {
        fill: #323551;
        font-family: H2gtrE, HYGothic-Extra;
        font-size: 48px;
      }

      .cls-3 {
        fill: #ecefa0;
      }

      .cls-4 {
        fill: #afd8b1;
      }

      .cls-5, .cls-6 {
        fill: #fff;
      }

      .cls-7 {
        fill: #79be49;
      }

      .cls-8 {
        fill: #e7e99e;
      }

      .cls-9 {
        stroke: #323551;
      }

      .cls-9, .cls-10 {
        fill: none;
        stroke-linecap: round;
        stroke-linejoin: round;
        stroke-width: 8px;
      }

      .cls-11 {
        fill: #f9f9d3;
      }

      .cls-6 {
        opacity: .3;
      }

      .cls-12 {
        fill: #689b52;
      }

      .cls-10 {
        stroke: #fff;
      }

      .cls-13 {
        fill: #d9d9da;
      }

      .cls-14 {
        fill: #b3c670;
      }

      .cls-15 {
        fill: #c7e7f3;
      }

      .cls-16 {
        fill: #f5f6d2;
      }
    </style>
  </defs>
  <!-- Generator: Adobe Illustrator 28.7.1, SVG Export Plug-In . SVG Version: 1.2.0 Build 142)  -->
  <g>
    <g id="_레이어_1" data-name="레이어_1">
      <text class="cls-2" transform="translate(249.64 642.68)"><tspan x="0" y="0">약주</tspan></text>
      <g>
        <rect class="cls-15" x="266.28" y="242.91" width="23.03" height="44.13"/>
        <rect class="cls-5" x="289.31" y="242.91" width="22.49" height="44.13"/>
        <path class="cls-3" d="M266.28,287.04v6.39c0,9.4-7.65,17.02-17.09,17.02h0c-9.44,0-17.09,7.62-17.09,17.02v216.87c0,6.37,5.18,11.53,11.57,11.53h45.64v-268.83h-23.03Z"/>
        <path class="cls-11" d="M328.88,310.46c-9.44,0-17.09-7.62-17.09-17.02v-6.39h-22.49v268.83h45.09c6.39,0,11.57-5.16,11.57-11.53v-216.87c0-9.4-7.65-17.02-17.09-17.02Z"/>
        <rect class="cls-4" x="289.31" y="199.21" width="27.1" height="43.7"/>
        <rect class="cls-7" x="261.67" y="199.21" width="27.64" height="43.7"/>
        <path class="cls-1" d="M270.62,350.8c-3.5,0-6.33,2.82-6.33,6.3v131.78c0,3.48,2.83,6.3,6.33,6.3h18.69v-144.39h-18.69Z"/>
        <path class="cls-13" d="M307.45,350.8h-18.15v144.39h18.15c3.5,0,6.33-2.82,6.33-6.3v-131.78c0-3.48-2.83-6.3-6.33-6.3Z"/>
        <path class="cls-9" d="M317.22,293.43v-50.52h-45.52v50.52c0,9.4-7.65,17.02-17.09,17.02h0c-9.44,0-17.09,7.62-17.09,17.02v216.87c0,6.37,5.18,11.53,11.57,11.53h90.73c6.39,0,11.57-5.16,11.57-11.53v-216.87c0-9.4-7.65-17.02-17.09-17.02h0c-9.44,0-17.09-7.62-17.09-17.02Z"/>
        <rect class="cls-9" x="267.09" y="199.21" width="54.74" height="43.7"/>
        <rect class="cls-10" x="269.71" y="350.8" width="49.49" height="144.39" rx="11.67" ry="11.67"/>
        <polygon class="cls-15" points="378.62 432.58 387.92 537.89 387.48 555.87 413.14 555.87 413.14 432.58 378.62 432.58"/>
        <polygon class="cls-5" points="440.1 537.89 449.4 432.58 413.14 432.58 413.14 555.87 440.54 555.87 440.1 537.89"/>
        <path class="cls-16" d="M418.57,440.87v98.21c.29.01.58.02.87.02h0c11.25,0,20.58-8.65,21.39-19.83l5.68-78.4h-27.94Z"/>
        <path class="cls-8" d="M392.36,440.87l5.68,78.4c.79,10.89,9.67,19.38,20.53,19.81v-98.21h-26.21Z"/>
        <polygon class="cls-9" points="392.91 555.87 445.96 555.87 445.52 537.89 454.83 432.58 384.04 432.58 393.34 537.89 392.91 555.87"/>
        <rect class="cls-6" x="304.6" y="320.83" width="29.21" height="222.34" rx="14.6" ry="14.6"/>
        <g>
          <path class="cls-5" d="M392.98,272.9h0,0c-10.14,2.71-18.07,10.6-20.81,20.7h0c-2.72-10.1-10.64-18-20.78-20.73h0c10.14-2.71,18.07-10.6,20.81-20.7h0c2.72,10.1,10.64,18,20.78,20.73Z"/>
          <path class="cls-9" d="M398.41,272.9h0,0c-10.14,2.71-18.07,10.6-20.81,20.7h0c-2.72-10.1-10.64-18-20.78-20.73h0c10.14-2.71,18.07-10.6,20.81-20.7h0c2.72,10.1,10.64,18,20.78,20.73Z"/>
        </g>
        <path class="cls-6" d="M430.11,540.37h0c-3.22,0-5.83-2.6-5.83-5.81v-79.16c0-3.21,2.61-5.81,5.83-5.81h0c3.22,0,5.83,2.6,5.83,5.81v79.16c0,3.21-2.61,5.81-5.83,5.81Z"/>
        <line class="cls-9" x1="130.79" y1="555.87" x2="106.3" y2="555.87"/>
        <line class="cls-9" x1="488.98" y1="555.87" x2="151.41" y2="555.87"/>
        <g>
          <g>
            <path class="cls-14" d="M244.19,506.21c-8.69-2.64-19.56-1.74-29.22,3.16-15.62,7.92-22.13,23.3-14.55,34.35,1.36,1.99,3.09,3.69,5.09,5.12.19-.79.42-1.59.71-2.39,6.03-16.46,20.83-30.22,37.95-40.24Z"/>
            <path class="cls-12" d="M256.98,515.04c-2.9-4.22-7.43-7.19-12.79-8.82-17.12,10.03-31.93,23.78-37.95,40.24-.29.8-.53,1.59-.71,2.39,9.15,6.5,24.1,7.04,36.91.55,15.62-7.92,22.13-23.3,14.55-34.35Z"/>
          </g>
          <path class="cls-9" d="M264.21,515.08c7.58,11.05,1.07,26.43-14.55,34.35-15.62,7.92-34.42,5.38-42.01-5.67s-1.07-26.43,14.55-34.35c15.62-7.92,34.42-5.38,42.01,5.67Z"/>
          <path class="cls-6" d="M244.83,512.66c2.79,2.92.31,7.59-5.53,10.43-5.84,2.85-12.83,2.79-15.62-.12-2.79-2.92-.31-7.59,5.53-10.43,5.84-2.85,12.83-2.79,15.62.12Z"/>
        </g>
        <g>
          <g>
            <path class="cls-14" d="M157.19,500.32c-7.09,5.27-12.06,14.12-12.67,24.16-.98,16.24,9.83,29.46,24.15,29.53,2.57.01,5.08-.4,7.48-1.18-.64-.57-1.25-1.17-1.84-1.82-12.08-13.43-16.95-32.16-17.12-50.68Z"/>
            <path class="cls-12" d="M172.22,495.2c-5.47-.03-10.65,1.87-15.03,5.13.17,18.52,5.04,37.26,17.12,50.68.58.65,1.2,1.26,1.84,1.82,10.93-3.56,19.42-14.78,20.22-28.1.98-16.24-9.83-29.46-24.15-29.53Z"/>
          </g>
          <path class="cls-9" d="M178.99,495.2c14.32.07,25.13,13.29,24.15,29.53-.98,16.24-13.38,29.35-27.7,29.28-14.32-.07-25.13-13.29-24.15-29.53.98-16.24,13.38-29.35,27.7-29.28Z"/>
          <path class="cls-6" d="M166.39,508.81c4.2-.59,7.22,3.81,6.74,9.82-.47,6.01-4.26,11.36-8.46,11.95-4.2.59-7.22-3.81-6.74-9.82.47-6.01,4.26-11.36,8.46-11.95Z"/>
        </g>
      </g>
    </g>
  </g>
</svg>